%TF.GenerationSoftware,KiCad,Pcbnew,8.0.7*%
%TF.CreationDate,2025-02-17T10:06:15+01:00*%
%TF.ProjectId,Mail-box,4d61696c-2d62-46f7-982e-6b696361645f,rev?*%
%TF.SameCoordinates,Original*%
%TF.FileFunction,Other,Comment*%
%FSLAX46Y46*%
G04 Gerber Fmt 4.6, Leading zero omitted, Abs format (unit mm)*
G04 Created by KiCad (PCBNEW 8.0.7) date 2025-02-17 10:06:15*
%MOMM*%
%LPD*%
G01*
G04 APERTURE LIST*
%ADD10C,0.150000*%
G04 APERTURE END LIST*
D10*
X142478809Y-83284819D02*
X142478809Y-82284819D01*
X143050237Y-83284819D02*
X142621666Y-82713390D01*
X143050237Y-82284819D02*
X142478809Y-82856247D01*
X143478809Y-82761009D02*
X143812142Y-82761009D01*
X143954999Y-83284819D02*
X143478809Y-83284819D01*
X143478809Y-83284819D02*
X143478809Y-82284819D01*
X143478809Y-82284819D02*
X143954999Y-82284819D01*
X144383571Y-82761009D02*
X144716904Y-82761009D01*
X144859761Y-83284819D02*
X144383571Y-83284819D01*
X144383571Y-83284819D02*
X144383571Y-82284819D01*
X144383571Y-82284819D02*
X144859761Y-82284819D01*
X145288333Y-83284819D02*
X145288333Y-82284819D01*
X145288333Y-82284819D02*
X145669285Y-82284819D01*
X145669285Y-82284819D02*
X145764523Y-82332438D01*
X145764523Y-82332438D02*
X145812142Y-82380057D01*
X145812142Y-82380057D02*
X145859761Y-82475295D01*
X145859761Y-82475295D02*
X145859761Y-82618152D01*
X145859761Y-82618152D02*
X145812142Y-82713390D01*
X145812142Y-82713390D02*
X145764523Y-82761009D01*
X145764523Y-82761009D02*
X145669285Y-82808628D01*
X145669285Y-82808628D02*
X145288333Y-82808628D01*
X147240714Y-82284819D02*
X147431190Y-82284819D01*
X147431190Y-82284819D02*
X147526428Y-82332438D01*
X147526428Y-82332438D02*
X147621666Y-82427676D01*
X147621666Y-82427676D02*
X147669285Y-82618152D01*
X147669285Y-82618152D02*
X147669285Y-82951485D01*
X147669285Y-82951485D02*
X147621666Y-83141961D01*
X147621666Y-83141961D02*
X147526428Y-83237200D01*
X147526428Y-83237200D02*
X147431190Y-83284819D01*
X147431190Y-83284819D02*
X147240714Y-83284819D01*
X147240714Y-83284819D02*
X147145476Y-83237200D01*
X147145476Y-83237200D02*
X147050238Y-83141961D01*
X147050238Y-83141961D02*
X147002619Y-82951485D01*
X147002619Y-82951485D02*
X147002619Y-82618152D01*
X147002619Y-82618152D02*
X147050238Y-82427676D01*
X147050238Y-82427676D02*
X147145476Y-82332438D01*
X147145476Y-82332438D02*
X147240714Y-82284819D01*
X148097857Y-82284819D02*
X148097857Y-83094342D01*
X148097857Y-83094342D02*
X148145476Y-83189580D01*
X148145476Y-83189580D02*
X148193095Y-83237200D01*
X148193095Y-83237200D02*
X148288333Y-83284819D01*
X148288333Y-83284819D02*
X148478809Y-83284819D01*
X148478809Y-83284819D02*
X148574047Y-83237200D01*
X148574047Y-83237200D02*
X148621666Y-83189580D01*
X148621666Y-83189580D02*
X148669285Y-83094342D01*
X148669285Y-83094342D02*
X148669285Y-82284819D01*
X149002619Y-82284819D02*
X149574047Y-82284819D01*
X149288333Y-83284819D02*
X149288333Y-82284819D01*
X142312142Y-85824819D02*
X142312142Y-84824819D01*
X142312142Y-84824819D02*
X142883570Y-85824819D01*
X142883570Y-85824819D02*
X142883570Y-84824819D01*
X143502618Y-85824819D02*
X143407380Y-85777200D01*
X143407380Y-85777200D02*
X143359761Y-85729580D01*
X143359761Y-85729580D02*
X143312142Y-85634342D01*
X143312142Y-85634342D02*
X143312142Y-85348628D01*
X143312142Y-85348628D02*
X143359761Y-85253390D01*
X143359761Y-85253390D02*
X143407380Y-85205771D01*
X143407380Y-85205771D02*
X143502618Y-85158152D01*
X143502618Y-85158152D02*
X143645475Y-85158152D01*
X143645475Y-85158152D02*
X143740713Y-85205771D01*
X143740713Y-85205771D02*
X143788332Y-85253390D01*
X143788332Y-85253390D02*
X143835951Y-85348628D01*
X143835951Y-85348628D02*
X143835951Y-85634342D01*
X143835951Y-85634342D02*
X143788332Y-85729580D01*
X143788332Y-85729580D02*
X143740713Y-85777200D01*
X143740713Y-85777200D02*
X143645475Y-85824819D01*
X143645475Y-85824819D02*
X143502618Y-85824819D01*
X145454999Y-85777200D02*
X145359761Y-85824819D01*
X145359761Y-85824819D02*
X145169285Y-85824819D01*
X145169285Y-85824819D02*
X145074047Y-85777200D01*
X145074047Y-85777200D02*
X145026428Y-85729580D01*
X145026428Y-85729580D02*
X144978809Y-85634342D01*
X144978809Y-85634342D02*
X144978809Y-85348628D01*
X144978809Y-85348628D02*
X145026428Y-85253390D01*
X145026428Y-85253390D02*
X145074047Y-85205771D01*
X145074047Y-85205771D02*
X145169285Y-85158152D01*
X145169285Y-85158152D02*
X145359761Y-85158152D01*
X145359761Y-85158152D02*
X145454999Y-85205771D01*
X146026428Y-85824819D02*
X145931190Y-85777200D01*
X145931190Y-85777200D02*
X145883571Y-85729580D01*
X145883571Y-85729580D02*
X145835952Y-85634342D01*
X145835952Y-85634342D02*
X145835952Y-85348628D01*
X145835952Y-85348628D02*
X145883571Y-85253390D01*
X145883571Y-85253390D02*
X145931190Y-85205771D01*
X145931190Y-85205771D02*
X146026428Y-85158152D01*
X146026428Y-85158152D02*
X146169285Y-85158152D01*
X146169285Y-85158152D02*
X146264523Y-85205771D01*
X146264523Y-85205771D02*
X146312142Y-85253390D01*
X146312142Y-85253390D02*
X146359761Y-85348628D01*
X146359761Y-85348628D02*
X146359761Y-85634342D01*
X146359761Y-85634342D02*
X146312142Y-85729580D01*
X146312142Y-85729580D02*
X146264523Y-85777200D01*
X146264523Y-85777200D02*
X146169285Y-85824819D01*
X146169285Y-85824819D02*
X146026428Y-85824819D01*
X146788333Y-85158152D02*
X146788333Y-86158152D01*
X146788333Y-85205771D02*
X146883571Y-85158152D01*
X146883571Y-85158152D02*
X147074047Y-85158152D01*
X147074047Y-85158152D02*
X147169285Y-85205771D01*
X147169285Y-85205771D02*
X147216904Y-85253390D01*
X147216904Y-85253390D02*
X147264523Y-85348628D01*
X147264523Y-85348628D02*
X147264523Y-85634342D01*
X147264523Y-85634342D02*
X147216904Y-85729580D01*
X147216904Y-85729580D02*
X147169285Y-85777200D01*
X147169285Y-85777200D02*
X147074047Y-85824819D01*
X147074047Y-85824819D02*
X146883571Y-85824819D01*
X146883571Y-85824819D02*
X146788333Y-85777200D01*
X147693095Y-85158152D02*
X147693095Y-86158152D01*
X147693095Y-85205771D02*
X147788333Y-85158152D01*
X147788333Y-85158152D02*
X147978809Y-85158152D01*
X147978809Y-85158152D02*
X148074047Y-85205771D01*
X148074047Y-85205771D02*
X148121666Y-85253390D01*
X148121666Y-85253390D02*
X148169285Y-85348628D01*
X148169285Y-85348628D02*
X148169285Y-85634342D01*
X148169285Y-85634342D02*
X148121666Y-85729580D01*
X148121666Y-85729580D02*
X148074047Y-85777200D01*
X148074047Y-85777200D02*
X147978809Y-85824819D01*
X147978809Y-85824819D02*
X147788333Y-85824819D01*
X147788333Y-85824819D02*
X147693095Y-85777200D01*
X148978809Y-85777200D02*
X148883571Y-85824819D01*
X148883571Y-85824819D02*
X148693095Y-85824819D01*
X148693095Y-85824819D02*
X148597857Y-85777200D01*
X148597857Y-85777200D02*
X148550238Y-85681961D01*
X148550238Y-85681961D02*
X148550238Y-85301009D01*
X148550238Y-85301009D02*
X148597857Y-85205771D01*
X148597857Y-85205771D02*
X148693095Y-85158152D01*
X148693095Y-85158152D02*
X148883571Y-85158152D01*
X148883571Y-85158152D02*
X148978809Y-85205771D01*
X148978809Y-85205771D02*
X149026428Y-85301009D01*
X149026428Y-85301009D02*
X149026428Y-85396247D01*
X149026428Y-85396247D02*
X148550238Y-85491485D01*
X149455000Y-85824819D02*
X149455000Y-85158152D01*
X149455000Y-85348628D02*
X149502619Y-85253390D01*
X149502619Y-85253390D02*
X149550238Y-85205771D01*
X149550238Y-85205771D02*
X149645476Y-85158152D01*
X149645476Y-85158152D02*
X149740714Y-85158152D01*
%TO.C,REF\u002A\u002A*%
X96195000Y-112215000D02*
G75*
G02*
X90595000Y-112215000I-2800000J0D01*
G01*
X90595000Y-112215000D02*
G75*
G02*
X96195000Y-112215000I2800000J0D01*
G01*
X96195000Y-84235000D02*
G75*
G02*
X90595000Y-84235000I-2800000J0D01*
G01*
X90595000Y-84235000D02*
G75*
G02*
X96195000Y-84235000I2800000J0D01*
G01*
X150195000Y-112215000D02*
G75*
G02*
X144595000Y-112215000I-2800000J0D01*
G01*
X144595000Y-112215000D02*
G75*
G02*
X150195000Y-112215000I2800000J0D01*
G01*
%TD*%
M02*
