M48
INCH
T1C0.0118
T2C0.0315
T3C0.0394
%
G90
G05
T1
X3.1469Y-3.3736
X3.2311Y-3.3736
X3.2358Y-3.1929
X3.3024Y-3.7378
X3.3083Y-3.2748
X3.3102Y-3.8453
X3.4331Y-3.6701
X3.4744Y-3.1035
X3.4744Y-3.2024
X3.5028Y-3.628
X3.5319Y-3.9799
X3.572Y-4.065
X3.572Y-4.1882
X3.5858Y-3.7976
X3.5874Y-3.9185
X3.6748Y-3.1083
X3.6772Y-3.2047
X3.7217Y-3.7748
X3.8067Y-3.7102
X3.8488Y-3.8831
X3.8563Y-3.9661
X3.8724Y-3.1035
X3.8724Y-3.2
X3.8925Y-3.6559
X3.8961Y-3.7756
X4.0193Y-3.6382
X4.1087Y-3.1976
X4.1106Y-3.1012
X4.1882Y-3.8917
X4.2445Y-3.0126
X4.2894Y-3.1059
X4.2894Y-3.2094
X4.348Y-3.6071
X4.361Y-3.0835
X4.3622Y-2.9398
X4.4835Y-3.0106
X4.5016Y-3.113
X4.5043Y-3.2169
X4.5618Y-3.2508
X4.602Y-3.6555
X4.6067Y-3.498
X4.6339Y-4.011
X4.639Y-3.1902
X4.6547Y-3.8406
X4.6555Y-3.6925
X4.6654Y-3.787
X4.6677Y-4.0614
X4.6736Y-3.3323
X4.6843Y-3.5295
X4.7177Y-3.8858
X4.7185Y-3.9248
X4.7189Y-3.835
X4.7413Y-4.4094
X4.7594Y-4.011
X4.8098Y-3.9264
X4.8175Y-3.4108
X4.8236Y-4.3122
X4.8244Y-4.5307
X4.9083Y-4.4118
X4.9094Y-4.248
X4.9244Y-3.9161
X5.0083Y-3.7795
X5.0571Y-4.0823
X5.1291Y-3.8917
X5.1291Y-4.2846
X5.1843Y-3.6323
X5.213Y-3.6571
X5.2598Y-4.3118
X5.2724Y-4.4465
X5.3531Y-3.9602
X5.3913Y-3.5075
X5.3921Y-4.6295
X5.4567Y-4.3157
X5.4646Y-3.9157
X5.5252Y-3.8134
X5.5488Y-4.4823
X5.5827Y-4.263
X5.7154Y-3.772
X5.9057Y-3.8136
X6.0406Y-3.6047
T2
X4.8642Y-2.9205
X5.2642Y-2.9205
T3
X3.4166Y-4.6508
X3.4166Y-4.7492
X4.0709Y-4.376
X4.3008Y-4.8154
X4.3701Y-4.376
X4.3992Y-4.8154
X4.4811Y-3.3563
X4.4811Y-3.4563
X4.4811Y-3.5563
X4.4811Y-3.6563
X4.4811Y-3.7563
X4.4811Y-3.8563
X4.4811Y-3.9563
X4.7083Y-4.8201
X4.8067Y-4.8201
X5.1193Y-4.815
X5.2177Y-4.815
X5.2963Y-3.511
X5.2963Y-3.611
X5.2963Y-3.711
X5.2963Y-3.811
X5.2963Y-3.911
X5.2963Y-4.011
X5.2963Y-4.111
X5.2963Y-4.211
X6.0835Y-2.9181
X6.0835Y-3.0165
X6.1963Y-3.511
X6.1963Y-3.611
X6.1963Y-3.711
X6.1963Y-3.811
X6.1963Y-3.911
X6.1963Y-4.011
X6.1963Y-4.111
X6.1963Y-4.211
M30
