%TF.GenerationSoftware,KiCad,Pcbnew,8.0.7*%
%TF.CreationDate,2025-02-17T10:06:15+01:00*%
%TF.ProjectId,Mail-box,4d61696c-2d62-46f7-982e-6b696361645f,rev?*%
%TF.SameCoordinates,Original*%
%TF.FileFunction,Soldermask,Bot*%
%TF.FilePolarity,Negative*%
%FSLAX46Y46*%
G04 Gerber Fmt 4.6, Leading zero omitted, Abs format (unit mm)*
G04 Created by KiCad (PCBNEW 8.0.7) date 2025-02-17 10:06:15*
%MOMM*%
%LPD*%
G01*
G04 APERTURE LIST*
G04 Aperture macros list*
%AMRoundRect*
0 Rectangle with rounded corners*
0 $1 Rounding radius*
0 $2 $3 $4 $5 $6 $7 $8 $9 X,Y pos of 4 corners*
0 Add a 4 corners polygon primitive as box body*
4,1,4,$2,$3,$4,$5,$6,$7,$8,$9,$2,$3,0*
0 Add four circle primitives for the rounded corners*
1,1,$1+$1,$2,$3*
1,1,$1+$1,$4,$5*
1,1,$1+$1,$6,$7*
1,1,$1+$1,$8,$9*
0 Add four rect primitives between the rounded corners*
20,1,$1+$1,$2,$3,$4,$5,0*
20,1,$1+$1,$4,$5,$6,$7,0*
20,1,$1+$1,$6,$7,$8,$9,0*
20,1,$1+$1,$8,$9,$2,$3,0*%
G04 Aperture macros list end*
%ADD10C,3.200000*%
%ADD11RoundRect,0.250000X-0.600000X-0.750000X0.600000X-0.750000X0.600000X0.750000X-0.600000X0.750000X0*%
%ADD12O,1.700000X2.000000*%
%ADD13RoundRect,0.250000X0.750000X-0.600000X0.750000X0.600000X-0.750000X0.600000X-0.750000X-0.600000X0*%
%ADD14O,2.000000X1.700000*%
%ADD15R,2.000000X2.000000*%
%ADD16O,2.000000X1.600000*%
%ADD17RoundRect,0.250000X-0.750000X0.600000X-0.750000X-0.600000X0.750000X-0.600000X0.750000X0.600000X0*%
%ADD18R,1.700000X1.700000*%
%ADD19O,1.700000X1.700000*%
%ADD20C,2.000000*%
%ADD21C,1.600000*%
%ADD22O,1.600000X1.600000*%
G04 APERTURE END LIST*
D10*
%TO.C,REF\u002A\u002A*%
X93395000Y-112215000D03*
%TD*%
%TO.C,REF\u002A\u002A*%
X93395000Y-84235000D03*
%TD*%
D11*
%TO.C,J4*%
X130030000Y-122300000D03*
D12*
X132530000Y-122300000D03*
%TD*%
D13*
%TO.C,J1*%
X86782500Y-120630000D03*
D14*
X86782500Y-118130000D03*
%TD*%
D15*
%TO.C,U3*%
X134525000Y-89180000D03*
D16*
X134525000Y-91720000D03*
X134525000Y-94260000D03*
X134525000Y-96800000D03*
X134525000Y-99340000D03*
X134525000Y-101880000D03*
X134525000Y-104420000D03*
X134525000Y-106960000D03*
X157385000Y-106960000D03*
X157385000Y-104420000D03*
X157385000Y-101880000D03*
X157385000Y-99340000D03*
X157385000Y-96800000D03*
X157385000Y-94260000D03*
X157385000Y-91720000D03*
X157385000Y-89180000D03*
%TD*%
D10*
%TO.C,REF\u002A\u002A*%
X147395000Y-112215000D03*
%TD*%
D17*
%TO.C,J5*%
X154520000Y-74120000D03*
D14*
X154520000Y-76620000D03*
%TD*%
D18*
%TO.C,U5*%
X113820000Y-100490000D03*
D19*
X113820000Y-97950000D03*
X113820000Y-95410000D03*
X113820000Y-92870000D03*
X113820000Y-90330000D03*
X113820000Y-87790000D03*
X113820000Y-85250000D03*
%TD*%
D15*
%TO.C,BZ1*%
X111000000Y-111150000D03*
D20*
X103400000Y-111150000D03*
%TD*%
D21*
%TO.C,F1*%
X133710000Y-74180000D03*
D22*
X123550000Y-74180000D03*
%TD*%
D11*
%TO.C,J3*%
X119590000Y-122430000D03*
D12*
X122090000Y-122430000D03*
%TD*%
D11*
%TO.C,J2*%
X109240000Y-122310000D03*
D12*
X111740000Y-122310000D03*
%TD*%
M02*
