%TF.GenerationSoftware,KiCad,Pcbnew,8.0.7*%
%TF.CreationDate,2025-02-17T10:06:15+01:00*%
%TF.ProjectId,Mail-box,4d61696c-2d62-46f7-982e-6b696361645f,rev?*%
%TF.SameCoordinates,Original*%
%TF.FileFunction,Legend,Bot*%
%TF.FilePolarity,Positive*%
%FSLAX46Y46*%
G04 Gerber Fmt 4.6, Leading zero omitted, Abs format (unit mm)*
G04 Created by KiCad (PCBNEW 8.0.7) date 2025-02-17 10:06:15*
%MOMM*%
%LPD*%
G01*
G04 APERTURE LIST*
G04 Aperture macros list*
%AMRoundRect*
0 Rectangle with rounded corners*
0 $1 Rounding radius*
0 $2 $3 $4 $5 $6 $7 $8 $9 X,Y pos of 4 corners*
0 Add a 4 corners polygon primitive as box body*
4,1,4,$2,$3,$4,$5,$6,$7,$8,$9,$2,$3,0*
0 Add four circle primitives for the rounded corners*
1,1,$1+$1,$2,$3*
1,1,$1+$1,$4,$5*
1,1,$1+$1,$6,$7*
1,1,$1+$1,$8,$9*
0 Add four rect primitives between the rounded corners*
20,1,$1+$1,$2,$3,$4,$5,0*
20,1,$1+$1,$4,$5,$6,$7,0*
20,1,$1+$1,$6,$7,$8,$9,0*
20,1,$1+$1,$8,$9,$2,$3,0*%
G04 Aperture macros list end*
%ADD10C,0.100000*%
%ADD11C,3.200000*%
%ADD12RoundRect,0.250000X-0.600000X-0.750000X0.600000X-0.750000X0.600000X0.750000X-0.600000X0.750000X0*%
%ADD13O,1.700000X2.000000*%
%ADD14RoundRect,0.250000X0.750000X-0.600000X0.750000X0.600000X-0.750000X0.600000X-0.750000X-0.600000X0*%
%ADD15O,2.000000X1.700000*%
%ADD16R,2.000000X2.000000*%
%ADD17O,2.000000X1.600000*%
%ADD18RoundRect,0.250000X-0.750000X0.600000X-0.750000X-0.600000X0.750000X-0.600000X0.750000X0.600000X0*%
%ADD19R,1.700000X1.700000*%
%ADD20O,1.700000X1.700000*%
%ADD21C,2.000000*%
%ADD22C,1.600000*%
%ADD23O,1.600000X1.600000*%
G04 APERTURE END LIST*
D10*
X91658734Y-125541895D02*
X91658734Y-124741895D01*
X91658734Y-124741895D02*
X91353972Y-124741895D01*
X91353972Y-124741895D02*
X91277782Y-124779990D01*
X91277782Y-124779990D02*
X91239687Y-124818085D01*
X91239687Y-124818085D02*
X91201591Y-124894276D01*
X91201591Y-124894276D02*
X91201591Y-125008561D01*
X91201591Y-125008561D02*
X91239687Y-125084752D01*
X91239687Y-125084752D02*
X91277782Y-125122847D01*
X91277782Y-125122847D02*
X91353972Y-125160942D01*
X91353972Y-125160942D02*
X91658734Y-125160942D01*
X90515877Y-125541895D02*
X90515877Y-125122847D01*
X90515877Y-125122847D02*
X90553972Y-125046657D01*
X90553972Y-125046657D02*
X90630163Y-125008561D01*
X90630163Y-125008561D02*
X90782544Y-125008561D01*
X90782544Y-125008561D02*
X90858734Y-125046657D01*
X90515877Y-125503800D02*
X90592068Y-125541895D01*
X90592068Y-125541895D02*
X90782544Y-125541895D01*
X90782544Y-125541895D02*
X90858734Y-125503800D01*
X90858734Y-125503800D02*
X90896830Y-125427609D01*
X90896830Y-125427609D02*
X90896830Y-125351419D01*
X90896830Y-125351419D02*
X90858734Y-125275228D01*
X90858734Y-125275228D02*
X90782544Y-125237133D01*
X90782544Y-125237133D02*
X90592068Y-125237133D01*
X90592068Y-125237133D02*
X90515877Y-125199038D01*
X89792067Y-125008561D02*
X89792067Y-125541895D01*
X90134924Y-125008561D02*
X90134924Y-125427609D01*
X90134924Y-125427609D02*
X90096829Y-125503800D01*
X90096829Y-125503800D02*
X90020639Y-125541895D01*
X90020639Y-125541895D02*
X89906353Y-125541895D01*
X89906353Y-125541895D02*
X89830162Y-125503800D01*
X89830162Y-125503800D02*
X89792067Y-125465704D01*
X89296829Y-125541895D02*
X89373019Y-125503800D01*
X89373019Y-125503800D02*
X89411114Y-125427609D01*
X89411114Y-125427609D02*
X89411114Y-124741895D01*
X89068257Y-125008561D02*
X88877781Y-125541895D01*
X88877781Y-125541895D02*
X88687304Y-125008561D01*
X87811114Y-124818085D02*
X87773018Y-124779990D01*
X87773018Y-124779990D02*
X87696828Y-124741895D01*
X87696828Y-124741895D02*
X87506352Y-124741895D01*
X87506352Y-124741895D02*
X87430161Y-124779990D01*
X87430161Y-124779990D02*
X87392066Y-124818085D01*
X87392066Y-124818085D02*
X87353971Y-124894276D01*
X87353971Y-124894276D02*
X87353971Y-124970466D01*
X87353971Y-124970466D02*
X87392066Y-125084752D01*
X87392066Y-125084752D02*
X87849209Y-125541895D01*
X87849209Y-125541895D02*
X87353971Y-125541895D01*
X86858732Y-124741895D02*
X86782542Y-124741895D01*
X86782542Y-124741895D02*
X86706351Y-124779990D01*
X86706351Y-124779990D02*
X86668256Y-124818085D01*
X86668256Y-124818085D02*
X86630161Y-124894276D01*
X86630161Y-124894276D02*
X86592066Y-125046657D01*
X86592066Y-125046657D02*
X86592066Y-125237133D01*
X86592066Y-125237133D02*
X86630161Y-125389514D01*
X86630161Y-125389514D02*
X86668256Y-125465704D01*
X86668256Y-125465704D02*
X86706351Y-125503800D01*
X86706351Y-125503800D02*
X86782542Y-125541895D01*
X86782542Y-125541895D02*
X86858732Y-125541895D01*
X86858732Y-125541895D02*
X86934923Y-125503800D01*
X86934923Y-125503800D02*
X86973018Y-125465704D01*
X86973018Y-125465704D02*
X87011113Y-125389514D01*
X87011113Y-125389514D02*
X87049209Y-125237133D01*
X87049209Y-125237133D02*
X87049209Y-125046657D01*
X87049209Y-125046657D02*
X87011113Y-124894276D01*
X87011113Y-124894276D02*
X86973018Y-124818085D01*
X86973018Y-124818085D02*
X86934923Y-124779990D01*
X86934923Y-124779990D02*
X86858732Y-124741895D01*
X86287304Y-124818085D02*
X86249208Y-124779990D01*
X86249208Y-124779990D02*
X86173018Y-124741895D01*
X86173018Y-124741895D02*
X85982542Y-124741895D01*
X85982542Y-124741895D02*
X85906351Y-124779990D01*
X85906351Y-124779990D02*
X85868256Y-124818085D01*
X85868256Y-124818085D02*
X85830161Y-124894276D01*
X85830161Y-124894276D02*
X85830161Y-124970466D01*
X85830161Y-124970466D02*
X85868256Y-125084752D01*
X85868256Y-125084752D02*
X86325399Y-125541895D01*
X86325399Y-125541895D02*
X85830161Y-125541895D01*
X85106351Y-124741895D02*
X85487303Y-124741895D01*
X85487303Y-124741895D02*
X85525399Y-125122847D01*
X85525399Y-125122847D02*
X85487303Y-125084752D01*
X85487303Y-125084752D02*
X85411113Y-125046657D01*
X85411113Y-125046657D02*
X85220637Y-125046657D01*
X85220637Y-125046657D02*
X85144446Y-125084752D01*
X85144446Y-125084752D02*
X85106351Y-125122847D01*
X85106351Y-125122847D02*
X85068256Y-125199038D01*
X85068256Y-125199038D02*
X85068256Y-125389514D01*
X85068256Y-125389514D02*
X85106351Y-125465704D01*
X85106351Y-125465704D02*
X85144446Y-125503800D01*
X85144446Y-125503800D02*
X85220637Y-125541895D01*
X85220637Y-125541895D02*
X85411113Y-125541895D01*
X85411113Y-125541895D02*
X85487303Y-125503800D01*
X85487303Y-125503800D02*
X85525399Y-125465704D01*
X158358734Y-125601895D02*
X158358734Y-124801895D01*
X158358734Y-125182847D02*
X157901591Y-125182847D01*
X157901591Y-125601895D02*
X157901591Y-124801895D01*
X157177782Y-125601895D02*
X157177782Y-125182847D01*
X157177782Y-125182847D02*
X157215877Y-125106657D01*
X157215877Y-125106657D02*
X157292068Y-125068561D01*
X157292068Y-125068561D02*
X157444449Y-125068561D01*
X157444449Y-125068561D02*
X157520639Y-125106657D01*
X157177782Y-125563800D02*
X157253973Y-125601895D01*
X157253973Y-125601895D02*
X157444449Y-125601895D01*
X157444449Y-125601895D02*
X157520639Y-125563800D01*
X157520639Y-125563800D02*
X157558735Y-125487609D01*
X157558735Y-125487609D02*
X157558735Y-125411419D01*
X157558735Y-125411419D02*
X157520639Y-125335228D01*
X157520639Y-125335228D02*
X157444449Y-125297133D01*
X157444449Y-125297133D02*
X157253973Y-125297133D01*
X157253973Y-125297133D02*
X157177782Y-125259038D01*
X156796829Y-125601895D02*
X156796829Y-125068561D01*
X156796829Y-125144752D02*
X156758734Y-125106657D01*
X156758734Y-125106657D02*
X156682544Y-125068561D01*
X156682544Y-125068561D02*
X156568258Y-125068561D01*
X156568258Y-125068561D02*
X156492067Y-125106657D01*
X156492067Y-125106657D02*
X156453972Y-125182847D01*
X156453972Y-125182847D02*
X156453972Y-125601895D01*
X156453972Y-125182847D02*
X156415877Y-125106657D01*
X156415877Y-125106657D02*
X156339686Y-125068561D01*
X156339686Y-125068561D02*
X156225401Y-125068561D01*
X156225401Y-125068561D02*
X156149210Y-125106657D01*
X156149210Y-125106657D02*
X156111115Y-125182847D01*
X156111115Y-125182847D02*
X156111115Y-125601895D01*
X155730162Y-125601895D02*
X155730162Y-125068561D01*
X155730162Y-125144752D02*
X155692067Y-125106657D01*
X155692067Y-125106657D02*
X155615877Y-125068561D01*
X155615877Y-125068561D02*
X155501591Y-125068561D01*
X155501591Y-125068561D02*
X155425400Y-125106657D01*
X155425400Y-125106657D02*
X155387305Y-125182847D01*
X155387305Y-125182847D02*
X155387305Y-125601895D01*
X155387305Y-125182847D02*
X155349210Y-125106657D01*
X155349210Y-125106657D02*
X155273019Y-125068561D01*
X155273019Y-125068561D02*
X155158734Y-125068561D01*
X155158734Y-125068561D02*
X155082543Y-125106657D01*
X155082543Y-125106657D02*
X155044448Y-125182847D01*
X155044448Y-125182847D02*
X155044448Y-125601895D01*
X154549210Y-125601895D02*
X154625400Y-125563800D01*
X154625400Y-125563800D02*
X154663495Y-125525704D01*
X154663495Y-125525704D02*
X154701591Y-125449514D01*
X154701591Y-125449514D02*
X154701591Y-125220942D01*
X154701591Y-125220942D02*
X154663495Y-125144752D01*
X154663495Y-125144752D02*
X154625400Y-125106657D01*
X154625400Y-125106657D02*
X154549210Y-125068561D01*
X154549210Y-125068561D02*
X154434924Y-125068561D01*
X154434924Y-125068561D02*
X154358733Y-125106657D01*
X154358733Y-125106657D02*
X154320638Y-125144752D01*
X154320638Y-125144752D02*
X154282543Y-125220942D01*
X154282543Y-125220942D02*
X154282543Y-125449514D01*
X154282543Y-125449514D02*
X154320638Y-125525704D01*
X154320638Y-125525704D02*
X154358733Y-125563800D01*
X154358733Y-125563800D02*
X154434924Y-125601895D01*
X154434924Y-125601895D02*
X154549210Y-125601895D01*
X153939685Y-125068561D02*
X153939685Y-125601895D01*
X153939685Y-125144752D02*
X153901590Y-125106657D01*
X153901590Y-125106657D02*
X153825400Y-125068561D01*
X153825400Y-125068561D02*
X153711114Y-125068561D01*
X153711114Y-125068561D02*
X153634923Y-125106657D01*
X153634923Y-125106657D02*
X153596828Y-125182847D01*
X153596828Y-125182847D02*
X153596828Y-125601895D01*
X152873018Y-125601895D02*
X152873018Y-124801895D01*
X152873018Y-125563800D02*
X152949209Y-125601895D01*
X152949209Y-125601895D02*
X153101590Y-125601895D01*
X153101590Y-125601895D02*
X153177780Y-125563800D01*
X153177780Y-125563800D02*
X153215875Y-125525704D01*
X153215875Y-125525704D02*
X153253971Y-125449514D01*
X153253971Y-125449514D02*
X153253971Y-125220942D01*
X153253971Y-125220942D02*
X153215875Y-125144752D01*
X153215875Y-125144752D02*
X153177780Y-125106657D01*
X153177780Y-125106657D02*
X153101590Y-125068561D01*
X153101590Y-125068561D02*
X152949209Y-125068561D01*
X152949209Y-125068561D02*
X152873018Y-125106657D01*
X151463494Y-125601895D02*
X151920637Y-125601895D01*
X151692065Y-125601895D02*
X151692065Y-124801895D01*
X151692065Y-124801895D02*
X151768256Y-124916180D01*
X151768256Y-124916180D02*
X151844446Y-124992371D01*
X151844446Y-124992371D02*
X151920637Y-125030466D01*
X150739684Y-124801895D02*
X151120636Y-124801895D01*
X151120636Y-124801895D02*
X151158732Y-125182847D01*
X151158732Y-125182847D02*
X151120636Y-125144752D01*
X151120636Y-125144752D02*
X151044446Y-125106657D01*
X151044446Y-125106657D02*
X150853970Y-125106657D01*
X150853970Y-125106657D02*
X150777779Y-125144752D01*
X150777779Y-125144752D02*
X150739684Y-125182847D01*
X150739684Y-125182847D02*
X150701589Y-125259038D01*
X150701589Y-125259038D02*
X150701589Y-125449514D01*
X150701589Y-125449514D02*
X150739684Y-125525704D01*
X150739684Y-125525704D02*
X150777779Y-125563800D01*
X150777779Y-125563800D02*
X150853970Y-125601895D01*
X150853970Y-125601895D02*
X151044446Y-125601895D01*
X151044446Y-125601895D02*
X151120636Y-125563800D01*
X151120636Y-125563800D02*
X151158732Y-125525704D01*
X150320636Y-125601895D02*
X150168255Y-125601895D01*
X150168255Y-125601895D02*
X150092065Y-125563800D01*
X150092065Y-125563800D02*
X150053969Y-125525704D01*
X150053969Y-125525704D02*
X149977779Y-125411419D01*
X149977779Y-125411419D02*
X149939684Y-125259038D01*
X149939684Y-125259038D02*
X149939684Y-124954276D01*
X149939684Y-124954276D02*
X149977779Y-124878085D01*
X149977779Y-124878085D02*
X150015874Y-124839990D01*
X150015874Y-124839990D02*
X150092065Y-124801895D01*
X150092065Y-124801895D02*
X150244446Y-124801895D01*
X150244446Y-124801895D02*
X150320636Y-124839990D01*
X150320636Y-124839990D02*
X150358731Y-124878085D01*
X150358731Y-124878085D02*
X150396827Y-124954276D01*
X150396827Y-124954276D02*
X150396827Y-125144752D01*
X150396827Y-125144752D02*
X150358731Y-125220942D01*
X150358731Y-125220942D02*
X150320636Y-125259038D01*
X150320636Y-125259038D02*
X150244446Y-125297133D01*
X150244446Y-125297133D02*
X150092065Y-125297133D01*
X150092065Y-125297133D02*
X150015874Y-125259038D01*
X150015874Y-125259038D02*
X149977779Y-125220942D01*
X149977779Y-125220942D02*
X149939684Y-125144752D01*
X149673017Y-124801895D02*
X149177779Y-124801895D01*
X149177779Y-124801895D02*
X149444445Y-125106657D01*
X149444445Y-125106657D02*
X149330160Y-125106657D01*
X149330160Y-125106657D02*
X149253969Y-125144752D01*
X149253969Y-125144752D02*
X149215874Y-125182847D01*
X149215874Y-125182847D02*
X149177779Y-125259038D01*
X149177779Y-125259038D02*
X149177779Y-125449514D01*
X149177779Y-125449514D02*
X149215874Y-125525704D01*
X149215874Y-125525704D02*
X149253969Y-125563800D01*
X149253969Y-125563800D02*
X149330160Y-125601895D01*
X149330160Y-125601895D02*
X149558731Y-125601895D01*
X149558731Y-125601895D02*
X149634922Y-125563800D01*
X149634922Y-125563800D02*
X149673017Y-125525704D01*
X148453969Y-125601895D02*
X148834921Y-125601895D01*
X148834921Y-125601895D02*
X148834921Y-124801895D01*
%LPC*%
D11*
%TO.C,REF\u002A\u002A*%
X93395000Y-112215000D03*
%TD*%
%TO.C,REF\u002A\u002A*%
X93395000Y-84235000D03*
%TD*%
D12*
%TO.C,J4*%
X130030000Y-122300000D03*
D13*
X132530000Y-122300000D03*
%TD*%
D14*
%TO.C,J1*%
X86782500Y-120630000D03*
D15*
X86782500Y-118130000D03*
%TD*%
D16*
%TO.C,U3*%
X134525000Y-89180000D03*
D17*
X134525000Y-91720000D03*
X134525000Y-94260000D03*
X134525000Y-96800000D03*
X134525000Y-99340000D03*
X134525000Y-101880000D03*
X134525000Y-104420000D03*
X134525000Y-106960000D03*
X157385000Y-106960000D03*
X157385000Y-104420000D03*
X157385000Y-101880000D03*
X157385000Y-99340000D03*
X157385000Y-96800000D03*
X157385000Y-94260000D03*
X157385000Y-91720000D03*
X157385000Y-89180000D03*
%TD*%
D11*
%TO.C,REF\u002A\u002A*%
X147395000Y-112215000D03*
%TD*%
D18*
%TO.C,J5*%
X154520000Y-74120000D03*
D15*
X154520000Y-76620000D03*
%TD*%
D19*
%TO.C,U5*%
X113820000Y-100490000D03*
D20*
X113820000Y-97950000D03*
X113820000Y-95410000D03*
X113820000Y-92870000D03*
X113820000Y-90330000D03*
X113820000Y-87790000D03*
X113820000Y-85250000D03*
%TD*%
D16*
%TO.C,BZ1*%
X111000000Y-111150000D03*
D21*
X103400000Y-111150000D03*
%TD*%
D22*
%TO.C,F1*%
X133710000Y-74180000D03*
D23*
X123550000Y-74180000D03*
%TD*%
D12*
%TO.C,J3*%
X119590000Y-122430000D03*
D13*
X122090000Y-122430000D03*
%TD*%
D12*
%TO.C,J2*%
X109240000Y-122310000D03*
D13*
X111740000Y-122310000D03*
%TD*%
%LPD*%
M02*
