%TF.GenerationSoftware,KiCad,Pcbnew,8.0.7*%
%TF.CreationDate,2025-02-17T10:06:14+01:00*%
%TF.ProjectId,Mail-box,4d61696c-2d62-46f7-982e-6b696361645f,rev?*%
%TF.SameCoordinates,Original*%
%TF.FileFunction,Legend,Top*%
%TF.FilePolarity,Positive*%
%FSLAX46Y46*%
G04 Gerber Fmt 4.6, Leading zero omitted, Abs format (unit mm)*
G04 Created by KiCad (PCBNEW 8.0.7) date 2025-02-17 10:06:14*
%MOMM*%
%LPD*%
G01*
G04 APERTURE LIST*
G04 Aperture macros list*
%AMRoundRect*
0 Rectangle with rounded corners*
0 $1 Rounding radius*
0 $2 $3 $4 $5 $6 $7 $8 $9 X,Y pos of 4 corners*
0 Add a 4 corners polygon primitive as box body*
4,1,4,$2,$3,$4,$5,$6,$7,$8,$9,$2,$3,0*
0 Add four circle primitives for the rounded corners*
1,1,$1+$1,$2,$3*
1,1,$1+$1,$4,$5*
1,1,$1+$1,$6,$7*
1,1,$1+$1,$8,$9*
0 Add four rect primitives between the rounded corners*
20,1,$1+$1,$2,$3,$4,$5,0*
20,1,$1+$1,$4,$5,$6,$7,0*
20,1,$1+$1,$6,$7,$8,$9,0*
20,1,$1+$1,$8,$9,$2,$3,0*%
%AMFreePoly0*
4,1,19,0.550000,-0.750000,0.000000,-0.750000,0.000000,-0.744911,-0.071157,-0.744911,-0.207708,-0.704816,-0.327430,-0.627875,-0.420627,-0.520320,-0.479746,-0.390866,-0.500000,-0.250000,-0.500000,0.250000,-0.479746,0.390866,-0.420627,0.520320,-0.327430,0.627875,-0.207708,0.704816,-0.071157,0.744911,0.000000,0.744911,0.000000,0.750000,0.550000,0.750000,0.550000,-0.750000,0.550000,-0.750000,
$1*%
%AMFreePoly1*
4,1,19,0.000000,0.744911,0.071157,0.744911,0.207708,0.704816,0.327430,0.627875,0.420627,0.520320,0.479746,0.390866,0.500000,0.250000,0.500000,-0.250000,0.479746,-0.390866,0.420627,-0.520320,0.327430,-0.627875,0.207708,-0.704816,0.071157,-0.744911,0.000000,-0.744911,0.000000,-0.750000,-0.550000,-0.750000,-0.550000,0.750000,0.000000,0.750000,0.000000,0.744911,0.000000,0.744911,
$1*%
G04 Aperture macros list end*
%ADD10C,0.100000*%
%ADD11C,0.200000*%
%ADD12C,0.300000*%
%ADD13C,0.150000*%
%ADD14C,0.120000*%
%ADD15C,1.000000*%
%ADD16RoundRect,0.250001X1.999999X0.799999X-1.999999X0.799999X-1.999999X-0.799999X1.999999X-0.799999X0*%
%ADD17RoundRect,0.250000X0.450000X-0.350000X0.450000X0.350000X-0.450000X0.350000X-0.450000X-0.350000X0*%
%ADD18RoundRect,0.250000X-0.450000X0.350000X-0.450000X-0.350000X0.450000X-0.350000X0.450000X0.350000X0*%
%ADD19C,3.200000*%
%ADD20RoundRect,0.250000X-0.600000X-0.750000X0.600000X-0.750000X0.600000X0.750000X-0.600000X0.750000X0*%
%ADD21O,1.700000X2.000000*%
%ADD22RoundRect,0.250000X0.750000X-0.600000X0.750000X0.600000X-0.750000X0.600000X-0.750000X-0.600000X0*%
%ADD23O,2.000000X1.700000*%
%ADD24RoundRect,0.250000X-0.337500X-0.475000X0.337500X-0.475000X0.337500X0.475000X-0.337500X0.475000X0*%
%ADD25R,2.000000X2.000000*%
%ADD26O,2.000000X1.600000*%
%ADD27RoundRect,0.150000X0.150000X-0.587500X0.150000X0.587500X-0.150000X0.587500X-0.150000X-0.587500X0*%
%ADD28RoundRect,0.250000X0.475000X-0.337500X0.475000X0.337500X-0.475000X0.337500X-0.475000X-0.337500X0*%
%ADD29RoundRect,0.250000X-0.750000X0.600000X-0.750000X-0.600000X0.750000X-0.600000X0.750000X0.600000X0*%
%ADD30RoundRect,0.150000X-0.825000X-0.150000X0.825000X-0.150000X0.825000X0.150000X-0.825000X0.150000X0*%
%ADD31RoundRect,0.250000X0.337500X0.475000X-0.337500X0.475000X-0.337500X-0.475000X0.337500X-0.475000X0*%
%ADD32R,1.700000X1.700000*%
%ADD33O,1.700000X1.700000*%
%ADD34RoundRect,0.150000X-0.512500X-0.150000X0.512500X-0.150000X0.512500X0.150000X-0.512500X0.150000X0*%
%ADD35RoundRect,0.250000X-0.350000X-0.450000X0.350000X-0.450000X0.350000X0.450000X-0.350000X0.450000X0*%
%ADD36C,2.000000*%
%ADD37FreePoly0,0.000000*%
%ADD38R,1.000000X1.500000*%
%ADD39FreePoly1,0.000000*%
%ADD40C,1.600000*%
%ADD41O,1.600000X1.600000*%
%ADD42RoundRect,0.250000X0.350000X0.450000X-0.350000X0.450000X-0.350000X-0.450000X0.350000X-0.450000X0*%
%ADD43R,1.300000X1.300000*%
%ADD44R,1.300000X2.000000*%
%ADD45R,0.510000X0.700000*%
%ADD46R,2.000000X1.300000*%
%ADD47RoundRect,0.250001X-0.799999X1.999999X-0.799999X-1.999999X0.799999X-1.999999X0.799999X1.999999X0*%
G04 APERTURE END LIST*
D10*
X81552419Y-105808972D02*
X81552419Y-105237544D01*
X82552419Y-105523258D02*
X81552419Y-105523258D01*
X82552419Y-104904210D02*
X81885752Y-104904210D01*
X82076228Y-104904210D02*
X81980990Y-104856591D01*
X81980990Y-104856591D02*
X81933371Y-104808972D01*
X81933371Y-104808972D02*
X81885752Y-104713734D01*
X81885752Y-104713734D02*
X81885752Y-104618496D01*
X82552419Y-104285162D02*
X81885752Y-104285162D01*
X81552419Y-104285162D02*
X81600038Y-104332781D01*
X81600038Y-104332781D02*
X81647657Y-104285162D01*
X81647657Y-104285162D02*
X81600038Y-104237543D01*
X81600038Y-104237543D02*
X81552419Y-104285162D01*
X81552419Y-104285162D02*
X81647657Y-104285162D01*
X81885752Y-103808972D02*
X82885752Y-103808972D01*
X81933371Y-103808972D02*
X81885752Y-103713734D01*
X81885752Y-103713734D02*
X81885752Y-103523258D01*
X81885752Y-103523258D02*
X81933371Y-103428020D01*
X81933371Y-103428020D02*
X81980990Y-103380401D01*
X81980990Y-103380401D02*
X82076228Y-103332782D01*
X82076228Y-103332782D02*
X82361942Y-103332782D01*
X82361942Y-103332782D02*
X82457180Y-103380401D01*
X82457180Y-103380401D02*
X82504800Y-103428020D01*
X82504800Y-103428020D02*
X82552419Y-103523258D01*
X82552419Y-103523258D02*
X82552419Y-103713734D01*
X82552419Y-103713734D02*
X82504800Y-103808972D01*
X82552419Y-101713734D02*
X82028609Y-101713734D01*
X82028609Y-101713734D02*
X81933371Y-101761353D01*
X81933371Y-101761353D02*
X81885752Y-101856591D01*
X81885752Y-101856591D02*
X81885752Y-102047067D01*
X81885752Y-102047067D02*
X81933371Y-102142305D01*
X82504800Y-101713734D02*
X82552419Y-101808972D01*
X82552419Y-101808972D02*
X82552419Y-102047067D01*
X82552419Y-102047067D02*
X82504800Y-102142305D01*
X82504800Y-102142305D02*
X82409561Y-102189924D01*
X82409561Y-102189924D02*
X82314323Y-102189924D01*
X82314323Y-102189924D02*
X82219085Y-102142305D01*
X82219085Y-102142305D02*
X82171466Y-102047067D01*
X82171466Y-102047067D02*
X82171466Y-101808972D01*
X82171466Y-101808972D02*
X82123847Y-101713734D01*
X82552419Y-100808972D02*
X81552419Y-100808972D01*
X82504800Y-100808972D02*
X82552419Y-100904210D01*
X82552419Y-100904210D02*
X82552419Y-101094686D01*
X82552419Y-101094686D02*
X82504800Y-101189924D01*
X82504800Y-101189924D02*
X82457180Y-101237543D01*
X82457180Y-101237543D02*
X82361942Y-101285162D01*
X82361942Y-101285162D02*
X82076228Y-101285162D01*
X82076228Y-101285162D02*
X81980990Y-101237543D01*
X81980990Y-101237543D02*
X81933371Y-101189924D01*
X81933371Y-101189924D02*
X81885752Y-101094686D01*
X81885752Y-101094686D02*
X81885752Y-100904210D01*
X81885752Y-100904210D02*
X81933371Y-100808972D01*
X81885752Y-100332781D02*
X82742895Y-100332781D01*
X82742895Y-100332781D02*
X82838133Y-100380400D01*
X82838133Y-100380400D02*
X82885752Y-100475638D01*
X82885752Y-100475638D02*
X82885752Y-100523257D01*
X81552419Y-100332781D02*
X81600038Y-100380400D01*
X81600038Y-100380400D02*
X81647657Y-100332781D01*
X81647657Y-100332781D02*
X81600038Y-100285162D01*
X81600038Y-100285162D02*
X81552419Y-100332781D01*
X81552419Y-100332781D02*
X81647657Y-100332781D01*
D11*
X87716816Y-107397219D02*
X88050149Y-108397219D01*
X88050149Y-108397219D02*
X88383482Y-107397219D01*
X88716816Y-108397219D02*
X88716816Y-107730552D01*
X88716816Y-107397219D02*
X88669197Y-107444838D01*
X88669197Y-107444838D02*
X88716816Y-107492457D01*
X88716816Y-107492457D02*
X88764435Y-107444838D01*
X88764435Y-107444838D02*
X88716816Y-107397219D01*
X88716816Y-107397219D02*
X88716816Y-107492457D01*
X89193006Y-108397219D02*
X89193006Y-107397219D01*
X89193006Y-107778171D02*
X89288244Y-107730552D01*
X89288244Y-107730552D02*
X89478720Y-107730552D01*
X89478720Y-107730552D02*
X89573958Y-107778171D01*
X89573958Y-107778171D02*
X89621577Y-107825790D01*
X89621577Y-107825790D02*
X89669196Y-107921028D01*
X89669196Y-107921028D02*
X89669196Y-108206742D01*
X89669196Y-108206742D02*
X89621577Y-108301980D01*
X89621577Y-108301980D02*
X89573958Y-108349600D01*
X89573958Y-108349600D02*
X89478720Y-108397219D01*
X89478720Y-108397219D02*
X89288244Y-108397219D01*
X89288244Y-108397219D02*
X89193006Y-108349600D01*
X90097768Y-108397219D02*
X90097768Y-107730552D01*
X90097768Y-107921028D02*
X90145387Y-107825790D01*
X90145387Y-107825790D02*
X90193006Y-107778171D01*
X90193006Y-107778171D02*
X90288244Y-107730552D01*
X90288244Y-107730552D02*
X90383482Y-107730552D01*
X91145387Y-108397219D02*
X91145387Y-107873409D01*
X91145387Y-107873409D02*
X91097768Y-107778171D01*
X91097768Y-107778171D02*
X91002530Y-107730552D01*
X91002530Y-107730552D02*
X90812054Y-107730552D01*
X90812054Y-107730552D02*
X90716816Y-107778171D01*
X91145387Y-108349600D02*
X91050149Y-108397219D01*
X91050149Y-108397219D02*
X90812054Y-108397219D01*
X90812054Y-108397219D02*
X90716816Y-108349600D01*
X90716816Y-108349600D02*
X90669197Y-108254361D01*
X90669197Y-108254361D02*
X90669197Y-108159123D01*
X90669197Y-108159123D02*
X90716816Y-108063885D01*
X90716816Y-108063885D02*
X90812054Y-108016266D01*
X90812054Y-108016266D02*
X91050149Y-108016266D01*
X91050149Y-108016266D02*
X91145387Y-107968647D01*
X91478721Y-107730552D02*
X91859673Y-107730552D01*
X91621578Y-107397219D02*
X91621578Y-108254361D01*
X91621578Y-108254361D02*
X91669197Y-108349600D01*
X91669197Y-108349600D02*
X91764435Y-108397219D01*
X91764435Y-108397219D02*
X91859673Y-108397219D01*
X92193007Y-108397219D02*
X92193007Y-107730552D01*
X92193007Y-107397219D02*
X92145388Y-107444838D01*
X92145388Y-107444838D02*
X92193007Y-107492457D01*
X92193007Y-107492457D02*
X92240626Y-107444838D01*
X92240626Y-107444838D02*
X92193007Y-107397219D01*
X92193007Y-107397219D02*
X92193007Y-107492457D01*
X92812054Y-108397219D02*
X92716816Y-108349600D01*
X92716816Y-108349600D02*
X92669197Y-108301980D01*
X92669197Y-108301980D02*
X92621578Y-108206742D01*
X92621578Y-108206742D02*
X92621578Y-107921028D01*
X92621578Y-107921028D02*
X92669197Y-107825790D01*
X92669197Y-107825790D02*
X92716816Y-107778171D01*
X92716816Y-107778171D02*
X92812054Y-107730552D01*
X92812054Y-107730552D02*
X92954911Y-107730552D01*
X92954911Y-107730552D02*
X93050149Y-107778171D01*
X93050149Y-107778171D02*
X93097768Y-107825790D01*
X93097768Y-107825790D02*
X93145387Y-107921028D01*
X93145387Y-107921028D02*
X93145387Y-108206742D01*
X93145387Y-108206742D02*
X93097768Y-108301980D01*
X93097768Y-108301980D02*
X93050149Y-108349600D01*
X93050149Y-108349600D02*
X92954911Y-108397219D01*
X92954911Y-108397219D02*
X92812054Y-108397219D01*
X93573959Y-107730552D02*
X93573959Y-108397219D01*
X93573959Y-107825790D02*
X93621578Y-107778171D01*
X93621578Y-107778171D02*
X93716816Y-107730552D01*
X93716816Y-107730552D02*
X93859673Y-107730552D01*
X93859673Y-107730552D02*
X93954911Y-107778171D01*
X93954911Y-107778171D02*
X94002530Y-107873409D01*
X94002530Y-107873409D02*
X94002530Y-108397219D01*
X147047219Y-77025564D02*
X147047219Y-76406517D01*
X147047219Y-76406517D02*
X147428171Y-76739850D01*
X147428171Y-76739850D02*
X147428171Y-76596993D01*
X147428171Y-76596993D02*
X147475790Y-76501755D01*
X147475790Y-76501755D02*
X147523409Y-76454136D01*
X147523409Y-76454136D02*
X147618647Y-76406517D01*
X147618647Y-76406517D02*
X147856742Y-76406517D01*
X147856742Y-76406517D02*
X147951980Y-76454136D01*
X147951980Y-76454136D02*
X147999600Y-76501755D01*
X147999600Y-76501755D02*
X148047219Y-76596993D01*
X148047219Y-76596993D02*
X148047219Y-76882707D01*
X148047219Y-76882707D02*
X147999600Y-76977945D01*
X147999600Y-76977945D02*
X147951980Y-77025564D01*
X147951980Y-75977945D02*
X147999600Y-75930326D01*
X147999600Y-75930326D02*
X148047219Y-75977945D01*
X148047219Y-75977945D02*
X147999600Y-76025564D01*
X147999600Y-76025564D02*
X147951980Y-75977945D01*
X147951980Y-75977945D02*
X148047219Y-75977945D01*
X147047219Y-75596993D02*
X147047219Y-74930327D01*
X147047219Y-74930327D02*
X148047219Y-75358898D01*
X147047219Y-74692231D02*
X148047219Y-74358898D01*
X148047219Y-74358898D02*
X147047219Y-74025565D01*
D10*
X80573884Y-73582531D02*
X80573884Y-72582531D01*
X80573884Y-72582531D02*
X80907217Y-73296816D01*
X80907217Y-73296816D02*
X81240550Y-72582531D01*
X81240550Y-72582531D02*
X81240550Y-73582531D01*
X82145312Y-73582531D02*
X82145312Y-73058721D01*
X82145312Y-73058721D02*
X82097693Y-72963483D01*
X82097693Y-72963483D02*
X82002455Y-72915864D01*
X82002455Y-72915864D02*
X81811979Y-72915864D01*
X81811979Y-72915864D02*
X81716741Y-72963483D01*
X82145312Y-73534912D02*
X82050074Y-73582531D01*
X82050074Y-73582531D02*
X81811979Y-73582531D01*
X81811979Y-73582531D02*
X81716741Y-73534912D01*
X81716741Y-73534912D02*
X81669122Y-73439673D01*
X81669122Y-73439673D02*
X81669122Y-73344435D01*
X81669122Y-73344435D02*
X81716741Y-73249197D01*
X81716741Y-73249197D02*
X81811979Y-73201578D01*
X81811979Y-73201578D02*
X82050074Y-73201578D01*
X82050074Y-73201578D02*
X82145312Y-73153959D01*
X82621503Y-73582531D02*
X82621503Y-72915864D01*
X82621503Y-72582531D02*
X82573884Y-72630150D01*
X82573884Y-72630150D02*
X82621503Y-72677769D01*
X82621503Y-72677769D02*
X82669122Y-72630150D01*
X82669122Y-72630150D02*
X82621503Y-72582531D01*
X82621503Y-72582531D02*
X82621503Y-72677769D01*
X83240550Y-73582531D02*
X83145312Y-73534912D01*
X83145312Y-73534912D02*
X83097693Y-73439673D01*
X83097693Y-73439673D02*
X83097693Y-72582531D01*
X83621503Y-73582531D02*
X83621503Y-72582531D01*
X83621503Y-72963483D02*
X83716741Y-72915864D01*
X83716741Y-72915864D02*
X83907217Y-72915864D01*
X83907217Y-72915864D02*
X84002455Y-72963483D01*
X84002455Y-72963483D02*
X84050074Y-73011102D01*
X84050074Y-73011102D02*
X84097693Y-73106340D01*
X84097693Y-73106340D02*
X84097693Y-73392054D01*
X84097693Y-73392054D02*
X84050074Y-73487292D01*
X84050074Y-73487292D02*
X84002455Y-73534912D01*
X84002455Y-73534912D02*
X83907217Y-73582531D01*
X83907217Y-73582531D02*
X83716741Y-73582531D01*
X83716741Y-73582531D02*
X83621503Y-73534912D01*
X84669122Y-73582531D02*
X84573884Y-73534912D01*
X84573884Y-73534912D02*
X84526265Y-73487292D01*
X84526265Y-73487292D02*
X84478646Y-73392054D01*
X84478646Y-73392054D02*
X84478646Y-73106340D01*
X84478646Y-73106340D02*
X84526265Y-73011102D01*
X84526265Y-73011102D02*
X84573884Y-72963483D01*
X84573884Y-72963483D02*
X84669122Y-72915864D01*
X84669122Y-72915864D02*
X84811979Y-72915864D01*
X84811979Y-72915864D02*
X84907217Y-72963483D01*
X84907217Y-72963483D02*
X84954836Y-73011102D01*
X84954836Y-73011102D02*
X85002455Y-73106340D01*
X85002455Y-73106340D02*
X85002455Y-73392054D01*
X85002455Y-73392054D02*
X84954836Y-73487292D01*
X84954836Y-73487292D02*
X84907217Y-73534912D01*
X84907217Y-73534912D02*
X84811979Y-73582531D01*
X84811979Y-73582531D02*
X84669122Y-73582531D01*
X85335789Y-73582531D02*
X85859598Y-72915864D01*
X85335789Y-72915864D02*
X85859598Y-73582531D01*
X86954837Y-73296816D02*
X87431027Y-73296816D01*
X86859599Y-73582531D02*
X87192932Y-72582531D01*
X87192932Y-72582531D02*
X87526265Y-73582531D01*
X88002456Y-73582531D02*
X87907218Y-73534912D01*
X87907218Y-73534912D02*
X87859599Y-73439673D01*
X87859599Y-73439673D02*
X87859599Y-72582531D01*
X88764361Y-73534912D02*
X88669123Y-73582531D01*
X88669123Y-73582531D02*
X88478647Y-73582531D01*
X88478647Y-73582531D02*
X88383409Y-73534912D01*
X88383409Y-73534912D02*
X88335790Y-73439673D01*
X88335790Y-73439673D02*
X88335790Y-73058721D01*
X88335790Y-73058721D02*
X88383409Y-72963483D01*
X88383409Y-72963483D02*
X88478647Y-72915864D01*
X88478647Y-72915864D02*
X88669123Y-72915864D01*
X88669123Y-72915864D02*
X88764361Y-72963483D01*
X88764361Y-72963483D02*
X88811980Y-73058721D01*
X88811980Y-73058721D02*
X88811980Y-73153959D01*
X88811980Y-73153959D02*
X88335790Y-73249197D01*
X89240552Y-73582531D02*
X89240552Y-72915864D01*
X89240552Y-73106340D02*
X89288171Y-73011102D01*
X89288171Y-73011102D02*
X89335790Y-72963483D01*
X89335790Y-72963483D02*
X89431028Y-72915864D01*
X89431028Y-72915864D02*
X89526266Y-72915864D01*
X89716743Y-72915864D02*
X90097695Y-72915864D01*
X89859600Y-72582531D02*
X89859600Y-73439673D01*
X89859600Y-73439673D02*
X89907219Y-73534912D01*
X89907219Y-73534912D02*
X90002457Y-73582531D01*
X90002457Y-73582531D02*
X90097695Y-73582531D01*
X91050077Y-72582531D02*
X91383410Y-73582531D01*
X91383410Y-73582531D02*
X91716743Y-72582531D01*
X92002458Y-72677769D02*
X92050077Y-72630150D01*
X92050077Y-72630150D02*
X92145315Y-72582531D01*
X92145315Y-72582531D02*
X92383410Y-72582531D01*
X92383410Y-72582531D02*
X92478648Y-72630150D01*
X92478648Y-72630150D02*
X92526267Y-72677769D01*
X92526267Y-72677769D02*
X92573886Y-72773007D01*
X92573886Y-72773007D02*
X92573886Y-72868245D01*
X92573886Y-72868245D02*
X92526267Y-73011102D01*
X92526267Y-73011102D02*
X91954839Y-73582531D01*
X91954839Y-73582531D02*
X92573886Y-73582531D01*
X93002458Y-73487292D02*
X93050077Y-73534912D01*
X93050077Y-73534912D02*
X93002458Y-73582531D01*
X93002458Y-73582531D02*
X92954839Y-73534912D01*
X92954839Y-73534912D02*
X93002458Y-73487292D01*
X93002458Y-73487292D02*
X93002458Y-73582531D01*
X93383410Y-72582531D02*
X94002457Y-72582531D01*
X94002457Y-72582531D02*
X93669124Y-72963483D01*
X93669124Y-72963483D02*
X93811981Y-72963483D01*
X93811981Y-72963483D02*
X93907219Y-73011102D01*
X93907219Y-73011102D02*
X93954838Y-73058721D01*
X93954838Y-73058721D02*
X94002457Y-73153959D01*
X94002457Y-73153959D02*
X94002457Y-73392054D01*
X94002457Y-73392054D02*
X93954838Y-73487292D01*
X93954838Y-73487292D02*
X93907219Y-73534912D01*
X93907219Y-73534912D02*
X93811981Y-73582531D01*
X93811981Y-73582531D02*
X93526267Y-73582531D01*
X93526267Y-73582531D02*
X93431029Y-73534912D01*
X93431029Y-73534912D02*
X93383410Y-73487292D01*
X94859600Y-73582531D02*
X94859600Y-72582531D01*
X94859600Y-73534912D02*
X94764362Y-73582531D01*
X94764362Y-73582531D02*
X94573886Y-73582531D01*
X94573886Y-73582531D02*
X94478648Y-73534912D01*
X94478648Y-73534912D02*
X94431029Y-73487292D01*
X94431029Y-73487292D02*
X94383410Y-73392054D01*
X94383410Y-73392054D02*
X94383410Y-73106340D01*
X94383410Y-73106340D02*
X94431029Y-73011102D01*
X94431029Y-73011102D02*
X94478648Y-72963483D01*
X94478648Y-72963483D02*
X94573886Y-72915864D01*
X94573886Y-72915864D02*
X94764362Y-72915864D01*
X94764362Y-72915864D02*
X94859600Y-72963483D01*
X80526265Y-75144856D02*
X80669122Y-75192475D01*
X80669122Y-75192475D02*
X80907217Y-75192475D01*
X80907217Y-75192475D02*
X81002455Y-75144856D01*
X81002455Y-75144856D02*
X81050074Y-75097236D01*
X81050074Y-75097236D02*
X81097693Y-75001998D01*
X81097693Y-75001998D02*
X81097693Y-74906760D01*
X81097693Y-74906760D02*
X81050074Y-74811522D01*
X81050074Y-74811522D02*
X81002455Y-74763903D01*
X81002455Y-74763903D02*
X80907217Y-74716284D01*
X80907217Y-74716284D02*
X80716741Y-74668665D01*
X80716741Y-74668665D02*
X80621503Y-74621046D01*
X80621503Y-74621046D02*
X80573884Y-74573427D01*
X80573884Y-74573427D02*
X80526265Y-74478189D01*
X80526265Y-74478189D02*
X80526265Y-74382951D01*
X80526265Y-74382951D02*
X80573884Y-74287713D01*
X80573884Y-74287713D02*
X80621503Y-74240094D01*
X80621503Y-74240094D02*
X80716741Y-74192475D01*
X80716741Y-74192475D02*
X80954836Y-74192475D01*
X80954836Y-74192475D02*
X81097693Y-74240094D01*
X81907217Y-75144856D02*
X81811979Y-75192475D01*
X81811979Y-75192475D02*
X81621503Y-75192475D01*
X81621503Y-75192475D02*
X81526265Y-75144856D01*
X81526265Y-75144856D02*
X81478646Y-75049617D01*
X81478646Y-75049617D02*
X81478646Y-74668665D01*
X81478646Y-74668665D02*
X81526265Y-74573427D01*
X81526265Y-74573427D02*
X81621503Y-74525808D01*
X81621503Y-74525808D02*
X81811979Y-74525808D01*
X81811979Y-74525808D02*
X81907217Y-74573427D01*
X81907217Y-74573427D02*
X81954836Y-74668665D01*
X81954836Y-74668665D02*
X81954836Y-74763903D01*
X81954836Y-74763903D02*
X81478646Y-74859141D01*
X82383408Y-74525808D02*
X82383408Y-75192475D01*
X82383408Y-74621046D02*
X82431027Y-74573427D01*
X82431027Y-74573427D02*
X82526265Y-74525808D01*
X82526265Y-74525808D02*
X82669122Y-74525808D01*
X82669122Y-74525808D02*
X82764360Y-74573427D01*
X82764360Y-74573427D02*
X82811979Y-74668665D01*
X82811979Y-74668665D02*
X82811979Y-75192475D01*
X83716741Y-75192475D02*
X83716741Y-74192475D01*
X83716741Y-75144856D02*
X83621503Y-75192475D01*
X83621503Y-75192475D02*
X83431027Y-75192475D01*
X83431027Y-75192475D02*
X83335789Y-75144856D01*
X83335789Y-75144856D02*
X83288170Y-75097236D01*
X83288170Y-75097236D02*
X83240551Y-75001998D01*
X83240551Y-75001998D02*
X83240551Y-74716284D01*
X83240551Y-74716284D02*
X83288170Y-74621046D01*
X83288170Y-74621046D02*
X83335789Y-74573427D01*
X83335789Y-74573427D02*
X83431027Y-74525808D01*
X83431027Y-74525808D02*
X83621503Y-74525808D01*
X83621503Y-74525808D02*
X83716741Y-74573427D01*
X84573884Y-75144856D02*
X84478646Y-75192475D01*
X84478646Y-75192475D02*
X84288170Y-75192475D01*
X84288170Y-75192475D02*
X84192932Y-75144856D01*
X84192932Y-75144856D02*
X84145313Y-75049617D01*
X84145313Y-75049617D02*
X84145313Y-74668665D01*
X84145313Y-74668665D02*
X84192932Y-74573427D01*
X84192932Y-74573427D02*
X84288170Y-74525808D01*
X84288170Y-74525808D02*
X84478646Y-74525808D01*
X84478646Y-74525808D02*
X84573884Y-74573427D01*
X84573884Y-74573427D02*
X84621503Y-74668665D01*
X84621503Y-74668665D02*
X84621503Y-74763903D01*
X84621503Y-74763903D02*
X84145313Y-74859141D01*
X85050075Y-75192475D02*
X85050075Y-74525808D01*
X85050075Y-74716284D02*
X85097694Y-74621046D01*
X85097694Y-74621046D02*
X85145313Y-74573427D01*
X85145313Y-74573427D02*
X85240551Y-74525808D01*
X85240551Y-74525808D02*
X85335789Y-74525808D01*
X87240552Y-75192475D02*
X87192933Y-75192475D01*
X87192933Y-75192475D02*
X87097694Y-75144856D01*
X87097694Y-75144856D02*
X86954837Y-75001998D01*
X86954837Y-75001998D02*
X86716742Y-74716284D01*
X86716742Y-74716284D02*
X86621504Y-74573427D01*
X86621504Y-74573427D02*
X86573885Y-74430570D01*
X86573885Y-74430570D02*
X86573885Y-74335332D01*
X86573885Y-74335332D02*
X86621504Y-74240094D01*
X86621504Y-74240094D02*
X86716742Y-74192475D01*
X86716742Y-74192475D02*
X86764361Y-74192475D01*
X86764361Y-74192475D02*
X86859599Y-74240094D01*
X86859599Y-74240094D02*
X86907218Y-74335332D01*
X86907218Y-74335332D02*
X86907218Y-74382951D01*
X86907218Y-74382951D02*
X86859599Y-74478189D01*
X86859599Y-74478189D02*
X86811980Y-74525808D01*
X86811980Y-74525808D02*
X86526266Y-74716284D01*
X86526266Y-74716284D02*
X86478647Y-74763903D01*
X86478647Y-74763903D02*
X86431028Y-74859141D01*
X86431028Y-74859141D02*
X86431028Y-75001998D01*
X86431028Y-75001998D02*
X86478647Y-75097236D01*
X86478647Y-75097236D02*
X86526266Y-75144856D01*
X86526266Y-75144856D02*
X86621504Y-75192475D01*
X86621504Y-75192475D02*
X86764361Y-75192475D01*
X86764361Y-75192475D02*
X86859599Y-75144856D01*
X86859599Y-75144856D02*
X86907218Y-75097236D01*
X86907218Y-75097236D02*
X87050075Y-74906760D01*
X87050075Y-74906760D02*
X87097694Y-74763903D01*
X87097694Y-74763903D02*
X87097694Y-74668665D01*
X89002456Y-75192475D02*
X88669123Y-74716284D01*
X88431028Y-75192475D02*
X88431028Y-74192475D01*
X88431028Y-74192475D02*
X88811980Y-74192475D01*
X88811980Y-74192475D02*
X88907218Y-74240094D01*
X88907218Y-74240094D02*
X88954837Y-74287713D01*
X88954837Y-74287713D02*
X89002456Y-74382951D01*
X89002456Y-74382951D02*
X89002456Y-74525808D01*
X89002456Y-74525808D02*
X88954837Y-74621046D01*
X88954837Y-74621046D02*
X88907218Y-74668665D01*
X88907218Y-74668665D02*
X88811980Y-74716284D01*
X88811980Y-74716284D02*
X88431028Y-74716284D01*
X89811980Y-75144856D02*
X89716742Y-75192475D01*
X89716742Y-75192475D02*
X89526266Y-75192475D01*
X89526266Y-75192475D02*
X89431028Y-75144856D01*
X89431028Y-75144856D02*
X89383409Y-75049617D01*
X89383409Y-75049617D02*
X89383409Y-74668665D01*
X89383409Y-74668665D02*
X89431028Y-74573427D01*
X89431028Y-74573427D02*
X89526266Y-74525808D01*
X89526266Y-74525808D02*
X89716742Y-74525808D01*
X89716742Y-74525808D02*
X89811980Y-74573427D01*
X89811980Y-74573427D02*
X89859599Y-74668665D01*
X89859599Y-74668665D02*
X89859599Y-74763903D01*
X89859599Y-74763903D02*
X89383409Y-74859141D01*
X90716742Y-75144856D02*
X90621504Y-75192475D01*
X90621504Y-75192475D02*
X90431028Y-75192475D01*
X90431028Y-75192475D02*
X90335790Y-75144856D01*
X90335790Y-75144856D02*
X90288171Y-75097236D01*
X90288171Y-75097236D02*
X90240552Y-75001998D01*
X90240552Y-75001998D02*
X90240552Y-74716284D01*
X90240552Y-74716284D02*
X90288171Y-74621046D01*
X90288171Y-74621046D02*
X90335790Y-74573427D01*
X90335790Y-74573427D02*
X90431028Y-74525808D01*
X90431028Y-74525808D02*
X90621504Y-74525808D01*
X90621504Y-74525808D02*
X90716742Y-74573427D01*
X91526266Y-75144856D02*
X91431028Y-75192475D01*
X91431028Y-75192475D02*
X91240552Y-75192475D01*
X91240552Y-75192475D02*
X91145314Y-75144856D01*
X91145314Y-75144856D02*
X91097695Y-75049617D01*
X91097695Y-75049617D02*
X91097695Y-74668665D01*
X91097695Y-74668665D02*
X91145314Y-74573427D01*
X91145314Y-74573427D02*
X91240552Y-74525808D01*
X91240552Y-74525808D02*
X91431028Y-74525808D01*
X91431028Y-74525808D02*
X91526266Y-74573427D01*
X91526266Y-74573427D02*
X91573885Y-74668665D01*
X91573885Y-74668665D02*
X91573885Y-74763903D01*
X91573885Y-74763903D02*
X91097695Y-74859141D01*
X92002457Y-75192475D02*
X92002457Y-74525808D01*
X92002457Y-74192475D02*
X91954838Y-74240094D01*
X91954838Y-74240094D02*
X92002457Y-74287713D01*
X92002457Y-74287713D02*
X92050076Y-74240094D01*
X92050076Y-74240094D02*
X92002457Y-74192475D01*
X92002457Y-74192475D02*
X92002457Y-74287713D01*
X92383409Y-74525808D02*
X92621504Y-75192475D01*
X92621504Y-75192475D02*
X92859599Y-74525808D01*
X93621504Y-75144856D02*
X93526266Y-75192475D01*
X93526266Y-75192475D02*
X93335790Y-75192475D01*
X93335790Y-75192475D02*
X93240552Y-75144856D01*
X93240552Y-75144856D02*
X93192933Y-75049617D01*
X93192933Y-75049617D02*
X93192933Y-74668665D01*
X93192933Y-74668665D02*
X93240552Y-74573427D01*
X93240552Y-74573427D02*
X93335790Y-74525808D01*
X93335790Y-74525808D02*
X93526266Y-74525808D01*
X93526266Y-74525808D02*
X93621504Y-74573427D01*
X93621504Y-74573427D02*
X93669123Y-74668665D01*
X93669123Y-74668665D02*
X93669123Y-74763903D01*
X93669123Y-74763903D02*
X93192933Y-74859141D01*
X94097695Y-75192475D02*
X94097695Y-74525808D01*
X94097695Y-74716284D02*
X94145314Y-74621046D01*
X94145314Y-74621046D02*
X94192933Y-74573427D01*
X94192933Y-74573427D02*
X94288171Y-74525808D01*
X94288171Y-74525808D02*
X94383409Y-74525808D01*
X80573884Y-76802419D02*
X80573884Y-75802419D01*
X80573884Y-75802419D02*
X80954836Y-75802419D01*
X80954836Y-75802419D02*
X81050074Y-75850038D01*
X81050074Y-75850038D02*
X81097693Y-75897657D01*
X81097693Y-75897657D02*
X81145312Y-75992895D01*
X81145312Y-75992895D02*
X81145312Y-76135752D01*
X81145312Y-76135752D02*
X81097693Y-76230990D01*
X81097693Y-76230990D02*
X81050074Y-76278609D01*
X81050074Y-76278609D02*
X80954836Y-76326228D01*
X80954836Y-76326228D02*
X80573884Y-76326228D01*
X82002455Y-76802419D02*
X82002455Y-76278609D01*
X82002455Y-76278609D02*
X81954836Y-76183371D01*
X81954836Y-76183371D02*
X81859598Y-76135752D01*
X81859598Y-76135752D02*
X81669122Y-76135752D01*
X81669122Y-76135752D02*
X81573884Y-76183371D01*
X82002455Y-76754800D02*
X81907217Y-76802419D01*
X81907217Y-76802419D02*
X81669122Y-76802419D01*
X81669122Y-76802419D02*
X81573884Y-76754800D01*
X81573884Y-76754800D02*
X81526265Y-76659561D01*
X81526265Y-76659561D02*
X81526265Y-76564323D01*
X81526265Y-76564323D02*
X81573884Y-76469085D01*
X81573884Y-76469085D02*
X81669122Y-76421466D01*
X81669122Y-76421466D02*
X81907217Y-76421466D01*
X81907217Y-76421466D02*
X82002455Y-76373847D01*
X82907217Y-76135752D02*
X82907217Y-76802419D01*
X82478646Y-76135752D02*
X82478646Y-76659561D01*
X82478646Y-76659561D02*
X82526265Y-76754800D01*
X82526265Y-76754800D02*
X82621503Y-76802419D01*
X82621503Y-76802419D02*
X82764360Y-76802419D01*
X82764360Y-76802419D02*
X82859598Y-76754800D01*
X82859598Y-76754800D02*
X82907217Y-76707180D01*
X83526265Y-76802419D02*
X83431027Y-76754800D01*
X83431027Y-76754800D02*
X83383408Y-76659561D01*
X83383408Y-76659561D02*
X83383408Y-75802419D01*
X83811980Y-76135752D02*
X84050075Y-76802419D01*
X84050075Y-76802419D02*
X84288170Y-76135752D01*
X85383409Y-75897657D02*
X85431028Y-75850038D01*
X85431028Y-75850038D02*
X85526266Y-75802419D01*
X85526266Y-75802419D02*
X85764361Y-75802419D01*
X85764361Y-75802419D02*
X85859599Y-75850038D01*
X85859599Y-75850038D02*
X85907218Y-75897657D01*
X85907218Y-75897657D02*
X85954837Y-75992895D01*
X85954837Y-75992895D02*
X85954837Y-76088133D01*
X85954837Y-76088133D02*
X85907218Y-76230990D01*
X85907218Y-76230990D02*
X85335790Y-76802419D01*
X85335790Y-76802419D02*
X85954837Y-76802419D01*
X86573885Y-75802419D02*
X86669123Y-75802419D01*
X86669123Y-75802419D02*
X86764361Y-75850038D01*
X86764361Y-75850038D02*
X86811980Y-75897657D01*
X86811980Y-75897657D02*
X86859599Y-75992895D01*
X86859599Y-75992895D02*
X86907218Y-76183371D01*
X86907218Y-76183371D02*
X86907218Y-76421466D01*
X86907218Y-76421466D02*
X86859599Y-76611942D01*
X86859599Y-76611942D02*
X86811980Y-76707180D01*
X86811980Y-76707180D02*
X86764361Y-76754800D01*
X86764361Y-76754800D02*
X86669123Y-76802419D01*
X86669123Y-76802419D02*
X86573885Y-76802419D01*
X86573885Y-76802419D02*
X86478647Y-76754800D01*
X86478647Y-76754800D02*
X86431028Y-76707180D01*
X86431028Y-76707180D02*
X86383409Y-76611942D01*
X86383409Y-76611942D02*
X86335790Y-76421466D01*
X86335790Y-76421466D02*
X86335790Y-76183371D01*
X86335790Y-76183371D02*
X86383409Y-75992895D01*
X86383409Y-75992895D02*
X86431028Y-75897657D01*
X86431028Y-75897657D02*
X86478647Y-75850038D01*
X86478647Y-75850038D02*
X86573885Y-75802419D01*
X87288171Y-75897657D02*
X87335790Y-75850038D01*
X87335790Y-75850038D02*
X87431028Y-75802419D01*
X87431028Y-75802419D02*
X87669123Y-75802419D01*
X87669123Y-75802419D02*
X87764361Y-75850038D01*
X87764361Y-75850038D02*
X87811980Y-75897657D01*
X87811980Y-75897657D02*
X87859599Y-75992895D01*
X87859599Y-75992895D02*
X87859599Y-76088133D01*
X87859599Y-76088133D02*
X87811980Y-76230990D01*
X87811980Y-76230990D02*
X87240552Y-76802419D01*
X87240552Y-76802419D02*
X87859599Y-76802419D01*
X88764361Y-75802419D02*
X88288171Y-75802419D01*
X88288171Y-75802419D02*
X88240552Y-76278609D01*
X88240552Y-76278609D02*
X88288171Y-76230990D01*
X88288171Y-76230990D02*
X88383409Y-76183371D01*
X88383409Y-76183371D02*
X88621504Y-76183371D01*
X88621504Y-76183371D02*
X88716742Y-76230990D01*
X88716742Y-76230990D02*
X88764361Y-76278609D01*
X88764361Y-76278609D02*
X88811980Y-76373847D01*
X88811980Y-76373847D02*
X88811980Y-76611942D01*
X88811980Y-76611942D02*
X88764361Y-76707180D01*
X88764361Y-76707180D02*
X88716742Y-76754800D01*
X88716742Y-76754800D02*
X88621504Y-76802419D01*
X88621504Y-76802419D02*
X88383409Y-76802419D01*
X88383409Y-76802419D02*
X88288171Y-76754800D01*
X88288171Y-76754800D02*
X88240552Y-76707180D01*
D12*
X150834510Y-72039400D02*
X151977368Y-72039400D01*
X151405939Y-72610828D02*
X151405939Y-71467971D01*
D11*
X83636816Y-107307219D02*
X84208244Y-107307219D01*
X83922530Y-108307219D02*
X83922530Y-107307219D01*
X84541578Y-108307219D02*
X84541578Y-107640552D01*
X84541578Y-107307219D02*
X84493959Y-107354838D01*
X84493959Y-107354838D02*
X84541578Y-107402457D01*
X84541578Y-107402457D02*
X84589197Y-107354838D01*
X84589197Y-107354838D02*
X84541578Y-107307219D01*
X84541578Y-107307219D02*
X84541578Y-107402457D01*
X85160625Y-108307219D02*
X85065387Y-108259600D01*
X85065387Y-108259600D02*
X85017768Y-108164361D01*
X85017768Y-108164361D02*
X85017768Y-107307219D01*
X85398721Y-107640552D02*
X85779673Y-107640552D01*
X85541578Y-107307219D02*
X85541578Y-108164361D01*
X85541578Y-108164361D02*
X85589197Y-108259600D01*
X85589197Y-108259600D02*
X85684435Y-108307219D01*
X85684435Y-108307219D02*
X85779673Y-108307219D01*
D10*
X121358646Y-85082419D02*
X121977693Y-85082419D01*
X121977693Y-85082419D02*
X121644360Y-85463371D01*
X121644360Y-85463371D02*
X121787217Y-85463371D01*
X121787217Y-85463371D02*
X121882455Y-85510990D01*
X121882455Y-85510990D02*
X121930074Y-85558609D01*
X121930074Y-85558609D02*
X121977693Y-85653847D01*
X121977693Y-85653847D02*
X121977693Y-85891942D01*
X121977693Y-85891942D02*
X121930074Y-85987180D01*
X121930074Y-85987180D02*
X121882455Y-86034800D01*
X121882455Y-86034800D02*
X121787217Y-86082419D01*
X121787217Y-86082419D02*
X121501503Y-86082419D01*
X121501503Y-86082419D02*
X121406265Y-86034800D01*
X121406265Y-86034800D02*
X121358646Y-85987180D01*
X122263408Y-85082419D02*
X122596741Y-86082419D01*
X122596741Y-86082419D02*
X122930074Y-85082419D01*
X123787217Y-86082419D02*
X123215789Y-86082419D01*
X123501503Y-86082419D02*
X123501503Y-85082419D01*
X123501503Y-85082419D02*
X123406265Y-85225276D01*
X123406265Y-85225276D02*
X123311027Y-85320514D01*
X123311027Y-85320514D02*
X123215789Y-85368133D01*
X125406265Y-86082419D02*
X125406265Y-85558609D01*
X125406265Y-85558609D02*
X125358646Y-85463371D01*
X125358646Y-85463371D02*
X125263408Y-85415752D01*
X125263408Y-85415752D02*
X125072932Y-85415752D01*
X125072932Y-85415752D02*
X124977694Y-85463371D01*
X125406265Y-86034800D02*
X125311027Y-86082419D01*
X125311027Y-86082419D02*
X125072932Y-86082419D01*
X125072932Y-86082419D02*
X124977694Y-86034800D01*
X124977694Y-86034800D02*
X124930075Y-85939561D01*
X124930075Y-85939561D02*
X124930075Y-85844323D01*
X124930075Y-85844323D02*
X124977694Y-85749085D01*
X124977694Y-85749085D02*
X125072932Y-85701466D01*
X125072932Y-85701466D02*
X125311027Y-85701466D01*
X125311027Y-85701466D02*
X125406265Y-85653847D01*
X126311027Y-86082419D02*
X126311027Y-85082419D01*
X126311027Y-86034800D02*
X126215789Y-86082419D01*
X126215789Y-86082419D02*
X126025313Y-86082419D01*
X126025313Y-86082419D02*
X125930075Y-86034800D01*
X125930075Y-86034800D02*
X125882456Y-85987180D01*
X125882456Y-85987180D02*
X125834837Y-85891942D01*
X125834837Y-85891942D02*
X125834837Y-85606228D01*
X125834837Y-85606228D02*
X125882456Y-85510990D01*
X125882456Y-85510990D02*
X125930075Y-85463371D01*
X125930075Y-85463371D02*
X126025313Y-85415752D01*
X126025313Y-85415752D02*
X126215789Y-85415752D01*
X126215789Y-85415752D02*
X126311027Y-85463371D01*
X126787218Y-85415752D02*
X126787218Y-86272895D01*
X126787218Y-86272895D02*
X126739599Y-86368133D01*
X126739599Y-86368133D02*
X126644361Y-86415752D01*
X126644361Y-86415752D02*
X126596742Y-86415752D01*
X126787218Y-85082419D02*
X126739599Y-85130038D01*
X126739599Y-85130038D02*
X126787218Y-85177657D01*
X126787218Y-85177657D02*
X126834837Y-85130038D01*
X126834837Y-85130038D02*
X126787218Y-85082419D01*
X126787218Y-85082419D02*
X126787218Y-85177657D01*
D11*
X118007219Y-94125564D02*
X118007219Y-93506517D01*
X118007219Y-93506517D02*
X118388171Y-93839850D01*
X118388171Y-93839850D02*
X118388171Y-93696993D01*
X118388171Y-93696993D02*
X118435790Y-93601755D01*
X118435790Y-93601755D02*
X118483409Y-93554136D01*
X118483409Y-93554136D02*
X118578647Y-93506517D01*
X118578647Y-93506517D02*
X118816742Y-93506517D01*
X118816742Y-93506517D02*
X118911980Y-93554136D01*
X118911980Y-93554136D02*
X118959600Y-93601755D01*
X118959600Y-93601755D02*
X119007219Y-93696993D01*
X119007219Y-93696993D02*
X119007219Y-93982707D01*
X119007219Y-93982707D02*
X118959600Y-94077945D01*
X118959600Y-94077945D02*
X118911980Y-94125564D01*
X118007219Y-93220802D02*
X119007219Y-92887469D01*
X119007219Y-92887469D02*
X118007219Y-92554136D01*
X119007219Y-91696993D02*
X119007219Y-92268421D01*
X119007219Y-91982707D02*
X118007219Y-91982707D01*
X118007219Y-91982707D02*
X118150076Y-92077945D01*
X118150076Y-92077945D02*
X118245314Y-92173183D01*
X118245314Y-92173183D02*
X118292933Y-92268421D01*
X118721504Y-90554135D02*
X118721504Y-90077945D01*
X119007219Y-90649373D02*
X118007219Y-90316040D01*
X118007219Y-90316040D02*
X119007219Y-89982707D01*
X119007219Y-89220802D02*
X118007219Y-89220802D01*
X118959600Y-89220802D02*
X119007219Y-89316040D01*
X119007219Y-89316040D02*
X119007219Y-89506516D01*
X119007219Y-89506516D02*
X118959600Y-89601754D01*
X118959600Y-89601754D02*
X118911980Y-89649373D01*
X118911980Y-89649373D02*
X118816742Y-89696992D01*
X118816742Y-89696992D02*
X118531028Y-89696992D01*
X118531028Y-89696992D02*
X118435790Y-89649373D01*
X118435790Y-89649373D02*
X118388171Y-89601754D01*
X118388171Y-89601754D02*
X118340552Y-89506516D01*
X118340552Y-89506516D02*
X118340552Y-89316040D01*
X118340552Y-89316040D02*
X118388171Y-89220802D01*
X118340552Y-88744611D02*
X119197695Y-88744611D01*
X119197695Y-88744611D02*
X119292933Y-88792230D01*
X119292933Y-88792230D02*
X119340552Y-88887468D01*
X119340552Y-88887468D02*
X119340552Y-88935087D01*
X118007219Y-88744611D02*
X118054838Y-88792230D01*
X118054838Y-88792230D02*
X118102457Y-88744611D01*
X118102457Y-88744611D02*
X118054838Y-88696992D01*
X118054838Y-88696992D02*
X118007219Y-88744611D01*
X118007219Y-88744611D02*
X118102457Y-88744611D01*
D13*
X127001905Y-81786819D02*
X127620952Y-81786819D01*
X127620952Y-81786819D02*
X127287619Y-82167771D01*
X127287619Y-82167771D02*
X127430476Y-82167771D01*
X127430476Y-82167771D02*
X127525714Y-82215390D01*
X127525714Y-82215390D02*
X127573333Y-82263009D01*
X127573333Y-82263009D02*
X127620952Y-82358247D01*
X127620952Y-82358247D02*
X127620952Y-82596342D01*
X127620952Y-82596342D02*
X127573333Y-82691580D01*
X127573333Y-82691580D02*
X127525714Y-82739200D01*
X127525714Y-82739200D02*
X127430476Y-82786819D01*
X127430476Y-82786819D02*
X127144762Y-82786819D01*
X127144762Y-82786819D02*
X127049524Y-82739200D01*
X127049524Y-82739200D02*
X127001905Y-82691580D01*
X127906667Y-81786819D02*
X128240000Y-82786819D01*
X128240000Y-82786819D02*
X128573333Y-81786819D01*
X129430476Y-82786819D02*
X128859048Y-82786819D01*
X129144762Y-82786819D02*
X129144762Y-81786819D01*
X129144762Y-81786819D02*
X129049524Y-81929676D01*
X129049524Y-81929676D02*
X128954286Y-82024914D01*
X128954286Y-82024914D02*
X128859048Y-82072533D01*
X114203333Y-82129580D02*
X114155714Y-82177200D01*
X114155714Y-82177200D02*
X114012857Y-82224819D01*
X114012857Y-82224819D02*
X113917619Y-82224819D01*
X113917619Y-82224819D02*
X113774762Y-82177200D01*
X113774762Y-82177200D02*
X113679524Y-82081961D01*
X113679524Y-82081961D02*
X113631905Y-81986723D01*
X113631905Y-81986723D02*
X113584286Y-81796247D01*
X113584286Y-81796247D02*
X113584286Y-81653390D01*
X113584286Y-81653390D02*
X113631905Y-81462914D01*
X113631905Y-81462914D02*
X113679524Y-81367676D01*
X113679524Y-81367676D02*
X113774762Y-81272438D01*
X113774762Y-81272438D02*
X113917619Y-81224819D01*
X113917619Y-81224819D02*
X114012857Y-81224819D01*
X114012857Y-81224819D02*
X114155714Y-81272438D01*
X114155714Y-81272438D02*
X114203333Y-81320057D01*
X114536667Y-81224819D02*
X115203333Y-81224819D01*
X115203333Y-81224819D02*
X114774762Y-82224819D01*
X93313333Y-104904819D02*
X92980000Y-104428628D01*
X92741905Y-104904819D02*
X92741905Y-103904819D01*
X92741905Y-103904819D02*
X93122857Y-103904819D01*
X93122857Y-103904819D02*
X93218095Y-103952438D01*
X93218095Y-103952438D02*
X93265714Y-104000057D01*
X93265714Y-104000057D02*
X93313333Y-104095295D01*
X93313333Y-104095295D02*
X93313333Y-104238152D01*
X93313333Y-104238152D02*
X93265714Y-104333390D01*
X93265714Y-104333390D02*
X93218095Y-104381009D01*
X93218095Y-104381009D02*
X93122857Y-104428628D01*
X93122857Y-104428628D02*
X92741905Y-104428628D01*
X93789524Y-104904819D02*
X93980000Y-104904819D01*
X93980000Y-104904819D02*
X94075238Y-104857200D01*
X94075238Y-104857200D02*
X94122857Y-104809580D01*
X94122857Y-104809580D02*
X94218095Y-104666723D01*
X94218095Y-104666723D02*
X94265714Y-104476247D01*
X94265714Y-104476247D02*
X94265714Y-104095295D01*
X94265714Y-104095295D02*
X94218095Y-104000057D01*
X94218095Y-104000057D02*
X94170476Y-103952438D01*
X94170476Y-103952438D02*
X94075238Y-103904819D01*
X94075238Y-103904819D02*
X93884762Y-103904819D01*
X93884762Y-103904819D02*
X93789524Y-103952438D01*
X93789524Y-103952438D02*
X93741905Y-104000057D01*
X93741905Y-104000057D02*
X93694286Y-104095295D01*
X93694286Y-104095295D02*
X93694286Y-104333390D01*
X93694286Y-104333390D02*
X93741905Y-104428628D01*
X93741905Y-104428628D02*
X93789524Y-104476247D01*
X93789524Y-104476247D02*
X93884762Y-104523866D01*
X93884762Y-104523866D02*
X94075238Y-104523866D01*
X94075238Y-104523866D02*
X94170476Y-104476247D01*
X94170476Y-104476247D02*
X94218095Y-104428628D01*
X94218095Y-104428628D02*
X94265714Y-104333390D01*
X81514819Y-85106666D02*
X81038628Y-85439999D01*
X81514819Y-85678094D02*
X80514819Y-85678094D01*
X80514819Y-85678094D02*
X80514819Y-85297142D01*
X80514819Y-85297142D02*
X80562438Y-85201904D01*
X80562438Y-85201904D02*
X80610057Y-85154285D01*
X80610057Y-85154285D02*
X80705295Y-85106666D01*
X80705295Y-85106666D02*
X80848152Y-85106666D01*
X80848152Y-85106666D02*
X80943390Y-85154285D01*
X80943390Y-85154285D02*
X80991009Y-85201904D01*
X80991009Y-85201904D02*
X81038628Y-85297142D01*
X81038628Y-85297142D02*
X81038628Y-85678094D01*
X81514819Y-84154285D02*
X81514819Y-84725713D01*
X81514819Y-84439999D02*
X80514819Y-84439999D01*
X80514819Y-84439999D02*
X80657676Y-84535237D01*
X80657676Y-84535237D02*
X80752914Y-84630475D01*
X80752914Y-84630475D02*
X80800533Y-84725713D01*
X128530475Y-119134819D02*
X128197142Y-118658628D01*
X127959047Y-119134819D02*
X127959047Y-118134819D01*
X127959047Y-118134819D02*
X128339999Y-118134819D01*
X128339999Y-118134819D02*
X128435237Y-118182438D01*
X128435237Y-118182438D02*
X128482856Y-118230057D01*
X128482856Y-118230057D02*
X128530475Y-118325295D01*
X128530475Y-118325295D02*
X128530475Y-118468152D01*
X128530475Y-118468152D02*
X128482856Y-118563390D01*
X128482856Y-118563390D02*
X128435237Y-118611009D01*
X128435237Y-118611009D02*
X128339999Y-118658628D01*
X128339999Y-118658628D02*
X127959047Y-118658628D01*
X129339999Y-119087200D02*
X129244761Y-119134819D01*
X129244761Y-119134819D02*
X129054285Y-119134819D01*
X129054285Y-119134819D02*
X128959047Y-119087200D01*
X128959047Y-119087200D02*
X128911428Y-118991961D01*
X128911428Y-118991961D02*
X128911428Y-118611009D01*
X128911428Y-118611009D02*
X128959047Y-118515771D01*
X128959047Y-118515771D02*
X129054285Y-118468152D01*
X129054285Y-118468152D02*
X129244761Y-118468152D01*
X129244761Y-118468152D02*
X129339999Y-118515771D01*
X129339999Y-118515771D02*
X129387618Y-118611009D01*
X129387618Y-118611009D02*
X129387618Y-118706247D01*
X129387618Y-118706247D02*
X128911428Y-118801485D01*
X130244761Y-119134819D02*
X130244761Y-118134819D01*
X130244761Y-119087200D02*
X130149523Y-119134819D01*
X130149523Y-119134819D02*
X129959047Y-119134819D01*
X129959047Y-119134819D02*
X129863809Y-119087200D01*
X129863809Y-119087200D02*
X129816190Y-119039580D01*
X129816190Y-119039580D02*
X129768571Y-118944342D01*
X129768571Y-118944342D02*
X129768571Y-118658628D01*
X129768571Y-118658628D02*
X129816190Y-118563390D01*
X129816190Y-118563390D02*
X129863809Y-118515771D01*
X129863809Y-118515771D02*
X129959047Y-118468152D01*
X129959047Y-118468152D02*
X130149523Y-118468152D01*
X130149523Y-118468152D02*
X130244761Y-118515771D01*
X131959047Y-119134819D02*
X131482857Y-119134819D01*
X131482857Y-119134819D02*
X131482857Y-118134819D01*
X132292381Y-118611009D02*
X132625714Y-118611009D01*
X132768571Y-119134819D02*
X132292381Y-119134819D01*
X132292381Y-119134819D02*
X132292381Y-118134819D01*
X132292381Y-118134819D02*
X132768571Y-118134819D01*
X133197143Y-119134819D02*
X133197143Y-118134819D01*
X133197143Y-118134819D02*
X133435238Y-118134819D01*
X133435238Y-118134819D02*
X133578095Y-118182438D01*
X133578095Y-118182438D02*
X133673333Y-118277676D01*
X133673333Y-118277676D02*
X133720952Y-118372914D01*
X133720952Y-118372914D02*
X133768571Y-118563390D01*
X133768571Y-118563390D02*
X133768571Y-118706247D01*
X133768571Y-118706247D02*
X133720952Y-118896723D01*
X133720952Y-118896723D02*
X133673333Y-118991961D01*
X133673333Y-118991961D02*
X133578095Y-119087200D01*
X133578095Y-119087200D02*
X133435238Y-119134819D01*
X133435238Y-119134819D02*
X133197143Y-119134819D01*
X90277200Y-121753333D02*
X90324819Y-121610476D01*
X90324819Y-121610476D02*
X90324819Y-121372381D01*
X90324819Y-121372381D02*
X90277200Y-121277143D01*
X90277200Y-121277143D02*
X90229580Y-121229524D01*
X90229580Y-121229524D02*
X90134342Y-121181905D01*
X90134342Y-121181905D02*
X90039104Y-121181905D01*
X90039104Y-121181905D02*
X89943866Y-121229524D01*
X89943866Y-121229524D02*
X89896247Y-121277143D01*
X89896247Y-121277143D02*
X89848628Y-121372381D01*
X89848628Y-121372381D02*
X89801009Y-121562857D01*
X89801009Y-121562857D02*
X89753390Y-121658095D01*
X89753390Y-121658095D02*
X89705771Y-121705714D01*
X89705771Y-121705714D02*
X89610533Y-121753333D01*
X89610533Y-121753333D02*
X89515295Y-121753333D01*
X89515295Y-121753333D02*
X89420057Y-121705714D01*
X89420057Y-121705714D02*
X89372438Y-121658095D01*
X89372438Y-121658095D02*
X89324819Y-121562857D01*
X89324819Y-121562857D02*
X89324819Y-121324762D01*
X89324819Y-121324762D02*
X89372438Y-121181905D01*
X90277200Y-120372381D02*
X90324819Y-120467619D01*
X90324819Y-120467619D02*
X90324819Y-120658095D01*
X90324819Y-120658095D02*
X90277200Y-120753333D01*
X90277200Y-120753333D02*
X90181961Y-120800952D01*
X90181961Y-120800952D02*
X89801009Y-120800952D01*
X89801009Y-120800952D02*
X89705771Y-120753333D01*
X89705771Y-120753333D02*
X89658152Y-120658095D01*
X89658152Y-120658095D02*
X89658152Y-120467619D01*
X89658152Y-120467619D02*
X89705771Y-120372381D01*
X89705771Y-120372381D02*
X89801009Y-120324762D01*
X89801009Y-120324762D02*
X89896247Y-120324762D01*
X89896247Y-120324762D02*
X89991485Y-120800952D01*
X89658152Y-119896190D02*
X90324819Y-119896190D01*
X89753390Y-119896190D02*
X89705771Y-119848571D01*
X89705771Y-119848571D02*
X89658152Y-119753333D01*
X89658152Y-119753333D02*
X89658152Y-119610476D01*
X89658152Y-119610476D02*
X89705771Y-119515238D01*
X89705771Y-119515238D02*
X89801009Y-119467619D01*
X89801009Y-119467619D02*
X90324819Y-119467619D01*
X90277200Y-119039047D02*
X90324819Y-118943809D01*
X90324819Y-118943809D02*
X90324819Y-118753333D01*
X90324819Y-118753333D02*
X90277200Y-118658095D01*
X90277200Y-118658095D02*
X90181961Y-118610476D01*
X90181961Y-118610476D02*
X90134342Y-118610476D01*
X90134342Y-118610476D02*
X90039104Y-118658095D01*
X90039104Y-118658095D02*
X89991485Y-118753333D01*
X89991485Y-118753333D02*
X89991485Y-118896190D01*
X89991485Y-118896190D02*
X89943866Y-118991428D01*
X89943866Y-118991428D02*
X89848628Y-119039047D01*
X89848628Y-119039047D02*
X89801009Y-119039047D01*
X89801009Y-119039047D02*
X89705771Y-118991428D01*
X89705771Y-118991428D02*
X89658152Y-118896190D01*
X89658152Y-118896190D02*
X89658152Y-118753333D01*
X89658152Y-118753333D02*
X89705771Y-118658095D01*
X90324819Y-118039047D02*
X90277200Y-118134285D01*
X90277200Y-118134285D02*
X90229580Y-118181904D01*
X90229580Y-118181904D02*
X90134342Y-118229523D01*
X90134342Y-118229523D02*
X89848628Y-118229523D01*
X89848628Y-118229523D02*
X89753390Y-118181904D01*
X89753390Y-118181904D02*
X89705771Y-118134285D01*
X89705771Y-118134285D02*
X89658152Y-118039047D01*
X89658152Y-118039047D02*
X89658152Y-117896190D01*
X89658152Y-117896190D02*
X89705771Y-117800952D01*
X89705771Y-117800952D02*
X89753390Y-117753333D01*
X89753390Y-117753333D02*
X89848628Y-117705714D01*
X89848628Y-117705714D02*
X90134342Y-117705714D01*
X90134342Y-117705714D02*
X90229580Y-117753333D01*
X90229580Y-117753333D02*
X90277200Y-117800952D01*
X90277200Y-117800952D02*
X90324819Y-117896190D01*
X90324819Y-117896190D02*
X90324819Y-118039047D01*
X90324819Y-117277142D02*
X89658152Y-117277142D01*
X89848628Y-117277142D02*
X89753390Y-117229523D01*
X89753390Y-117229523D02*
X89705771Y-117181904D01*
X89705771Y-117181904D02*
X89658152Y-117086666D01*
X89658152Y-117086666D02*
X89658152Y-116991428D01*
X89643333Y-96759580D02*
X89595714Y-96807200D01*
X89595714Y-96807200D02*
X89452857Y-96854819D01*
X89452857Y-96854819D02*
X89357619Y-96854819D01*
X89357619Y-96854819D02*
X89214762Y-96807200D01*
X89214762Y-96807200D02*
X89119524Y-96711961D01*
X89119524Y-96711961D02*
X89071905Y-96616723D01*
X89071905Y-96616723D02*
X89024286Y-96426247D01*
X89024286Y-96426247D02*
X89024286Y-96283390D01*
X89024286Y-96283390D02*
X89071905Y-96092914D01*
X89071905Y-96092914D02*
X89119524Y-95997676D01*
X89119524Y-95997676D02*
X89214762Y-95902438D01*
X89214762Y-95902438D02*
X89357619Y-95854819D01*
X89357619Y-95854819D02*
X89452857Y-95854819D01*
X89452857Y-95854819D02*
X89595714Y-95902438D01*
X89595714Y-95902438D02*
X89643333Y-95950057D01*
X90119524Y-96854819D02*
X90310000Y-96854819D01*
X90310000Y-96854819D02*
X90405238Y-96807200D01*
X90405238Y-96807200D02*
X90452857Y-96759580D01*
X90452857Y-96759580D02*
X90548095Y-96616723D01*
X90548095Y-96616723D02*
X90595714Y-96426247D01*
X90595714Y-96426247D02*
X90595714Y-96045295D01*
X90595714Y-96045295D02*
X90548095Y-95950057D01*
X90548095Y-95950057D02*
X90500476Y-95902438D01*
X90500476Y-95902438D02*
X90405238Y-95854819D01*
X90405238Y-95854819D02*
X90214762Y-95854819D01*
X90214762Y-95854819D02*
X90119524Y-95902438D01*
X90119524Y-95902438D02*
X90071905Y-95950057D01*
X90071905Y-95950057D02*
X90024286Y-96045295D01*
X90024286Y-96045295D02*
X90024286Y-96283390D01*
X90024286Y-96283390D02*
X90071905Y-96378628D01*
X90071905Y-96378628D02*
X90119524Y-96426247D01*
X90119524Y-96426247D02*
X90214762Y-96473866D01*
X90214762Y-96473866D02*
X90405238Y-96473866D01*
X90405238Y-96473866D02*
X90500476Y-96426247D01*
X90500476Y-96426247D02*
X90548095Y-96378628D01*
X90548095Y-96378628D02*
X90595714Y-96283390D01*
X155763095Y-115634819D02*
X155763095Y-116444342D01*
X155763095Y-116444342D02*
X155810714Y-116539580D01*
X155810714Y-116539580D02*
X155858333Y-116587200D01*
X155858333Y-116587200D02*
X155953571Y-116634819D01*
X155953571Y-116634819D02*
X156144047Y-116634819D01*
X156144047Y-116634819D02*
X156239285Y-116587200D01*
X156239285Y-116587200D02*
X156286904Y-116539580D01*
X156286904Y-116539580D02*
X156334523Y-116444342D01*
X156334523Y-116444342D02*
X156334523Y-115634819D01*
X156715476Y-115634819D02*
X157334523Y-115634819D01*
X157334523Y-115634819D02*
X157001190Y-116015771D01*
X157001190Y-116015771D02*
X157144047Y-116015771D01*
X157144047Y-116015771D02*
X157239285Y-116063390D01*
X157239285Y-116063390D02*
X157286904Y-116111009D01*
X157286904Y-116111009D02*
X157334523Y-116206247D01*
X157334523Y-116206247D02*
X157334523Y-116444342D01*
X157334523Y-116444342D02*
X157286904Y-116539580D01*
X157286904Y-116539580D02*
X157239285Y-116587200D01*
X157239285Y-116587200D02*
X157144047Y-116634819D01*
X157144047Y-116634819D02*
X156858333Y-116634819D01*
X156858333Y-116634819D02*
X156763095Y-116587200D01*
X156763095Y-116587200D02*
X156715476Y-116539580D01*
X140148572Y-105264819D02*
X140386667Y-106264819D01*
X140386667Y-106264819D02*
X140577143Y-105550533D01*
X140577143Y-105550533D02*
X140767619Y-106264819D01*
X140767619Y-106264819D02*
X141005715Y-105264819D01*
X141386667Y-105741009D02*
X141720000Y-105741009D01*
X141862857Y-106264819D02*
X141386667Y-106264819D01*
X141386667Y-106264819D02*
X141386667Y-105264819D01*
X141386667Y-105264819D02*
X141862857Y-105264819D01*
X142291429Y-106264819D02*
X142291429Y-105264819D01*
X142291429Y-105264819D02*
X142624762Y-105979104D01*
X142624762Y-105979104D02*
X142958095Y-105264819D01*
X142958095Y-105264819D02*
X142958095Y-106264819D01*
X143624762Y-105264819D02*
X143815238Y-105264819D01*
X143815238Y-105264819D02*
X143910476Y-105312438D01*
X143910476Y-105312438D02*
X144005714Y-105407676D01*
X144005714Y-105407676D02*
X144053333Y-105598152D01*
X144053333Y-105598152D02*
X144053333Y-105931485D01*
X144053333Y-105931485D02*
X144005714Y-106121961D01*
X144005714Y-106121961D02*
X143910476Y-106217200D01*
X143910476Y-106217200D02*
X143815238Y-106264819D01*
X143815238Y-106264819D02*
X143624762Y-106264819D01*
X143624762Y-106264819D02*
X143529524Y-106217200D01*
X143529524Y-106217200D02*
X143434286Y-106121961D01*
X143434286Y-106121961D02*
X143386667Y-105931485D01*
X143386667Y-105931485D02*
X143386667Y-105598152D01*
X143386667Y-105598152D02*
X143434286Y-105407676D01*
X143434286Y-105407676D02*
X143529524Y-105312438D01*
X143529524Y-105312438D02*
X143624762Y-105264819D01*
X144434286Y-106217200D02*
X144577143Y-106264819D01*
X144577143Y-106264819D02*
X144815238Y-106264819D01*
X144815238Y-106264819D02*
X144910476Y-106217200D01*
X144910476Y-106217200D02*
X144958095Y-106169580D01*
X144958095Y-106169580D02*
X145005714Y-106074342D01*
X145005714Y-106074342D02*
X145005714Y-105979104D01*
X145005714Y-105979104D02*
X144958095Y-105883866D01*
X144958095Y-105883866D02*
X144910476Y-105836247D01*
X144910476Y-105836247D02*
X144815238Y-105788628D01*
X144815238Y-105788628D02*
X144624762Y-105741009D01*
X144624762Y-105741009D02*
X144529524Y-105693390D01*
X144529524Y-105693390D02*
X144481905Y-105645771D01*
X144481905Y-105645771D02*
X144434286Y-105550533D01*
X144434286Y-105550533D02*
X144434286Y-105455295D01*
X144434286Y-105455295D02*
X144481905Y-105360057D01*
X144481905Y-105360057D02*
X144529524Y-105312438D01*
X144529524Y-105312438D02*
X144624762Y-105264819D01*
X144624762Y-105264819D02*
X144862857Y-105264819D01*
X144862857Y-105264819D02*
X145005714Y-105312438D01*
X146196191Y-106264819D02*
X146196191Y-105264819D01*
X146196191Y-105264819D02*
X146434286Y-105264819D01*
X146434286Y-105264819D02*
X146577143Y-105312438D01*
X146577143Y-105312438D02*
X146672381Y-105407676D01*
X146672381Y-105407676D02*
X146720000Y-105502914D01*
X146720000Y-105502914D02*
X146767619Y-105693390D01*
X146767619Y-105693390D02*
X146767619Y-105836247D01*
X146767619Y-105836247D02*
X146720000Y-106026723D01*
X146720000Y-106026723D02*
X146672381Y-106121961D01*
X146672381Y-106121961D02*
X146577143Y-106217200D01*
X146577143Y-106217200D02*
X146434286Y-106264819D01*
X146434286Y-106264819D02*
X146196191Y-106264819D01*
X147720000Y-106264819D02*
X147148572Y-106264819D01*
X147434286Y-106264819D02*
X147434286Y-105264819D01*
X147434286Y-105264819D02*
X147339048Y-105407676D01*
X147339048Y-105407676D02*
X147243810Y-105502914D01*
X147243810Y-105502914D02*
X147148572Y-105550533D01*
X148910477Y-106264819D02*
X148910477Y-105598152D01*
X148910477Y-105693390D02*
X148958096Y-105645771D01*
X148958096Y-105645771D02*
X149053334Y-105598152D01*
X149053334Y-105598152D02*
X149196191Y-105598152D01*
X149196191Y-105598152D02*
X149291429Y-105645771D01*
X149291429Y-105645771D02*
X149339048Y-105741009D01*
X149339048Y-105741009D02*
X149339048Y-106264819D01*
X149339048Y-105741009D02*
X149386667Y-105645771D01*
X149386667Y-105645771D02*
X149481905Y-105598152D01*
X149481905Y-105598152D02*
X149624762Y-105598152D01*
X149624762Y-105598152D02*
X149720001Y-105645771D01*
X149720001Y-105645771D02*
X149767620Y-105741009D01*
X149767620Y-105741009D02*
X149767620Y-106264819D01*
X150243810Y-106264819D02*
X150243810Y-105598152D01*
X150243810Y-105264819D02*
X150196191Y-105312438D01*
X150196191Y-105312438D02*
X150243810Y-105360057D01*
X150243810Y-105360057D02*
X150291429Y-105312438D01*
X150291429Y-105312438D02*
X150243810Y-105264819D01*
X150243810Y-105264819D02*
X150243810Y-105360057D01*
X150720000Y-105598152D02*
X150720000Y-106264819D01*
X150720000Y-105693390D02*
X150767619Y-105645771D01*
X150767619Y-105645771D02*
X150862857Y-105598152D01*
X150862857Y-105598152D02*
X151005714Y-105598152D01*
X151005714Y-105598152D02*
X151100952Y-105645771D01*
X151100952Y-105645771D02*
X151148571Y-105741009D01*
X151148571Y-105741009D02*
X151148571Y-106264819D01*
X151624762Y-106264819D02*
X151624762Y-105598152D01*
X151624762Y-105264819D02*
X151577143Y-105312438D01*
X151577143Y-105312438D02*
X151624762Y-105360057D01*
X151624762Y-105360057D02*
X151672381Y-105312438D01*
X151672381Y-105312438D02*
X151624762Y-105264819D01*
X151624762Y-105264819D02*
X151624762Y-105360057D01*
X152720000Y-105264819D02*
X153053333Y-106264819D01*
X153053333Y-106264819D02*
X153386666Y-105264819D01*
X154148571Y-105598152D02*
X154148571Y-106264819D01*
X153910476Y-105217200D02*
X153672381Y-105931485D01*
X153672381Y-105931485D02*
X154291428Y-105931485D01*
X121750057Y-78455238D02*
X121702438Y-78550476D01*
X121702438Y-78550476D02*
X121607200Y-78645714D01*
X121607200Y-78645714D02*
X121464342Y-78788571D01*
X121464342Y-78788571D02*
X121416723Y-78883809D01*
X121416723Y-78883809D02*
X121416723Y-78979047D01*
X121654819Y-78931428D02*
X121607200Y-79026666D01*
X121607200Y-79026666D02*
X121511961Y-79121904D01*
X121511961Y-79121904D02*
X121321485Y-79169523D01*
X121321485Y-79169523D02*
X120988152Y-79169523D01*
X120988152Y-79169523D02*
X120797676Y-79121904D01*
X120797676Y-79121904D02*
X120702438Y-79026666D01*
X120702438Y-79026666D02*
X120654819Y-78931428D01*
X120654819Y-78931428D02*
X120654819Y-78740952D01*
X120654819Y-78740952D02*
X120702438Y-78645714D01*
X120702438Y-78645714D02*
X120797676Y-78550476D01*
X120797676Y-78550476D02*
X120988152Y-78502857D01*
X120988152Y-78502857D02*
X121321485Y-78502857D01*
X121321485Y-78502857D02*
X121511961Y-78550476D01*
X121511961Y-78550476D02*
X121607200Y-78645714D01*
X121607200Y-78645714D02*
X121654819Y-78740952D01*
X121654819Y-78740952D02*
X121654819Y-78931428D01*
X120750057Y-78121904D02*
X120702438Y-78074285D01*
X120702438Y-78074285D02*
X120654819Y-77979047D01*
X120654819Y-77979047D02*
X120654819Y-77740952D01*
X120654819Y-77740952D02*
X120702438Y-77645714D01*
X120702438Y-77645714D02*
X120750057Y-77598095D01*
X120750057Y-77598095D02*
X120845295Y-77550476D01*
X120845295Y-77550476D02*
X120940533Y-77550476D01*
X120940533Y-77550476D02*
X121083390Y-77598095D01*
X121083390Y-77598095D02*
X121654819Y-78169523D01*
X121654819Y-78169523D02*
X121654819Y-77550476D01*
X125824762Y-78799104D02*
X126300952Y-78799104D01*
X125729524Y-79084819D02*
X126062857Y-78084819D01*
X126062857Y-78084819D02*
X126396190Y-79084819D01*
X126920000Y-78084819D02*
X127110476Y-78084819D01*
X127110476Y-78084819D02*
X127205714Y-78132438D01*
X127205714Y-78132438D02*
X127300952Y-78227676D01*
X127300952Y-78227676D02*
X127348571Y-78418152D01*
X127348571Y-78418152D02*
X127348571Y-78751485D01*
X127348571Y-78751485D02*
X127300952Y-78941961D01*
X127300952Y-78941961D02*
X127205714Y-79037200D01*
X127205714Y-79037200D02*
X127110476Y-79084819D01*
X127110476Y-79084819D02*
X126920000Y-79084819D01*
X126920000Y-79084819D02*
X126824762Y-79037200D01*
X126824762Y-79037200D02*
X126729524Y-78941961D01*
X126729524Y-78941961D02*
X126681905Y-78751485D01*
X126681905Y-78751485D02*
X126681905Y-78418152D01*
X126681905Y-78418152D02*
X126729524Y-78227676D01*
X126729524Y-78227676D02*
X126824762Y-78132438D01*
X126824762Y-78132438D02*
X126920000Y-78084819D01*
X127681905Y-78084819D02*
X128300952Y-78084819D01*
X128300952Y-78084819D02*
X127967619Y-78465771D01*
X127967619Y-78465771D02*
X128110476Y-78465771D01*
X128110476Y-78465771D02*
X128205714Y-78513390D01*
X128205714Y-78513390D02*
X128253333Y-78561009D01*
X128253333Y-78561009D02*
X128300952Y-78656247D01*
X128300952Y-78656247D02*
X128300952Y-78894342D01*
X128300952Y-78894342D02*
X128253333Y-78989580D01*
X128253333Y-78989580D02*
X128205714Y-79037200D01*
X128205714Y-79037200D02*
X128110476Y-79084819D01*
X128110476Y-79084819D02*
X127824762Y-79084819D01*
X127824762Y-79084819D02*
X127729524Y-79037200D01*
X127729524Y-79037200D02*
X127681905Y-78989580D01*
X129158095Y-78418152D02*
X129158095Y-79084819D01*
X128920000Y-78037200D02*
X128681905Y-78751485D01*
X128681905Y-78751485D02*
X129300952Y-78751485D01*
X129872381Y-78084819D02*
X129967619Y-78084819D01*
X129967619Y-78084819D02*
X130062857Y-78132438D01*
X130062857Y-78132438D02*
X130110476Y-78180057D01*
X130110476Y-78180057D02*
X130158095Y-78275295D01*
X130158095Y-78275295D02*
X130205714Y-78465771D01*
X130205714Y-78465771D02*
X130205714Y-78703866D01*
X130205714Y-78703866D02*
X130158095Y-78894342D01*
X130158095Y-78894342D02*
X130110476Y-78989580D01*
X130110476Y-78989580D02*
X130062857Y-79037200D01*
X130062857Y-79037200D02*
X129967619Y-79084819D01*
X129967619Y-79084819D02*
X129872381Y-79084819D01*
X129872381Y-79084819D02*
X129777143Y-79037200D01*
X129777143Y-79037200D02*
X129729524Y-78989580D01*
X129729524Y-78989580D02*
X129681905Y-78894342D01*
X129681905Y-78894342D02*
X129634286Y-78703866D01*
X129634286Y-78703866D02*
X129634286Y-78465771D01*
X129634286Y-78465771D02*
X129681905Y-78275295D01*
X129681905Y-78275295D02*
X129729524Y-78180057D01*
X129729524Y-78180057D02*
X129777143Y-78132438D01*
X129777143Y-78132438D02*
X129872381Y-78084819D01*
X131158095Y-79084819D02*
X130586667Y-79084819D01*
X130872381Y-79084819D02*
X130872381Y-78084819D01*
X130872381Y-78084819D02*
X130777143Y-78227676D01*
X130777143Y-78227676D02*
X130681905Y-78322914D01*
X130681905Y-78322914D02*
X130586667Y-78370533D01*
X131539048Y-78799104D02*
X132015238Y-78799104D01*
X131443810Y-79084819D02*
X131777143Y-78084819D01*
X131777143Y-78084819D02*
X132110476Y-79084819D01*
X100443333Y-91529580D02*
X100395714Y-91577200D01*
X100395714Y-91577200D02*
X100252857Y-91624819D01*
X100252857Y-91624819D02*
X100157619Y-91624819D01*
X100157619Y-91624819D02*
X100014762Y-91577200D01*
X100014762Y-91577200D02*
X99919524Y-91481961D01*
X99919524Y-91481961D02*
X99871905Y-91386723D01*
X99871905Y-91386723D02*
X99824286Y-91196247D01*
X99824286Y-91196247D02*
X99824286Y-91053390D01*
X99824286Y-91053390D02*
X99871905Y-90862914D01*
X99871905Y-90862914D02*
X99919524Y-90767676D01*
X99919524Y-90767676D02*
X100014762Y-90672438D01*
X100014762Y-90672438D02*
X100157619Y-90624819D01*
X100157619Y-90624819D02*
X100252857Y-90624819D01*
X100252857Y-90624819D02*
X100395714Y-90672438D01*
X100395714Y-90672438D02*
X100443333Y-90720057D01*
X101300476Y-90958152D02*
X101300476Y-91624819D01*
X101062381Y-90577200D02*
X100824286Y-91291485D01*
X100824286Y-91291485D02*
X101443333Y-91291485D01*
X149914819Y-78062857D02*
X149914819Y-78539047D01*
X149914819Y-78539047D02*
X148914819Y-78539047D01*
X149914819Y-77729523D02*
X149248152Y-77729523D01*
X148914819Y-77729523D02*
X148962438Y-77777142D01*
X148962438Y-77777142D02*
X149010057Y-77729523D01*
X149010057Y-77729523D02*
X148962438Y-77681904D01*
X148962438Y-77681904D02*
X148914819Y-77729523D01*
X148914819Y-77729523D02*
X149010057Y-77729523D01*
X149914819Y-77253333D02*
X148914819Y-77253333D01*
X148914819Y-77253333D02*
X148914819Y-76872381D01*
X148914819Y-76872381D02*
X148962438Y-76777143D01*
X148962438Y-76777143D02*
X149010057Y-76729524D01*
X149010057Y-76729524D02*
X149105295Y-76681905D01*
X149105295Y-76681905D02*
X149248152Y-76681905D01*
X149248152Y-76681905D02*
X149343390Y-76729524D01*
X149343390Y-76729524D02*
X149391009Y-76777143D01*
X149391009Y-76777143D02*
X149438628Y-76872381D01*
X149438628Y-76872381D02*
X149438628Y-77253333D01*
X149914819Y-76110476D02*
X149867200Y-76205714D01*
X149867200Y-76205714D02*
X149819580Y-76253333D01*
X149819580Y-76253333D02*
X149724342Y-76300952D01*
X149724342Y-76300952D02*
X149438628Y-76300952D01*
X149438628Y-76300952D02*
X149343390Y-76253333D01*
X149343390Y-76253333D02*
X149295771Y-76205714D01*
X149295771Y-76205714D02*
X149248152Y-76110476D01*
X149248152Y-76110476D02*
X149248152Y-75967619D01*
X149248152Y-75967619D02*
X149295771Y-75872381D01*
X149295771Y-75872381D02*
X149343390Y-75824762D01*
X149343390Y-75824762D02*
X149438628Y-75777143D01*
X149438628Y-75777143D02*
X149724342Y-75777143D01*
X149724342Y-75777143D02*
X149819580Y-75824762D01*
X149819580Y-75824762D02*
X149867200Y-75872381D01*
X149867200Y-75872381D02*
X149914819Y-75967619D01*
X149914819Y-75967619D02*
X149914819Y-76110476D01*
X149867200Y-74158095D02*
X149914819Y-74253333D01*
X149914819Y-74253333D02*
X149914819Y-74443809D01*
X149914819Y-74443809D02*
X149867200Y-74539047D01*
X149867200Y-74539047D02*
X149819580Y-74586666D01*
X149819580Y-74586666D02*
X149724342Y-74634285D01*
X149724342Y-74634285D02*
X149438628Y-74634285D01*
X149438628Y-74634285D02*
X149343390Y-74586666D01*
X149343390Y-74586666D02*
X149295771Y-74539047D01*
X149295771Y-74539047D02*
X149248152Y-74443809D01*
X149248152Y-74443809D02*
X149248152Y-74253333D01*
X149248152Y-74253333D02*
X149295771Y-74158095D01*
X149867200Y-73348571D02*
X149914819Y-73443809D01*
X149914819Y-73443809D02*
X149914819Y-73634285D01*
X149914819Y-73634285D02*
X149867200Y-73729523D01*
X149867200Y-73729523D02*
X149771961Y-73777142D01*
X149771961Y-73777142D02*
X149391009Y-73777142D01*
X149391009Y-73777142D02*
X149295771Y-73729523D01*
X149295771Y-73729523D02*
X149248152Y-73634285D01*
X149248152Y-73634285D02*
X149248152Y-73443809D01*
X149248152Y-73443809D02*
X149295771Y-73348571D01*
X149295771Y-73348571D02*
X149391009Y-73300952D01*
X149391009Y-73300952D02*
X149486247Y-73300952D01*
X149486247Y-73300952D02*
X149581485Y-73777142D01*
X149914819Y-72729523D02*
X149867200Y-72824761D01*
X149867200Y-72824761D02*
X149771961Y-72872380D01*
X149771961Y-72872380D02*
X148914819Y-72872380D01*
X149914819Y-72205713D02*
X149867200Y-72300951D01*
X149867200Y-72300951D02*
X149771961Y-72348570D01*
X149771961Y-72348570D02*
X148914819Y-72348570D01*
X97393095Y-94909819D02*
X97393095Y-95719342D01*
X97393095Y-95719342D02*
X97440714Y-95814580D01*
X97440714Y-95814580D02*
X97488333Y-95862200D01*
X97488333Y-95862200D02*
X97583571Y-95909819D01*
X97583571Y-95909819D02*
X97774047Y-95909819D01*
X97774047Y-95909819D02*
X97869285Y-95862200D01*
X97869285Y-95862200D02*
X97916904Y-95814580D01*
X97916904Y-95814580D02*
X97964523Y-95719342D01*
X97964523Y-95719342D02*
X97964523Y-94909819D01*
X98393095Y-95005057D02*
X98440714Y-94957438D01*
X98440714Y-94957438D02*
X98535952Y-94909819D01*
X98535952Y-94909819D02*
X98774047Y-94909819D01*
X98774047Y-94909819D02*
X98869285Y-94957438D01*
X98869285Y-94957438D02*
X98916904Y-95005057D01*
X98916904Y-95005057D02*
X98964523Y-95100295D01*
X98964523Y-95100295D02*
X98964523Y-95195533D01*
X98964523Y-95195533D02*
X98916904Y-95338390D01*
X98916904Y-95338390D02*
X98345476Y-95909819D01*
X98345476Y-95909819D02*
X98964523Y-95909819D01*
X94339048Y-102974819D02*
X94339048Y-101974819D01*
X95386666Y-102879580D02*
X95339047Y-102927200D01*
X95339047Y-102927200D02*
X95196190Y-102974819D01*
X95196190Y-102974819D02*
X95100952Y-102974819D01*
X95100952Y-102974819D02*
X94958095Y-102927200D01*
X94958095Y-102927200D02*
X94862857Y-102831961D01*
X94862857Y-102831961D02*
X94815238Y-102736723D01*
X94815238Y-102736723D02*
X94767619Y-102546247D01*
X94767619Y-102546247D02*
X94767619Y-102403390D01*
X94767619Y-102403390D02*
X94815238Y-102212914D01*
X94815238Y-102212914D02*
X94862857Y-102117676D01*
X94862857Y-102117676D02*
X94958095Y-102022438D01*
X94958095Y-102022438D02*
X95100952Y-101974819D01*
X95100952Y-101974819D02*
X95196190Y-101974819D01*
X95196190Y-101974819D02*
X95339047Y-102022438D01*
X95339047Y-102022438D02*
X95386666Y-102070057D01*
X95815238Y-102974819D02*
X95815238Y-101974819D01*
X95815238Y-101974819D02*
X96148571Y-102689104D01*
X96148571Y-102689104D02*
X96481904Y-101974819D01*
X96481904Y-101974819D02*
X96481904Y-102974819D01*
X96862857Y-101974819D02*
X97529523Y-101974819D01*
X97529523Y-101974819D02*
X97100952Y-102974819D01*
X98386666Y-101974819D02*
X97910476Y-101974819D01*
X97910476Y-101974819D02*
X97862857Y-102451009D01*
X97862857Y-102451009D02*
X97910476Y-102403390D01*
X97910476Y-102403390D02*
X98005714Y-102355771D01*
X98005714Y-102355771D02*
X98243809Y-102355771D01*
X98243809Y-102355771D02*
X98339047Y-102403390D01*
X98339047Y-102403390D02*
X98386666Y-102451009D01*
X98386666Y-102451009D02*
X98434285Y-102546247D01*
X98434285Y-102546247D02*
X98434285Y-102784342D01*
X98434285Y-102784342D02*
X98386666Y-102879580D01*
X98386666Y-102879580D02*
X98339047Y-102927200D01*
X98339047Y-102927200D02*
X98243809Y-102974819D01*
X98243809Y-102974819D02*
X98005714Y-102974819D01*
X98005714Y-102974819D02*
X97910476Y-102927200D01*
X97910476Y-102927200D02*
X97862857Y-102879580D01*
X99339047Y-101974819D02*
X98862857Y-101974819D01*
X98862857Y-101974819D02*
X98815238Y-102451009D01*
X98815238Y-102451009D02*
X98862857Y-102403390D01*
X98862857Y-102403390D02*
X98958095Y-102355771D01*
X98958095Y-102355771D02*
X99196190Y-102355771D01*
X99196190Y-102355771D02*
X99291428Y-102403390D01*
X99291428Y-102403390D02*
X99339047Y-102451009D01*
X99339047Y-102451009D02*
X99386666Y-102546247D01*
X99386666Y-102546247D02*
X99386666Y-102784342D01*
X99386666Y-102784342D02*
X99339047Y-102879580D01*
X99339047Y-102879580D02*
X99291428Y-102927200D01*
X99291428Y-102927200D02*
X99196190Y-102974819D01*
X99196190Y-102974819D02*
X98958095Y-102974819D01*
X98958095Y-102974819D02*
X98862857Y-102927200D01*
X98862857Y-102927200D02*
X98815238Y-102879580D01*
X100291428Y-101974819D02*
X99815238Y-101974819D01*
X99815238Y-101974819D02*
X99767619Y-102451009D01*
X99767619Y-102451009D02*
X99815238Y-102403390D01*
X99815238Y-102403390D02*
X99910476Y-102355771D01*
X99910476Y-102355771D02*
X100148571Y-102355771D01*
X100148571Y-102355771D02*
X100243809Y-102403390D01*
X100243809Y-102403390D02*
X100291428Y-102451009D01*
X100291428Y-102451009D02*
X100339047Y-102546247D01*
X100339047Y-102546247D02*
X100339047Y-102784342D01*
X100339047Y-102784342D02*
X100291428Y-102879580D01*
X100291428Y-102879580D02*
X100243809Y-102927200D01*
X100243809Y-102927200D02*
X100148571Y-102974819D01*
X100148571Y-102974819D02*
X99910476Y-102974819D01*
X99910476Y-102974819D02*
X99815238Y-102927200D01*
X99815238Y-102927200D02*
X99767619Y-102879580D01*
X100672381Y-102974819D02*
X101196190Y-102308152D01*
X100672381Y-102308152D02*
X101196190Y-102974819D01*
X101910476Y-102451009D02*
X102053333Y-102498628D01*
X102053333Y-102498628D02*
X102100952Y-102546247D01*
X102100952Y-102546247D02*
X102148571Y-102641485D01*
X102148571Y-102641485D02*
X102148571Y-102784342D01*
X102148571Y-102784342D02*
X102100952Y-102879580D01*
X102100952Y-102879580D02*
X102053333Y-102927200D01*
X102053333Y-102927200D02*
X101958095Y-102974819D01*
X101958095Y-102974819D02*
X101577143Y-102974819D01*
X101577143Y-102974819D02*
X101577143Y-101974819D01*
X101577143Y-101974819D02*
X101910476Y-101974819D01*
X101910476Y-101974819D02*
X102005714Y-102022438D01*
X102005714Y-102022438D02*
X102053333Y-102070057D01*
X102053333Y-102070057D02*
X102100952Y-102165295D01*
X102100952Y-102165295D02*
X102100952Y-102260533D01*
X102100952Y-102260533D02*
X102053333Y-102355771D01*
X102053333Y-102355771D02*
X102005714Y-102403390D01*
X102005714Y-102403390D02*
X101910476Y-102451009D01*
X101910476Y-102451009D02*
X101577143Y-102451009D01*
X123363333Y-83729580D02*
X123315714Y-83777200D01*
X123315714Y-83777200D02*
X123172857Y-83824819D01*
X123172857Y-83824819D02*
X123077619Y-83824819D01*
X123077619Y-83824819D02*
X122934762Y-83777200D01*
X122934762Y-83777200D02*
X122839524Y-83681961D01*
X122839524Y-83681961D02*
X122791905Y-83586723D01*
X122791905Y-83586723D02*
X122744286Y-83396247D01*
X122744286Y-83396247D02*
X122744286Y-83253390D01*
X122744286Y-83253390D02*
X122791905Y-83062914D01*
X122791905Y-83062914D02*
X122839524Y-82967676D01*
X122839524Y-82967676D02*
X122934762Y-82872438D01*
X122934762Y-82872438D02*
X123077619Y-82824819D01*
X123077619Y-82824819D02*
X123172857Y-82824819D01*
X123172857Y-82824819D02*
X123315714Y-82872438D01*
X123315714Y-82872438D02*
X123363333Y-82920057D01*
X124220476Y-82824819D02*
X124030000Y-82824819D01*
X124030000Y-82824819D02*
X123934762Y-82872438D01*
X123934762Y-82872438D02*
X123887143Y-82920057D01*
X123887143Y-82920057D02*
X123791905Y-83062914D01*
X123791905Y-83062914D02*
X123744286Y-83253390D01*
X123744286Y-83253390D02*
X123744286Y-83634342D01*
X123744286Y-83634342D02*
X123791905Y-83729580D01*
X123791905Y-83729580D02*
X123839524Y-83777200D01*
X123839524Y-83777200D02*
X123934762Y-83824819D01*
X123934762Y-83824819D02*
X124125238Y-83824819D01*
X124125238Y-83824819D02*
X124220476Y-83777200D01*
X124220476Y-83777200D02*
X124268095Y-83729580D01*
X124268095Y-83729580D02*
X124315714Y-83634342D01*
X124315714Y-83634342D02*
X124315714Y-83396247D01*
X124315714Y-83396247D02*
X124268095Y-83301009D01*
X124268095Y-83301009D02*
X124220476Y-83253390D01*
X124220476Y-83253390D02*
X124125238Y-83205771D01*
X124125238Y-83205771D02*
X123934762Y-83205771D01*
X123934762Y-83205771D02*
X123839524Y-83253390D01*
X123839524Y-83253390D02*
X123791905Y-83301009D01*
X123791905Y-83301009D02*
X123744286Y-83396247D01*
X116048095Y-100334819D02*
X116048095Y-101144342D01*
X116048095Y-101144342D02*
X116095714Y-101239580D01*
X116095714Y-101239580D02*
X116143333Y-101287200D01*
X116143333Y-101287200D02*
X116238571Y-101334819D01*
X116238571Y-101334819D02*
X116429047Y-101334819D01*
X116429047Y-101334819D02*
X116524285Y-101287200D01*
X116524285Y-101287200D02*
X116571904Y-101239580D01*
X116571904Y-101239580D02*
X116619523Y-101144342D01*
X116619523Y-101144342D02*
X116619523Y-100334819D01*
X117571904Y-100334819D02*
X117095714Y-100334819D01*
X117095714Y-100334819D02*
X117048095Y-100811009D01*
X117048095Y-100811009D02*
X117095714Y-100763390D01*
X117095714Y-100763390D02*
X117190952Y-100715771D01*
X117190952Y-100715771D02*
X117429047Y-100715771D01*
X117429047Y-100715771D02*
X117524285Y-100763390D01*
X117524285Y-100763390D02*
X117571904Y-100811009D01*
X117571904Y-100811009D02*
X117619523Y-100906247D01*
X117619523Y-100906247D02*
X117619523Y-101144342D01*
X117619523Y-101144342D02*
X117571904Y-101239580D01*
X117571904Y-101239580D02*
X117524285Y-101287200D01*
X117524285Y-101287200D02*
X117429047Y-101334819D01*
X117429047Y-101334819D02*
X117190952Y-101334819D01*
X117190952Y-101334819D02*
X117095714Y-101287200D01*
X117095714Y-101287200D02*
X117048095Y-101239580D01*
X116754819Y-97803810D02*
X116754819Y-98280000D01*
X116754819Y-98280000D02*
X115754819Y-98280000D01*
X116754819Y-97327619D02*
X116707200Y-97422857D01*
X116707200Y-97422857D02*
X116659580Y-97470476D01*
X116659580Y-97470476D02*
X116564342Y-97518095D01*
X116564342Y-97518095D02*
X116278628Y-97518095D01*
X116278628Y-97518095D02*
X116183390Y-97470476D01*
X116183390Y-97470476D02*
X116135771Y-97422857D01*
X116135771Y-97422857D02*
X116088152Y-97327619D01*
X116088152Y-97327619D02*
X116088152Y-97184762D01*
X116088152Y-97184762D02*
X116135771Y-97089524D01*
X116135771Y-97089524D02*
X116183390Y-97041905D01*
X116183390Y-97041905D02*
X116278628Y-96994286D01*
X116278628Y-96994286D02*
X116564342Y-96994286D01*
X116564342Y-96994286D02*
X116659580Y-97041905D01*
X116659580Y-97041905D02*
X116707200Y-97089524D01*
X116707200Y-97089524D02*
X116754819Y-97184762D01*
X116754819Y-97184762D02*
X116754819Y-97327619D01*
X116754819Y-95994286D02*
X116278628Y-96327619D01*
X116754819Y-96565714D02*
X115754819Y-96565714D01*
X115754819Y-96565714D02*
X115754819Y-96184762D01*
X115754819Y-96184762D02*
X115802438Y-96089524D01*
X115802438Y-96089524D02*
X115850057Y-96041905D01*
X115850057Y-96041905D02*
X115945295Y-95994286D01*
X115945295Y-95994286D02*
X116088152Y-95994286D01*
X116088152Y-95994286D02*
X116183390Y-96041905D01*
X116183390Y-96041905D02*
X116231009Y-96089524D01*
X116231009Y-96089524D02*
X116278628Y-96184762D01*
X116278628Y-96184762D02*
X116278628Y-96565714D01*
X116754819Y-95137143D02*
X116231009Y-95137143D01*
X116231009Y-95137143D02*
X116135771Y-95184762D01*
X116135771Y-95184762D02*
X116088152Y-95280000D01*
X116088152Y-95280000D02*
X116088152Y-95470476D01*
X116088152Y-95470476D02*
X116135771Y-95565714D01*
X116707200Y-95137143D02*
X116754819Y-95232381D01*
X116754819Y-95232381D02*
X116754819Y-95470476D01*
X116754819Y-95470476D02*
X116707200Y-95565714D01*
X116707200Y-95565714D02*
X116611961Y-95613333D01*
X116611961Y-95613333D02*
X116516723Y-95613333D01*
X116516723Y-95613333D02*
X116421485Y-95565714D01*
X116421485Y-95565714D02*
X116373866Y-95470476D01*
X116373866Y-95470476D02*
X116373866Y-95232381D01*
X116373866Y-95232381D02*
X116326247Y-95137143D01*
X116850057Y-94899048D02*
X116850057Y-94137143D01*
X116231009Y-93899047D02*
X116231009Y-93565714D01*
X116754819Y-93422857D02*
X116754819Y-93899047D01*
X116754819Y-93899047D02*
X115754819Y-93899047D01*
X115754819Y-93899047D02*
X115754819Y-93422857D01*
X115754819Y-93089523D02*
X115754819Y-92470476D01*
X115754819Y-92470476D02*
X116135771Y-92803809D01*
X116135771Y-92803809D02*
X116135771Y-92660952D01*
X116135771Y-92660952D02*
X116183390Y-92565714D01*
X116183390Y-92565714D02*
X116231009Y-92518095D01*
X116231009Y-92518095D02*
X116326247Y-92470476D01*
X116326247Y-92470476D02*
X116564342Y-92470476D01*
X116564342Y-92470476D02*
X116659580Y-92518095D01*
X116659580Y-92518095D02*
X116707200Y-92565714D01*
X116707200Y-92565714D02*
X116754819Y-92660952D01*
X116754819Y-92660952D02*
X116754819Y-92946666D01*
X116754819Y-92946666D02*
X116707200Y-93041904D01*
X116707200Y-93041904D02*
X116659580Y-93089523D01*
X115850057Y-92089523D02*
X115802438Y-92041904D01*
X115802438Y-92041904D02*
X115754819Y-91946666D01*
X115754819Y-91946666D02*
X115754819Y-91708571D01*
X115754819Y-91708571D02*
X115802438Y-91613333D01*
X115802438Y-91613333D02*
X115850057Y-91565714D01*
X115850057Y-91565714D02*
X115945295Y-91518095D01*
X115945295Y-91518095D02*
X116040533Y-91518095D01*
X116040533Y-91518095D02*
X116183390Y-91565714D01*
X116183390Y-91565714D02*
X116754819Y-92137142D01*
X116754819Y-92137142D02*
X116754819Y-91518095D01*
X116850057Y-91327619D02*
X116850057Y-90565714D01*
X116088152Y-89899047D02*
X116754819Y-89899047D01*
X115707200Y-90137142D02*
X116421485Y-90375237D01*
X116421485Y-90375237D02*
X116421485Y-89756190D01*
X115754819Y-89470475D02*
X115754819Y-88851428D01*
X115754819Y-88851428D02*
X116135771Y-89184761D01*
X116135771Y-89184761D02*
X116135771Y-89041904D01*
X116135771Y-89041904D02*
X116183390Y-88946666D01*
X116183390Y-88946666D02*
X116231009Y-88899047D01*
X116231009Y-88899047D02*
X116326247Y-88851428D01*
X116326247Y-88851428D02*
X116564342Y-88851428D01*
X116564342Y-88851428D02*
X116659580Y-88899047D01*
X116659580Y-88899047D02*
X116707200Y-88946666D01*
X116707200Y-88946666D02*
X116754819Y-89041904D01*
X116754819Y-89041904D02*
X116754819Y-89327618D01*
X116754819Y-89327618D02*
X116707200Y-89422856D01*
X116707200Y-89422856D02*
X116659580Y-89470475D01*
X115754819Y-88518094D02*
X115754819Y-87899047D01*
X115754819Y-87899047D02*
X116135771Y-88232380D01*
X116135771Y-88232380D02*
X116135771Y-88089523D01*
X116135771Y-88089523D02*
X116183390Y-87994285D01*
X116183390Y-87994285D02*
X116231009Y-87946666D01*
X116231009Y-87946666D02*
X116326247Y-87899047D01*
X116326247Y-87899047D02*
X116564342Y-87899047D01*
X116564342Y-87899047D02*
X116659580Y-87946666D01*
X116659580Y-87946666D02*
X116707200Y-87994285D01*
X116707200Y-87994285D02*
X116754819Y-88089523D01*
X116754819Y-88089523D02*
X116754819Y-88375237D01*
X116754819Y-88375237D02*
X116707200Y-88470475D01*
X116707200Y-88470475D02*
X116659580Y-88518094D01*
X115754819Y-87613332D02*
X115754819Y-87041904D01*
X116754819Y-87327618D02*
X115754819Y-87327618D01*
X115850057Y-86756189D02*
X115802438Y-86708570D01*
X115802438Y-86708570D02*
X115754819Y-86613332D01*
X115754819Y-86613332D02*
X115754819Y-86375237D01*
X115754819Y-86375237D02*
X115802438Y-86279999D01*
X115802438Y-86279999D02*
X115850057Y-86232380D01*
X115850057Y-86232380D02*
X115945295Y-86184761D01*
X115945295Y-86184761D02*
X116040533Y-86184761D01*
X116040533Y-86184761D02*
X116183390Y-86232380D01*
X116183390Y-86232380D02*
X116754819Y-86803808D01*
X116754819Y-86803808D02*
X116754819Y-86184761D01*
X115754819Y-85565713D02*
X115754819Y-85470475D01*
X115754819Y-85470475D02*
X115802438Y-85375237D01*
X115802438Y-85375237D02*
X115850057Y-85327618D01*
X115850057Y-85327618D02*
X115945295Y-85279999D01*
X115945295Y-85279999D02*
X116135771Y-85232380D01*
X116135771Y-85232380D02*
X116373866Y-85232380D01*
X116373866Y-85232380D02*
X116564342Y-85279999D01*
X116564342Y-85279999D02*
X116659580Y-85327618D01*
X116659580Y-85327618D02*
X116707200Y-85375237D01*
X116707200Y-85375237D02*
X116754819Y-85470475D01*
X116754819Y-85470475D02*
X116754819Y-85565713D01*
X116754819Y-85565713D02*
X116707200Y-85660951D01*
X116707200Y-85660951D02*
X116659580Y-85708570D01*
X116659580Y-85708570D02*
X116564342Y-85756189D01*
X116564342Y-85756189D02*
X116373866Y-85803808D01*
X116373866Y-85803808D02*
X116135771Y-85803808D01*
X116135771Y-85803808D02*
X115945295Y-85756189D01*
X115945295Y-85756189D02*
X115850057Y-85708570D01*
X115850057Y-85708570D02*
X115802438Y-85660951D01*
X115802438Y-85660951D02*
X115754819Y-85565713D01*
X116754819Y-84803808D02*
X115754819Y-84803808D01*
X115754819Y-84803808D02*
X115754819Y-84565713D01*
X115754819Y-84565713D02*
X115802438Y-84422856D01*
X115802438Y-84422856D02*
X115897676Y-84327618D01*
X115897676Y-84327618D02*
X115992914Y-84279999D01*
X115992914Y-84279999D02*
X116183390Y-84232380D01*
X116183390Y-84232380D02*
X116326247Y-84232380D01*
X116326247Y-84232380D02*
X116516723Y-84279999D01*
X116516723Y-84279999D02*
X116611961Y-84327618D01*
X116611961Y-84327618D02*
X116707200Y-84422856D01*
X116707200Y-84422856D02*
X116754819Y-84565713D01*
X116754819Y-84565713D02*
X116754819Y-84803808D01*
X122800595Y-94404819D02*
X122800595Y-95214342D01*
X122800595Y-95214342D02*
X122848214Y-95309580D01*
X122848214Y-95309580D02*
X122895833Y-95357200D01*
X122895833Y-95357200D02*
X122991071Y-95404819D01*
X122991071Y-95404819D02*
X123181547Y-95404819D01*
X123181547Y-95404819D02*
X123276785Y-95357200D01*
X123276785Y-95357200D02*
X123324404Y-95309580D01*
X123324404Y-95309580D02*
X123372023Y-95214342D01*
X123372023Y-95214342D02*
X123372023Y-94404819D01*
X124276785Y-94738152D02*
X124276785Y-95404819D01*
X124038690Y-94357200D02*
X123800595Y-95071485D01*
X123800595Y-95071485D02*
X124419642Y-95071485D01*
X118548571Y-99554819D02*
X119119999Y-99554819D01*
X118834285Y-100554819D02*
X118834285Y-99554819D01*
X119453333Y-100554819D02*
X119453333Y-99554819D01*
X119453333Y-99554819D02*
X119834285Y-99554819D01*
X119834285Y-99554819D02*
X119929523Y-99602438D01*
X119929523Y-99602438D02*
X119977142Y-99650057D01*
X119977142Y-99650057D02*
X120024761Y-99745295D01*
X120024761Y-99745295D02*
X120024761Y-99888152D01*
X120024761Y-99888152D02*
X119977142Y-99983390D01*
X119977142Y-99983390D02*
X119929523Y-100031009D01*
X119929523Y-100031009D02*
X119834285Y-100078628D01*
X119834285Y-100078628D02*
X119453333Y-100078628D01*
X120405714Y-100507200D02*
X120548571Y-100554819D01*
X120548571Y-100554819D02*
X120786666Y-100554819D01*
X120786666Y-100554819D02*
X120881904Y-100507200D01*
X120881904Y-100507200D02*
X120929523Y-100459580D01*
X120929523Y-100459580D02*
X120977142Y-100364342D01*
X120977142Y-100364342D02*
X120977142Y-100269104D01*
X120977142Y-100269104D02*
X120929523Y-100173866D01*
X120929523Y-100173866D02*
X120881904Y-100126247D01*
X120881904Y-100126247D02*
X120786666Y-100078628D01*
X120786666Y-100078628D02*
X120596190Y-100031009D01*
X120596190Y-100031009D02*
X120500952Y-99983390D01*
X120500952Y-99983390D02*
X120453333Y-99935771D01*
X120453333Y-99935771D02*
X120405714Y-99840533D01*
X120405714Y-99840533D02*
X120405714Y-99745295D01*
X120405714Y-99745295D02*
X120453333Y-99650057D01*
X120453333Y-99650057D02*
X120500952Y-99602438D01*
X120500952Y-99602438D02*
X120596190Y-99554819D01*
X120596190Y-99554819D02*
X120834285Y-99554819D01*
X120834285Y-99554819D02*
X120977142Y-99602438D01*
X121310476Y-99554819D02*
X121977142Y-99554819D01*
X121977142Y-99554819D02*
X121548571Y-100554819D01*
X122262857Y-99554819D02*
X122881904Y-99554819D01*
X122881904Y-99554819D02*
X122548571Y-99935771D01*
X122548571Y-99935771D02*
X122691428Y-99935771D01*
X122691428Y-99935771D02*
X122786666Y-99983390D01*
X122786666Y-99983390D02*
X122834285Y-100031009D01*
X122834285Y-100031009D02*
X122881904Y-100126247D01*
X122881904Y-100126247D02*
X122881904Y-100364342D01*
X122881904Y-100364342D02*
X122834285Y-100459580D01*
X122834285Y-100459580D02*
X122786666Y-100507200D01*
X122786666Y-100507200D02*
X122691428Y-100554819D01*
X122691428Y-100554819D02*
X122405714Y-100554819D01*
X122405714Y-100554819D02*
X122310476Y-100507200D01*
X122310476Y-100507200D02*
X122262857Y-100459580D01*
X123834285Y-100554819D02*
X123262857Y-100554819D01*
X123548571Y-100554819D02*
X123548571Y-99554819D01*
X123548571Y-99554819D02*
X123453333Y-99697676D01*
X123453333Y-99697676D02*
X123358095Y-99792914D01*
X123358095Y-99792914D02*
X123262857Y-99840533D01*
X124453333Y-99554819D02*
X124548571Y-99554819D01*
X124548571Y-99554819D02*
X124643809Y-99602438D01*
X124643809Y-99602438D02*
X124691428Y-99650057D01*
X124691428Y-99650057D02*
X124739047Y-99745295D01*
X124739047Y-99745295D02*
X124786666Y-99935771D01*
X124786666Y-99935771D02*
X124786666Y-100173866D01*
X124786666Y-100173866D02*
X124739047Y-100364342D01*
X124739047Y-100364342D02*
X124691428Y-100459580D01*
X124691428Y-100459580D02*
X124643809Y-100507200D01*
X124643809Y-100507200D02*
X124548571Y-100554819D01*
X124548571Y-100554819D02*
X124453333Y-100554819D01*
X124453333Y-100554819D02*
X124358095Y-100507200D01*
X124358095Y-100507200D02*
X124310476Y-100459580D01*
X124310476Y-100459580D02*
X124262857Y-100364342D01*
X124262857Y-100364342D02*
X124215238Y-100173866D01*
X124215238Y-100173866D02*
X124215238Y-99935771D01*
X124215238Y-99935771D02*
X124262857Y-99745295D01*
X124262857Y-99745295D02*
X124310476Y-99650057D01*
X124310476Y-99650057D02*
X124358095Y-99602438D01*
X124358095Y-99602438D02*
X124453333Y-99554819D01*
X125739047Y-100554819D02*
X125167619Y-100554819D01*
X125453333Y-100554819D02*
X125453333Y-99554819D01*
X125453333Y-99554819D02*
X125358095Y-99697676D01*
X125358095Y-99697676D02*
X125262857Y-99792914D01*
X125262857Y-99792914D02*
X125167619Y-99840533D01*
X126167619Y-100554819D02*
X126167619Y-99554819D01*
X126167619Y-99554819D02*
X126405714Y-99554819D01*
X126405714Y-99554819D02*
X126548571Y-99602438D01*
X126548571Y-99602438D02*
X126643809Y-99697676D01*
X126643809Y-99697676D02*
X126691428Y-99792914D01*
X126691428Y-99792914D02*
X126739047Y-99983390D01*
X126739047Y-99983390D02*
X126739047Y-100126247D01*
X126739047Y-100126247D02*
X126691428Y-100316723D01*
X126691428Y-100316723D02*
X126643809Y-100411961D01*
X126643809Y-100411961D02*
X126548571Y-100507200D01*
X126548571Y-100507200D02*
X126405714Y-100554819D01*
X126405714Y-100554819D02*
X126167619Y-100554819D01*
X127500952Y-100031009D02*
X127643809Y-100078628D01*
X127643809Y-100078628D02*
X127691428Y-100126247D01*
X127691428Y-100126247D02*
X127739047Y-100221485D01*
X127739047Y-100221485D02*
X127739047Y-100364342D01*
X127739047Y-100364342D02*
X127691428Y-100459580D01*
X127691428Y-100459580D02*
X127643809Y-100507200D01*
X127643809Y-100507200D02*
X127548571Y-100554819D01*
X127548571Y-100554819D02*
X127167619Y-100554819D01*
X127167619Y-100554819D02*
X127167619Y-99554819D01*
X127167619Y-99554819D02*
X127500952Y-99554819D01*
X127500952Y-99554819D02*
X127596190Y-99602438D01*
X127596190Y-99602438D02*
X127643809Y-99650057D01*
X127643809Y-99650057D02*
X127691428Y-99745295D01*
X127691428Y-99745295D02*
X127691428Y-99840533D01*
X127691428Y-99840533D02*
X127643809Y-99935771D01*
X127643809Y-99935771D02*
X127596190Y-99983390D01*
X127596190Y-99983390D02*
X127500952Y-100031009D01*
X127500952Y-100031009D02*
X127167619Y-100031009D01*
X128024762Y-99554819D02*
X128358095Y-100554819D01*
X128358095Y-100554819D02*
X128691428Y-99554819D01*
X103917142Y-95594819D02*
X103583809Y-95118628D01*
X103345714Y-95594819D02*
X103345714Y-94594819D01*
X103345714Y-94594819D02*
X103726666Y-94594819D01*
X103726666Y-94594819D02*
X103821904Y-94642438D01*
X103821904Y-94642438D02*
X103869523Y-94690057D01*
X103869523Y-94690057D02*
X103917142Y-94785295D01*
X103917142Y-94785295D02*
X103917142Y-94928152D01*
X103917142Y-94928152D02*
X103869523Y-95023390D01*
X103869523Y-95023390D02*
X103821904Y-95071009D01*
X103821904Y-95071009D02*
X103726666Y-95118628D01*
X103726666Y-95118628D02*
X103345714Y-95118628D01*
X104869523Y-95594819D02*
X104298095Y-95594819D01*
X104583809Y-95594819D02*
X104583809Y-94594819D01*
X104583809Y-94594819D02*
X104488571Y-94737676D01*
X104488571Y-94737676D02*
X104393333Y-94832914D01*
X104393333Y-94832914D02*
X104298095Y-94880533D01*
X105821904Y-95594819D02*
X105250476Y-95594819D01*
X105536190Y-95594819D02*
X105536190Y-94594819D01*
X105536190Y-94594819D02*
X105440952Y-94737676D01*
X105440952Y-94737676D02*
X105345714Y-94832914D01*
X105345714Y-94832914D02*
X105250476Y-94880533D01*
X97021428Y-107131009D02*
X97164285Y-107178628D01*
X97164285Y-107178628D02*
X97211904Y-107226247D01*
X97211904Y-107226247D02*
X97259523Y-107321485D01*
X97259523Y-107321485D02*
X97259523Y-107464342D01*
X97259523Y-107464342D02*
X97211904Y-107559580D01*
X97211904Y-107559580D02*
X97164285Y-107607200D01*
X97164285Y-107607200D02*
X97069047Y-107654819D01*
X97069047Y-107654819D02*
X96688095Y-107654819D01*
X96688095Y-107654819D02*
X96688095Y-106654819D01*
X96688095Y-106654819D02*
X97021428Y-106654819D01*
X97021428Y-106654819D02*
X97116666Y-106702438D01*
X97116666Y-106702438D02*
X97164285Y-106750057D01*
X97164285Y-106750057D02*
X97211904Y-106845295D01*
X97211904Y-106845295D02*
X97211904Y-106940533D01*
X97211904Y-106940533D02*
X97164285Y-107035771D01*
X97164285Y-107035771D02*
X97116666Y-107083390D01*
X97116666Y-107083390D02*
X97021428Y-107131009D01*
X97021428Y-107131009D02*
X96688095Y-107131009D01*
X98116666Y-106988152D02*
X98116666Y-107654819D01*
X97688095Y-106988152D02*
X97688095Y-107511961D01*
X97688095Y-107511961D02*
X97735714Y-107607200D01*
X97735714Y-107607200D02*
X97830952Y-107654819D01*
X97830952Y-107654819D02*
X97973809Y-107654819D01*
X97973809Y-107654819D02*
X98069047Y-107607200D01*
X98069047Y-107607200D02*
X98116666Y-107559580D01*
X98497619Y-106988152D02*
X99021428Y-106988152D01*
X99021428Y-106988152D02*
X98497619Y-107654819D01*
X98497619Y-107654819D02*
X99021428Y-107654819D01*
X99307143Y-106988152D02*
X99830952Y-106988152D01*
X99830952Y-106988152D02*
X99307143Y-107654819D01*
X99307143Y-107654819D02*
X99830952Y-107654819D01*
X100592857Y-107607200D02*
X100497619Y-107654819D01*
X100497619Y-107654819D02*
X100307143Y-107654819D01*
X100307143Y-107654819D02*
X100211905Y-107607200D01*
X100211905Y-107607200D02*
X100164286Y-107511961D01*
X100164286Y-107511961D02*
X100164286Y-107131009D01*
X100164286Y-107131009D02*
X100211905Y-107035771D01*
X100211905Y-107035771D02*
X100307143Y-106988152D01*
X100307143Y-106988152D02*
X100497619Y-106988152D01*
X100497619Y-106988152D02*
X100592857Y-107035771D01*
X100592857Y-107035771D02*
X100640476Y-107131009D01*
X100640476Y-107131009D02*
X100640476Y-107226247D01*
X100640476Y-107226247D02*
X100164286Y-107321485D01*
X101069048Y-107654819D02*
X101069048Y-106988152D01*
X101069048Y-107178628D02*
X101116667Y-107083390D01*
X101116667Y-107083390D02*
X101164286Y-107035771D01*
X101164286Y-107035771D02*
X101259524Y-106988152D01*
X101259524Y-106988152D02*
X101354762Y-106988152D01*
X110629048Y-113763866D02*
X111390953Y-113763866D01*
X111010000Y-114144819D02*
X111010000Y-113382914D01*
X85013333Y-98659580D02*
X84965714Y-98707200D01*
X84965714Y-98707200D02*
X84822857Y-98754819D01*
X84822857Y-98754819D02*
X84727619Y-98754819D01*
X84727619Y-98754819D02*
X84584762Y-98707200D01*
X84584762Y-98707200D02*
X84489524Y-98611961D01*
X84489524Y-98611961D02*
X84441905Y-98516723D01*
X84441905Y-98516723D02*
X84394286Y-98326247D01*
X84394286Y-98326247D02*
X84394286Y-98183390D01*
X84394286Y-98183390D02*
X84441905Y-97992914D01*
X84441905Y-97992914D02*
X84489524Y-97897676D01*
X84489524Y-97897676D02*
X84584762Y-97802438D01*
X84584762Y-97802438D02*
X84727619Y-97754819D01*
X84727619Y-97754819D02*
X84822857Y-97754819D01*
X84822857Y-97754819D02*
X84965714Y-97802438D01*
X84965714Y-97802438D02*
X85013333Y-97850057D01*
X85965714Y-98754819D02*
X85394286Y-98754819D01*
X85680000Y-98754819D02*
X85680000Y-97754819D01*
X85680000Y-97754819D02*
X85584762Y-97897676D01*
X85584762Y-97897676D02*
X85489524Y-97992914D01*
X85489524Y-97992914D02*
X85394286Y-98040533D01*
X84316666Y-111924819D02*
X84316666Y-112639104D01*
X84316666Y-112639104D02*
X84269047Y-112781961D01*
X84269047Y-112781961D02*
X84173809Y-112877200D01*
X84173809Y-112877200D02*
X84030952Y-112924819D01*
X84030952Y-112924819D02*
X83935714Y-112924819D01*
X84792857Y-112924819D02*
X84792857Y-111924819D01*
X84792857Y-111924819D02*
X85173809Y-111924819D01*
X85173809Y-111924819D02*
X85269047Y-111972438D01*
X85269047Y-111972438D02*
X85316666Y-112020057D01*
X85316666Y-112020057D02*
X85364285Y-112115295D01*
X85364285Y-112115295D02*
X85364285Y-112258152D01*
X85364285Y-112258152D02*
X85316666Y-112353390D01*
X85316666Y-112353390D02*
X85269047Y-112401009D01*
X85269047Y-112401009D02*
X85173809Y-112448628D01*
X85173809Y-112448628D02*
X84792857Y-112448628D01*
X86316666Y-112924819D02*
X85745238Y-112924819D01*
X86030952Y-112924819D02*
X86030952Y-111924819D01*
X86030952Y-111924819D02*
X85935714Y-112067676D01*
X85935714Y-112067676D02*
X85840476Y-112162914D01*
X85840476Y-112162914D02*
X85745238Y-112210533D01*
X128296666Y-76481009D02*
X127963333Y-76481009D01*
X127963333Y-77004819D02*
X127963333Y-76004819D01*
X127963333Y-76004819D02*
X128439523Y-76004819D01*
X129344285Y-77004819D02*
X128772857Y-77004819D01*
X129058571Y-77004819D02*
X129058571Y-76004819D01*
X129058571Y-76004819D02*
X128963333Y-76147676D01*
X128963333Y-76147676D02*
X128868095Y-76242914D01*
X128868095Y-76242914D02*
X128772857Y-76290533D01*
X126296667Y-71360057D02*
X126344286Y-71312438D01*
X126344286Y-71312438D02*
X126439524Y-71264819D01*
X126439524Y-71264819D02*
X126677619Y-71264819D01*
X126677619Y-71264819D02*
X126772857Y-71312438D01*
X126772857Y-71312438D02*
X126820476Y-71360057D01*
X126820476Y-71360057D02*
X126868095Y-71455295D01*
X126868095Y-71455295D02*
X126868095Y-71550533D01*
X126868095Y-71550533D02*
X126820476Y-71693390D01*
X126820476Y-71693390D02*
X126249048Y-72264819D01*
X126249048Y-72264819D02*
X126868095Y-72264819D01*
X127772857Y-71264819D02*
X127296667Y-71264819D01*
X127296667Y-71264819D02*
X127249048Y-71741009D01*
X127249048Y-71741009D02*
X127296667Y-71693390D01*
X127296667Y-71693390D02*
X127391905Y-71645771D01*
X127391905Y-71645771D02*
X127630000Y-71645771D01*
X127630000Y-71645771D02*
X127725238Y-71693390D01*
X127725238Y-71693390D02*
X127772857Y-71741009D01*
X127772857Y-71741009D02*
X127820476Y-71836247D01*
X127820476Y-71836247D02*
X127820476Y-72074342D01*
X127820476Y-72074342D02*
X127772857Y-72169580D01*
X127772857Y-72169580D02*
X127725238Y-72217200D01*
X127725238Y-72217200D02*
X127630000Y-72264819D01*
X127630000Y-72264819D02*
X127391905Y-72264819D01*
X127391905Y-72264819D02*
X127296667Y-72217200D01*
X127296667Y-72217200D02*
X127249048Y-72169580D01*
X128439524Y-71264819D02*
X128534762Y-71264819D01*
X128534762Y-71264819D02*
X128630000Y-71312438D01*
X128630000Y-71312438D02*
X128677619Y-71360057D01*
X128677619Y-71360057D02*
X128725238Y-71455295D01*
X128725238Y-71455295D02*
X128772857Y-71645771D01*
X128772857Y-71645771D02*
X128772857Y-71883866D01*
X128772857Y-71883866D02*
X128725238Y-72074342D01*
X128725238Y-72074342D02*
X128677619Y-72169580D01*
X128677619Y-72169580D02*
X128630000Y-72217200D01*
X128630000Y-72217200D02*
X128534762Y-72264819D01*
X128534762Y-72264819D02*
X128439524Y-72264819D01*
X128439524Y-72264819D02*
X128344286Y-72217200D01*
X128344286Y-72217200D02*
X128296667Y-72169580D01*
X128296667Y-72169580D02*
X128249048Y-72074342D01*
X128249048Y-72074342D02*
X128201429Y-71883866D01*
X128201429Y-71883866D02*
X128201429Y-71645771D01*
X128201429Y-71645771D02*
X128249048Y-71455295D01*
X128249048Y-71455295D02*
X128296667Y-71360057D01*
X128296667Y-71360057D02*
X128344286Y-71312438D01*
X128344286Y-71312438D02*
X128439524Y-71264819D01*
X129201429Y-72264819D02*
X129201429Y-71598152D01*
X129201429Y-71693390D02*
X129249048Y-71645771D01*
X129249048Y-71645771D02*
X129344286Y-71598152D01*
X129344286Y-71598152D02*
X129487143Y-71598152D01*
X129487143Y-71598152D02*
X129582381Y-71645771D01*
X129582381Y-71645771D02*
X129630000Y-71741009D01*
X129630000Y-71741009D02*
X129630000Y-72264819D01*
X129630000Y-71741009D02*
X129677619Y-71645771D01*
X129677619Y-71645771D02*
X129772857Y-71598152D01*
X129772857Y-71598152D02*
X129915714Y-71598152D01*
X129915714Y-71598152D02*
X130010953Y-71645771D01*
X130010953Y-71645771D02*
X130058572Y-71741009D01*
X130058572Y-71741009D02*
X130058572Y-72264819D01*
X130487143Y-71979104D02*
X130963333Y-71979104D01*
X130391905Y-72264819D02*
X130725238Y-71264819D01*
X130725238Y-71264819D02*
X131058571Y-72264819D01*
X116549998Y-119044819D02*
X116216665Y-118568628D01*
X115978570Y-119044819D02*
X115978570Y-118044819D01*
X115978570Y-118044819D02*
X116359522Y-118044819D01*
X116359522Y-118044819D02*
X116454760Y-118092438D01*
X116454760Y-118092438D02*
X116502379Y-118140057D01*
X116502379Y-118140057D02*
X116549998Y-118235295D01*
X116549998Y-118235295D02*
X116549998Y-118378152D01*
X116549998Y-118378152D02*
X116502379Y-118473390D01*
X116502379Y-118473390D02*
X116454760Y-118521009D01*
X116454760Y-118521009D02*
X116359522Y-118568628D01*
X116359522Y-118568628D02*
X115978570Y-118568628D01*
X117359522Y-118997200D02*
X117264284Y-119044819D01*
X117264284Y-119044819D02*
X117073808Y-119044819D01*
X117073808Y-119044819D02*
X116978570Y-118997200D01*
X116978570Y-118997200D02*
X116930951Y-118901961D01*
X116930951Y-118901961D02*
X116930951Y-118521009D01*
X116930951Y-118521009D02*
X116978570Y-118425771D01*
X116978570Y-118425771D02*
X117073808Y-118378152D01*
X117073808Y-118378152D02*
X117264284Y-118378152D01*
X117264284Y-118378152D02*
X117359522Y-118425771D01*
X117359522Y-118425771D02*
X117407141Y-118521009D01*
X117407141Y-118521009D02*
X117407141Y-118616247D01*
X117407141Y-118616247D02*
X116930951Y-118711485D01*
X117788094Y-118997200D02*
X117883332Y-119044819D01*
X117883332Y-119044819D02*
X118073808Y-119044819D01*
X118073808Y-119044819D02*
X118169046Y-118997200D01*
X118169046Y-118997200D02*
X118216665Y-118901961D01*
X118216665Y-118901961D02*
X118216665Y-118854342D01*
X118216665Y-118854342D02*
X118169046Y-118759104D01*
X118169046Y-118759104D02*
X118073808Y-118711485D01*
X118073808Y-118711485D02*
X117930951Y-118711485D01*
X117930951Y-118711485D02*
X117835713Y-118663866D01*
X117835713Y-118663866D02*
X117788094Y-118568628D01*
X117788094Y-118568628D02*
X117788094Y-118521009D01*
X117788094Y-118521009D02*
X117835713Y-118425771D01*
X117835713Y-118425771D02*
X117930951Y-118378152D01*
X117930951Y-118378152D02*
X118073808Y-118378152D01*
X118073808Y-118378152D02*
X118169046Y-118425771D01*
X119026189Y-118997200D02*
X118930951Y-119044819D01*
X118930951Y-119044819D02*
X118740475Y-119044819D01*
X118740475Y-119044819D02*
X118645237Y-118997200D01*
X118645237Y-118997200D02*
X118597618Y-118901961D01*
X118597618Y-118901961D02*
X118597618Y-118521009D01*
X118597618Y-118521009D02*
X118645237Y-118425771D01*
X118645237Y-118425771D02*
X118740475Y-118378152D01*
X118740475Y-118378152D02*
X118930951Y-118378152D01*
X118930951Y-118378152D02*
X119026189Y-118425771D01*
X119026189Y-118425771D02*
X119073808Y-118521009D01*
X119073808Y-118521009D02*
X119073808Y-118616247D01*
X119073808Y-118616247D02*
X118597618Y-118711485D01*
X119359523Y-118378152D02*
X119740475Y-118378152D01*
X119502380Y-118044819D02*
X119502380Y-118901961D01*
X119502380Y-118901961D02*
X119549999Y-118997200D01*
X119549999Y-118997200D02*
X119645237Y-119044819D01*
X119645237Y-119044819D02*
X119740475Y-119044819D01*
X120835714Y-119044819D02*
X120835714Y-118044819D01*
X120835714Y-118425771D02*
X120930952Y-118378152D01*
X120930952Y-118378152D02*
X121121428Y-118378152D01*
X121121428Y-118378152D02*
X121216666Y-118425771D01*
X121216666Y-118425771D02*
X121264285Y-118473390D01*
X121264285Y-118473390D02*
X121311904Y-118568628D01*
X121311904Y-118568628D02*
X121311904Y-118854342D01*
X121311904Y-118854342D02*
X121264285Y-118949580D01*
X121264285Y-118949580D02*
X121216666Y-118997200D01*
X121216666Y-118997200D02*
X121121428Y-119044819D01*
X121121428Y-119044819D02*
X120930952Y-119044819D01*
X120930952Y-119044819D02*
X120835714Y-118997200D01*
X122169047Y-118378152D02*
X122169047Y-119044819D01*
X121740476Y-118378152D02*
X121740476Y-118901961D01*
X121740476Y-118901961D02*
X121788095Y-118997200D01*
X121788095Y-118997200D02*
X121883333Y-119044819D01*
X121883333Y-119044819D02*
X122026190Y-119044819D01*
X122026190Y-119044819D02*
X122121428Y-118997200D01*
X122121428Y-118997200D02*
X122169047Y-118949580D01*
X122502381Y-118378152D02*
X122883333Y-118378152D01*
X122645238Y-118044819D02*
X122645238Y-118901961D01*
X122645238Y-118901961D02*
X122692857Y-118997200D01*
X122692857Y-118997200D02*
X122788095Y-119044819D01*
X122788095Y-119044819D02*
X122883333Y-119044819D01*
X123073810Y-118378152D02*
X123454762Y-118378152D01*
X123216667Y-118044819D02*
X123216667Y-118901961D01*
X123216667Y-118901961D02*
X123264286Y-118997200D01*
X123264286Y-118997200D02*
X123359524Y-119044819D01*
X123359524Y-119044819D02*
X123454762Y-119044819D01*
X123930953Y-119044819D02*
X123835715Y-118997200D01*
X123835715Y-118997200D02*
X123788096Y-118949580D01*
X123788096Y-118949580D02*
X123740477Y-118854342D01*
X123740477Y-118854342D02*
X123740477Y-118568628D01*
X123740477Y-118568628D02*
X123788096Y-118473390D01*
X123788096Y-118473390D02*
X123835715Y-118425771D01*
X123835715Y-118425771D02*
X123930953Y-118378152D01*
X123930953Y-118378152D02*
X124073810Y-118378152D01*
X124073810Y-118378152D02*
X124169048Y-118425771D01*
X124169048Y-118425771D02*
X124216667Y-118473390D01*
X124216667Y-118473390D02*
X124264286Y-118568628D01*
X124264286Y-118568628D02*
X124264286Y-118854342D01*
X124264286Y-118854342D02*
X124216667Y-118949580D01*
X124216667Y-118949580D02*
X124169048Y-118997200D01*
X124169048Y-118997200D02*
X124073810Y-119044819D01*
X124073810Y-119044819D02*
X123930953Y-119044819D01*
X124692858Y-118378152D02*
X124692858Y-119044819D01*
X124692858Y-118473390D02*
X124740477Y-118425771D01*
X124740477Y-118425771D02*
X124835715Y-118378152D01*
X124835715Y-118378152D02*
X124978572Y-118378152D01*
X124978572Y-118378152D02*
X125073810Y-118425771D01*
X125073810Y-118425771D02*
X125121429Y-118521009D01*
X125121429Y-118521009D02*
X125121429Y-119044819D01*
X88173333Y-98759580D02*
X88125714Y-98807200D01*
X88125714Y-98807200D02*
X87982857Y-98854819D01*
X87982857Y-98854819D02*
X87887619Y-98854819D01*
X87887619Y-98854819D02*
X87744762Y-98807200D01*
X87744762Y-98807200D02*
X87649524Y-98711961D01*
X87649524Y-98711961D02*
X87601905Y-98616723D01*
X87601905Y-98616723D02*
X87554286Y-98426247D01*
X87554286Y-98426247D02*
X87554286Y-98283390D01*
X87554286Y-98283390D02*
X87601905Y-98092914D01*
X87601905Y-98092914D02*
X87649524Y-97997676D01*
X87649524Y-97997676D02*
X87744762Y-97902438D01*
X87744762Y-97902438D02*
X87887619Y-97854819D01*
X87887619Y-97854819D02*
X87982857Y-97854819D01*
X87982857Y-97854819D02*
X88125714Y-97902438D01*
X88125714Y-97902438D02*
X88173333Y-97950057D01*
X88554286Y-97950057D02*
X88601905Y-97902438D01*
X88601905Y-97902438D02*
X88697143Y-97854819D01*
X88697143Y-97854819D02*
X88935238Y-97854819D01*
X88935238Y-97854819D02*
X89030476Y-97902438D01*
X89030476Y-97902438D02*
X89078095Y-97950057D01*
X89078095Y-97950057D02*
X89125714Y-98045295D01*
X89125714Y-98045295D02*
X89125714Y-98140533D01*
X89125714Y-98140533D02*
X89078095Y-98283390D01*
X89078095Y-98283390D02*
X88506667Y-98854819D01*
X88506667Y-98854819D02*
X89125714Y-98854819D01*
X136463333Y-94764819D02*
X136130000Y-94288628D01*
X135891905Y-94764819D02*
X135891905Y-93764819D01*
X135891905Y-93764819D02*
X136272857Y-93764819D01*
X136272857Y-93764819D02*
X136368095Y-93812438D01*
X136368095Y-93812438D02*
X136415714Y-93860057D01*
X136415714Y-93860057D02*
X136463333Y-93955295D01*
X136463333Y-93955295D02*
X136463333Y-94098152D01*
X136463333Y-94098152D02*
X136415714Y-94193390D01*
X136415714Y-94193390D02*
X136368095Y-94241009D01*
X136368095Y-94241009D02*
X136272857Y-94288628D01*
X136272857Y-94288628D02*
X135891905Y-94288628D01*
X136796667Y-93764819D02*
X137463333Y-93764819D01*
X137463333Y-93764819D02*
X137034762Y-94764819D01*
X90553333Y-105874819D02*
X90220000Y-105398628D01*
X89981905Y-105874819D02*
X89981905Y-104874819D01*
X89981905Y-104874819D02*
X90362857Y-104874819D01*
X90362857Y-104874819D02*
X90458095Y-104922438D01*
X90458095Y-104922438D02*
X90505714Y-104970057D01*
X90505714Y-104970057D02*
X90553333Y-105065295D01*
X90553333Y-105065295D02*
X90553333Y-105208152D01*
X90553333Y-105208152D02*
X90505714Y-105303390D01*
X90505714Y-105303390D02*
X90458095Y-105351009D01*
X90458095Y-105351009D02*
X90362857Y-105398628D01*
X90362857Y-105398628D02*
X89981905Y-105398628D01*
X91410476Y-104874819D02*
X91220000Y-104874819D01*
X91220000Y-104874819D02*
X91124762Y-104922438D01*
X91124762Y-104922438D02*
X91077143Y-104970057D01*
X91077143Y-104970057D02*
X90981905Y-105112914D01*
X90981905Y-105112914D02*
X90934286Y-105303390D01*
X90934286Y-105303390D02*
X90934286Y-105684342D01*
X90934286Y-105684342D02*
X90981905Y-105779580D01*
X90981905Y-105779580D02*
X91029524Y-105827200D01*
X91029524Y-105827200D02*
X91124762Y-105874819D01*
X91124762Y-105874819D02*
X91315238Y-105874819D01*
X91315238Y-105874819D02*
X91410476Y-105827200D01*
X91410476Y-105827200D02*
X91458095Y-105779580D01*
X91458095Y-105779580D02*
X91505714Y-105684342D01*
X91505714Y-105684342D02*
X91505714Y-105446247D01*
X91505714Y-105446247D02*
X91458095Y-105351009D01*
X91458095Y-105351009D02*
X91410476Y-105303390D01*
X91410476Y-105303390D02*
X91315238Y-105255771D01*
X91315238Y-105255771D02*
X91124762Y-105255771D01*
X91124762Y-105255771D02*
X91029524Y-105303390D01*
X91029524Y-105303390D02*
X90981905Y-105351009D01*
X90981905Y-105351009D02*
X90934286Y-105446247D01*
X129243333Y-96464819D02*
X128910000Y-95988628D01*
X128671905Y-96464819D02*
X128671905Y-95464819D01*
X128671905Y-95464819D02*
X129052857Y-95464819D01*
X129052857Y-95464819D02*
X129148095Y-95512438D01*
X129148095Y-95512438D02*
X129195714Y-95560057D01*
X129195714Y-95560057D02*
X129243333Y-95655295D01*
X129243333Y-95655295D02*
X129243333Y-95798152D01*
X129243333Y-95798152D02*
X129195714Y-95893390D01*
X129195714Y-95893390D02*
X129148095Y-95941009D01*
X129148095Y-95941009D02*
X129052857Y-95988628D01*
X129052857Y-95988628D02*
X128671905Y-95988628D01*
X129576667Y-95464819D02*
X130195714Y-95464819D01*
X130195714Y-95464819D02*
X129862381Y-95845771D01*
X129862381Y-95845771D02*
X130005238Y-95845771D01*
X130005238Y-95845771D02*
X130100476Y-95893390D01*
X130100476Y-95893390D02*
X130148095Y-95941009D01*
X130148095Y-95941009D02*
X130195714Y-96036247D01*
X130195714Y-96036247D02*
X130195714Y-96274342D01*
X130195714Y-96274342D02*
X130148095Y-96369580D01*
X130148095Y-96369580D02*
X130100476Y-96417200D01*
X130100476Y-96417200D02*
X130005238Y-96464819D01*
X130005238Y-96464819D02*
X129719524Y-96464819D01*
X129719524Y-96464819D02*
X129624286Y-96417200D01*
X129624286Y-96417200D02*
X129576667Y-96369580D01*
X107550475Y-118611009D02*
X107693332Y-118658628D01*
X107693332Y-118658628D02*
X107740951Y-118706247D01*
X107740951Y-118706247D02*
X107788570Y-118801485D01*
X107788570Y-118801485D02*
X107788570Y-118944342D01*
X107788570Y-118944342D02*
X107740951Y-119039580D01*
X107740951Y-119039580D02*
X107693332Y-119087200D01*
X107693332Y-119087200D02*
X107598094Y-119134819D01*
X107598094Y-119134819D02*
X107217142Y-119134819D01*
X107217142Y-119134819D02*
X107217142Y-118134819D01*
X107217142Y-118134819D02*
X107550475Y-118134819D01*
X107550475Y-118134819D02*
X107645713Y-118182438D01*
X107645713Y-118182438D02*
X107693332Y-118230057D01*
X107693332Y-118230057D02*
X107740951Y-118325295D01*
X107740951Y-118325295D02*
X107740951Y-118420533D01*
X107740951Y-118420533D02*
X107693332Y-118515771D01*
X107693332Y-118515771D02*
X107645713Y-118563390D01*
X107645713Y-118563390D02*
X107550475Y-118611009D01*
X107550475Y-118611009D02*
X107217142Y-118611009D01*
X108359999Y-119134819D02*
X108264761Y-119087200D01*
X108264761Y-119087200D02*
X108217142Y-118991961D01*
X108217142Y-118991961D02*
X108217142Y-118134819D01*
X109169523Y-118468152D02*
X109169523Y-119134819D01*
X108740952Y-118468152D02*
X108740952Y-118991961D01*
X108740952Y-118991961D02*
X108788571Y-119087200D01*
X108788571Y-119087200D02*
X108883809Y-119134819D01*
X108883809Y-119134819D02*
X109026666Y-119134819D01*
X109026666Y-119134819D02*
X109121904Y-119087200D01*
X109121904Y-119087200D02*
X109169523Y-119039580D01*
X110026666Y-119087200D02*
X109931428Y-119134819D01*
X109931428Y-119134819D02*
X109740952Y-119134819D01*
X109740952Y-119134819D02*
X109645714Y-119087200D01*
X109645714Y-119087200D02*
X109598095Y-118991961D01*
X109598095Y-118991961D02*
X109598095Y-118611009D01*
X109598095Y-118611009D02*
X109645714Y-118515771D01*
X109645714Y-118515771D02*
X109740952Y-118468152D01*
X109740952Y-118468152D02*
X109931428Y-118468152D01*
X109931428Y-118468152D02*
X110026666Y-118515771D01*
X110026666Y-118515771D02*
X110074285Y-118611009D01*
X110074285Y-118611009D02*
X110074285Y-118706247D01*
X110074285Y-118706247D02*
X109598095Y-118801485D01*
X111740952Y-119134819D02*
X111264762Y-119134819D01*
X111264762Y-119134819D02*
X111264762Y-118134819D01*
X112074286Y-118611009D02*
X112407619Y-118611009D01*
X112550476Y-119134819D02*
X112074286Y-119134819D01*
X112074286Y-119134819D02*
X112074286Y-118134819D01*
X112074286Y-118134819D02*
X112550476Y-118134819D01*
X112979048Y-119134819D02*
X112979048Y-118134819D01*
X112979048Y-118134819D02*
X113217143Y-118134819D01*
X113217143Y-118134819D02*
X113360000Y-118182438D01*
X113360000Y-118182438D02*
X113455238Y-118277676D01*
X113455238Y-118277676D02*
X113502857Y-118372914D01*
X113502857Y-118372914D02*
X113550476Y-118563390D01*
X113550476Y-118563390D02*
X113550476Y-118706247D01*
X113550476Y-118706247D02*
X113502857Y-118896723D01*
X113502857Y-118896723D02*
X113455238Y-118991961D01*
X113455238Y-118991961D02*
X113360000Y-119087200D01*
X113360000Y-119087200D02*
X113217143Y-119134819D01*
X113217143Y-119134819D02*
X112979048Y-119134819D01*
X142417142Y-102294819D02*
X142083809Y-101818628D01*
X141845714Y-102294819D02*
X141845714Y-101294819D01*
X141845714Y-101294819D02*
X142226666Y-101294819D01*
X142226666Y-101294819D02*
X142321904Y-101342438D01*
X142321904Y-101342438D02*
X142369523Y-101390057D01*
X142369523Y-101390057D02*
X142417142Y-101485295D01*
X142417142Y-101485295D02*
X142417142Y-101628152D01*
X142417142Y-101628152D02*
X142369523Y-101723390D01*
X142369523Y-101723390D02*
X142321904Y-101771009D01*
X142321904Y-101771009D02*
X142226666Y-101818628D01*
X142226666Y-101818628D02*
X141845714Y-101818628D01*
X143369523Y-102294819D02*
X142798095Y-102294819D01*
X143083809Y-102294819D02*
X143083809Y-101294819D01*
X143083809Y-101294819D02*
X142988571Y-101437676D01*
X142988571Y-101437676D02*
X142893333Y-101532914D01*
X142893333Y-101532914D02*
X142798095Y-101580533D01*
X143702857Y-101294819D02*
X144321904Y-101294819D01*
X144321904Y-101294819D02*
X143988571Y-101675771D01*
X143988571Y-101675771D02*
X144131428Y-101675771D01*
X144131428Y-101675771D02*
X144226666Y-101723390D01*
X144226666Y-101723390D02*
X144274285Y-101771009D01*
X144274285Y-101771009D02*
X144321904Y-101866247D01*
X144321904Y-101866247D02*
X144321904Y-102104342D01*
X144321904Y-102104342D02*
X144274285Y-102199580D01*
X144274285Y-102199580D02*
X144226666Y-102247200D01*
X144226666Y-102247200D02*
X144131428Y-102294819D01*
X144131428Y-102294819D02*
X143845714Y-102294819D01*
X143845714Y-102294819D02*
X143750476Y-102247200D01*
X143750476Y-102247200D02*
X143702857Y-102199580D01*
X142427142Y-92204819D02*
X142093809Y-91728628D01*
X141855714Y-92204819D02*
X141855714Y-91204819D01*
X141855714Y-91204819D02*
X142236666Y-91204819D01*
X142236666Y-91204819D02*
X142331904Y-91252438D01*
X142331904Y-91252438D02*
X142379523Y-91300057D01*
X142379523Y-91300057D02*
X142427142Y-91395295D01*
X142427142Y-91395295D02*
X142427142Y-91538152D01*
X142427142Y-91538152D02*
X142379523Y-91633390D01*
X142379523Y-91633390D02*
X142331904Y-91681009D01*
X142331904Y-91681009D02*
X142236666Y-91728628D01*
X142236666Y-91728628D02*
X141855714Y-91728628D01*
X143379523Y-92204819D02*
X142808095Y-92204819D01*
X143093809Y-92204819D02*
X143093809Y-91204819D01*
X143093809Y-91204819D02*
X142998571Y-91347676D01*
X142998571Y-91347676D02*
X142903333Y-91442914D01*
X142903333Y-91442914D02*
X142808095Y-91490533D01*
X143998571Y-91204819D02*
X144093809Y-91204819D01*
X144093809Y-91204819D02*
X144189047Y-91252438D01*
X144189047Y-91252438D02*
X144236666Y-91300057D01*
X144236666Y-91300057D02*
X144284285Y-91395295D01*
X144284285Y-91395295D02*
X144331904Y-91585771D01*
X144331904Y-91585771D02*
X144331904Y-91823866D01*
X144331904Y-91823866D02*
X144284285Y-92014342D01*
X144284285Y-92014342D02*
X144236666Y-92109580D01*
X144236666Y-92109580D02*
X144189047Y-92157200D01*
X144189047Y-92157200D02*
X144093809Y-92204819D01*
X144093809Y-92204819D02*
X143998571Y-92204819D01*
X143998571Y-92204819D02*
X143903333Y-92157200D01*
X143903333Y-92157200D02*
X143855714Y-92109580D01*
X143855714Y-92109580D02*
X143808095Y-92014342D01*
X143808095Y-92014342D02*
X143760476Y-91823866D01*
X143760476Y-91823866D02*
X143760476Y-91585771D01*
X143760476Y-91585771D02*
X143808095Y-91395295D01*
X143808095Y-91395295D02*
X143855714Y-91300057D01*
X143855714Y-91300057D02*
X143903333Y-91252438D01*
X143903333Y-91252438D02*
X143998571Y-91204819D01*
X128897142Y-88654819D02*
X128563809Y-88178628D01*
X128325714Y-88654819D02*
X128325714Y-87654819D01*
X128325714Y-87654819D02*
X128706666Y-87654819D01*
X128706666Y-87654819D02*
X128801904Y-87702438D01*
X128801904Y-87702438D02*
X128849523Y-87750057D01*
X128849523Y-87750057D02*
X128897142Y-87845295D01*
X128897142Y-87845295D02*
X128897142Y-87988152D01*
X128897142Y-87988152D02*
X128849523Y-88083390D01*
X128849523Y-88083390D02*
X128801904Y-88131009D01*
X128801904Y-88131009D02*
X128706666Y-88178628D01*
X128706666Y-88178628D02*
X128325714Y-88178628D01*
X129849523Y-88654819D02*
X129278095Y-88654819D01*
X129563809Y-88654819D02*
X129563809Y-87654819D01*
X129563809Y-87654819D02*
X129468571Y-87797676D01*
X129468571Y-87797676D02*
X129373333Y-87892914D01*
X129373333Y-87892914D02*
X129278095Y-87940533D01*
X130706666Y-87988152D02*
X130706666Y-88654819D01*
X130468571Y-87607200D02*
X130230476Y-88321485D01*
X130230476Y-88321485D02*
X130849523Y-88321485D01*
X81564761Y-99804819D02*
X81231428Y-99328628D01*
X80993333Y-99804819D02*
X80993333Y-98804819D01*
X80993333Y-98804819D02*
X81374285Y-98804819D01*
X81374285Y-98804819D02*
X81469523Y-98852438D01*
X81469523Y-98852438D02*
X81517142Y-98900057D01*
X81517142Y-98900057D02*
X81564761Y-98995295D01*
X81564761Y-98995295D02*
X81564761Y-99138152D01*
X81564761Y-99138152D02*
X81517142Y-99233390D01*
X81517142Y-99233390D02*
X81469523Y-99281009D01*
X81469523Y-99281009D02*
X81374285Y-99328628D01*
X81374285Y-99328628D02*
X80993333Y-99328628D01*
X81850476Y-98804819D02*
X82183809Y-99804819D01*
X82183809Y-99804819D02*
X82517142Y-98804819D01*
X83374285Y-99804819D02*
X82802857Y-99804819D01*
X83088571Y-99804819D02*
X83088571Y-98804819D01*
X83088571Y-98804819D02*
X82993333Y-98947676D01*
X82993333Y-98947676D02*
X82898095Y-99042914D01*
X82898095Y-99042914D02*
X82802857Y-99090533D01*
X93069580Y-92462857D02*
X93117200Y-92510476D01*
X93117200Y-92510476D02*
X93164819Y-92653333D01*
X93164819Y-92653333D02*
X93164819Y-92748571D01*
X93164819Y-92748571D02*
X93117200Y-92891428D01*
X93117200Y-92891428D02*
X93021961Y-92986666D01*
X93021961Y-92986666D02*
X92926723Y-93034285D01*
X92926723Y-93034285D02*
X92736247Y-93081904D01*
X92736247Y-93081904D02*
X92593390Y-93081904D01*
X92593390Y-93081904D02*
X92402914Y-93034285D01*
X92402914Y-93034285D02*
X92307676Y-92986666D01*
X92307676Y-92986666D02*
X92212438Y-92891428D01*
X92212438Y-92891428D02*
X92164819Y-92748571D01*
X92164819Y-92748571D02*
X92164819Y-92653333D01*
X92164819Y-92653333D02*
X92212438Y-92510476D01*
X92212438Y-92510476D02*
X92260057Y-92462857D01*
X93164819Y-91510476D02*
X93164819Y-92081904D01*
X93164819Y-91796190D02*
X92164819Y-91796190D01*
X92164819Y-91796190D02*
X92307676Y-91891428D01*
X92307676Y-91891428D02*
X92402914Y-91986666D01*
X92402914Y-91986666D02*
X92450533Y-92081904D01*
X92164819Y-90891428D02*
X92164819Y-90796190D01*
X92164819Y-90796190D02*
X92212438Y-90700952D01*
X92212438Y-90700952D02*
X92260057Y-90653333D01*
X92260057Y-90653333D02*
X92355295Y-90605714D01*
X92355295Y-90605714D02*
X92545771Y-90558095D01*
X92545771Y-90558095D02*
X92783866Y-90558095D01*
X92783866Y-90558095D02*
X92974342Y-90605714D01*
X92974342Y-90605714D02*
X93069580Y-90653333D01*
X93069580Y-90653333D02*
X93117200Y-90700952D01*
X93117200Y-90700952D02*
X93164819Y-90796190D01*
X93164819Y-90796190D02*
X93164819Y-90891428D01*
X93164819Y-90891428D02*
X93117200Y-90986666D01*
X93117200Y-90986666D02*
X93069580Y-91034285D01*
X93069580Y-91034285D02*
X92974342Y-91081904D01*
X92974342Y-91081904D02*
X92783866Y-91129523D01*
X92783866Y-91129523D02*
X92545771Y-91129523D01*
X92545771Y-91129523D02*
X92355295Y-91081904D01*
X92355295Y-91081904D02*
X92260057Y-91034285D01*
X92260057Y-91034285D02*
X92212438Y-90986666D01*
X92212438Y-90986666D02*
X92164819Y-90891428D01*
X93044819Y-94296666D02*
X92568628Y-94629999D01*
X93044819Y-94868094D02*
X92044819Y-94868094D01*
X92044819Y-94868094D02*
X92044819Y-94487142D01*
X92044819Y-94487142D02*
X92092438Y-94391904D01*
X92092438Y-94391904D02*
X92140057Y-94344285D01*
X92140057Y-94344285D02*
X92235295Y-94296666D01*
X92235295Y-94296666D02*
X92378152Y-94296666D01*
X92378152Y-94296666D02*
X92473390Y-94344285D01*
X92473390Y-94344285D02*
X92521009Y-94391904D01*
X92521009Y-94391904D02*
X92568628Y-94487142D01*
X92568628Y-94487142D02*
X92568628Y-94868094D01*
X92473390Y-93725237D02*
X92425771Y-93820475D01*
X92425771Y-93820475D02*
X92378152Y-93868094D01*
X92378152Y-93868094D02*
X92282914Y-93915713D01*
X92282914Y-93915713D02*
X92235295Y-93915713D01*
X92235295Y-93915713D02*
X92140057Y-93868094D01*
X92140057Y-93868094D02*
X92092438Y-93820475D01*
X92092438Y-93820475D02*
X92044819Y-93725237D01*
X92044819Y-93725237D02*
X92044819Y-93534761D01*
X92044819Y-93534761D02*
X92092438Y-93439523D01*
X92092438Y-93439523D02*
X92140057Y-93391904D01*
X92140057Y-93391904D02*
X92235295Y-93344285D01*
X92235295Y-93344285D02*
X92282914Y-93344285D01*
X92282914Y-93344285D02*
X92378152Y-93391904D01*
X92378152Y-93391904D02*
X92425771Y-93439523D01*
X92425771Y-93439523D02*
X92473390Y-93534761D01*
X92473390Y-93534761D02*
X92473390Y-93725237D01*
X92473390Y-93725237D02*
X92521009Y-93820475D01*
X92521009Y-93820475D02*
X92568628Y-93868094D01*
X92568628Y-93868094D02*
X92663866Y-93915713D01*
X92663866Y-93915713D02*
X92854342Y-93915713D01*
X92854342Y-93915713D02*
X92949580Y-93868094D01*
X92949580Y-93868094D02*
X92997200Y-93820475D01*
X92997200Y-93820475D02*
X93044819Y-93725237D01*
X93044819Y-93725237D02*
X93044819Y-93534761D01*
X93044819Y-93534761D02*
X92997200Y-93439523D01*
X92997200Y-93439523D02*
X92949580Y-93391904D01*
X92949580Y-93391904D02*
X92854342Y-93344285D01*
X92854342Y-93344285D02*
X92663866Y-93344285D01*
X92663866Y-93344285D02*
X92568628Y-93391904D01*
X92568628Y-93391904D02*
X92521009Y-93439523D01*
X92521009Y-93439523D02*
X92473390Y-93534761D01*
X108363333Y-95639580D02*
X108315714Y-95687200D01*
X108315714Y-95687200D02*
X108172857Y-95734819D01*
X108172857Y-95734819D02*
X108077619Y-95734819D01*
X108077619Y-95734819D02*
X107934762Y-95687200D01*
X107934762Y-95687200D02*
X107839524Y-95591961D01*
X107839524Y-95591961D02*
X107791905Y-95496723D01*
X107791905Y-95496723D02*
X107744286Y-95306247D01*
X107744286Y-95306247D02*
X107744286Y-95163390D01*
X107744286Y-95163390D02*
X107791905Y-94972914D01*
X107791905Y-94972914D02*
X107839524Y-94877676D01*
X107839524Y-94877676D02*
X107934762Y-94782438D01*
X107934762Y-94782438D02*
X108077619Y-94734819D01*
X108077619Y-94734819D02*
X108172857Y-94734819D01*
X108172857Y-94734819D02*
X108315714Y-94782438D01*
X108315714Y-94782438D02*
X108363333Y-94830057D01*
X109268095Y-94734819D02*
X108791905Y-94734819D01*
X108791905Y-94734819D02*
X108744286Y-95211009D01*
X108744286Y-95211009D02*
X108791905Y-95163390D01*
X108791905Y-95163390D02*
X108887143Y-95115771D01*
X108887143Y-95115771D02*
X109125238Y-95115771D01*
X109125238Y-95115771D02*
X109220476Y-95163390D01*
X109220476Y-95163390D02*
X109268095Y-95211009D01*
X109268095Y-95211009D02*
X109315714Y-95306247D01*
X109315714Y-95306247D02*
X109315714Y-95544342D01*
X109315714Y-95544342D02*
X109268095Y-95639580D01*
X109268095Y-95639580D02*
X109220476Y-95687200D01*
X109220476Y-95687200D02*
X109125238Y-95734819D01*
X109125238Y-95734819D02*
X108887143Y-95734819D01*
X108887143Y-95734819D02*
X108791905Y-95687200D01*
X108791905Y-95687200D02*
X108744286Y-95639580D01*
X107213333Y-101289580D02*
X107165714Y-101337200D01*
X107165714Y-101337200D02*
X107022857Y-101384819D01*
X107022857Y-101384819D02*
X106927619Y-101384819D01*
X106927619Y-101384819D02*
X106784762Y-101337200D01*
X106784762Y-101337200D02*
X106689524Y-101241961D01*
X106689524Y-101241961D02*
X106641905Y-101146723D01*
X106641905Y-101146723D02*
X106594286Y-100956247D01*
X106594286Y-100956247D02*
X106594286Y-100813390D01*
X106594286Y-100813390D02*
X106641905Y-100622914D01*
X106641905Y-100622914D02*
X106689524Y-100527676D01*
X106689524Y-100527676D02*
X106784762Y-100432438D01*
X106784762Y-100432438D02*
X106927619Y-100384819D01*
X106927619Y-100384819D02*
X107022857Y-100384819D01*
X107022857Y-100384819D02*
X107165714Y-100432438D01*
X107165714Y-100432438D02*
X107213333Y-100480057D01*
X107546667Y-100384819D02*
X108165714Y-100384819D01*
X108165714Y-100384819D02*
X107832381Y-100765771D01*
X107832381Y-100765771D02*
X107975238Y-100765771D01*
X107975238Y-100765771D02*
X108070476Y-100813390D01*
X108070476Y-100813390D02*
X108118095Y-100861009D01*
X108118095Y-100861009D02*
X108165714Y-100956247D01*
X108165714Y-100956247D02*
X108165714Y-101194342D01*
X108165714Y-101194342D02*
X108118095Y-101289580D01*
X108118095Y-101289580D02*
X108070476Y-101337200D01*
X108070476Y-101337200D02*
X107975238Y-101384819D01*
X107975238Y-101384819D02*
X107689524Y-101384819D01*
X107689524Y-101384819D02*
X107594286Y-101337200D01*
X107594286Y-101337200D02*
X107546667Y-101289580D01*
X83954819Y-85186666D02*
X83478628Y-85519999D01*
X83954819Y-85758094D02*
X82954819Y-85758094D01*
X82954819Y-85758094D02*
X82954819Y-85377142D01*
X82954819Y-85377142D02*
X83002438Y-85281904D01*
X83002438Y-85281904D02*
X83050057Y-85234285D01*
X83050057Y-85234285D02*
X83145295Y-85186666D01*
X83145295Y-85186666D02*
X83288152Y-85186666D01*
X83288152Y-85186666D02*
X83383390Y-85234285D01*
X83383390Y-85234285D02*
X83431009Y-85281904D01*
X83431009Y-85281904D02*
X83478628Y-85377142D01*
X83478628Y-85377142D02*
X83478628Y-85758094D01*
X83050057Y-84805713D02*
X83002438Y-84758094D01*
X83002438Y-84758094D02*
X82954819Y-84662856D01*
X82954819Y-84662856D02*
X82954819Y-84424761D01*
X82954819Y-84424761D02*
X83002438Y-84329523D01*
X83002438Y-84329523D02*
X83050057Y-84281904D01*
X83050057Y-84281904D02*
X83145295Y-84234285D01*
X83145295Y-84234285D02*
X83240533Y-84234285D01*
X83240533Y-84234285D02*
X83383390Y-84281904D01*
X83383390Y-84281904D02*
X83954819Y-84853332D01*
X83954819Y-84853332D02*
X83954819Y-84234285D01*
X88684819Y-94041904D02*
X89494342Y-94041904D01*
X89494342Y-94041904D02*
X89589580Y-93994285D01*
X89589580Y-93994285D02*
X89637200Y-93946666D01*
X89637200Y-93946666D02*
X89684819Y-93851428D01*
X89684819Y-93851428D02*
X89684819Y-93660952D01*
X89684819Y-93660952D02*
X89637200Y-93565714D01*
X89637200Y-93565714D02*
X89589580Y-93518095D01*
X89589580Y-93518095D02*
X89494342Y-93470476D01*
X89494342Y-93470476D02*
X88684819Y-93470476D01*
X89684819Y-92470476D02*
X89684819Y-93041904D01*
X89684819Y-92756190D02*
X88684819Y-92756190D01*
X88684819Y-92756190D02*
X88827676Y-92851428D01*
X88827676Y-92851428D02*
X88922914Y-92946666D01*
X88922914Y-92946666D02*
X88970533Y-93041904D01*
X84637619Y-90154819D02*
X84637619Y-89154819D01*
X84637619Y-89154819D02*
X85209047Y-90154819D01*
X85209047Y-90154819D02*
X85209047Y-89154819D01*
X86256666Y-90059580D02*
X86209047Y-90107200D01*
X86209047Y-90107200D02*
X86066190Y-90154819D01*
X86066190Y-90154819D02*
X85970952Y-90154819D01*
X85970952Y-90154819D02*
X85828095Y-90107200D01*
X85828095Y-90107200D02*
X85732857Y-90011961D01*
X85732857Y-90011961D02*
X85685238Y-89916723D01*
X85685238Y-89916723D02*
X85637619Y-89726247D01*
X85637619Y-89726247D02*
X85637619Y-89583390D01*
X85637619Y-89583390D02*
X85685238Y-89392914D01*
X85685238Y-89392914D02*
X85732857Y-89297676D01*
X85732857Y-89297676D02*
X85828095Y-89202438D01*
X85828095Y-89202438D02*
X85970952Y-89154819D01*
X85970952Y-89154819D02*
X86066190Y-89154819D01*
X86066190Y-89154819D02*
X86209047Y-89202438D01*
X86209047Y-89202438D02*
X86256666Y-89250057D01*
X86542381Y-89154819D02*
X86875714Y-90154819D01*
X86875714Y-90154819D02*
X87209047Y-89154819D01*
X87447143Y-89154819D02*
X88066190Y-89154819D01*
X88066190Y-89154819D02*
X87732857Y-89535771D01*
X87732857Y-89535771D02*
X87875714Y-89535771D01*
X87875714Y-89535771D02*
X87970952Y-89583390D01*
X87970952Y-89583390D02*
X88018571Y-89631009D01*
X88018571Y-89631009D02*
X88066190Y-89726247D01*
X88066190Y-89726247D02*
X88066190Y-89964342D01*
X88066190Y-89964342D02*
X88018571Y-90059580D01*
X88018571Y-90059580D02*
X87970952Y-90107200D01*
X87970952Y-90107200D02*
X87875714Y-90154819D01*
X87875714Y-90154819D02*
X87590000Y-90154819D01*
X87590000Y-90154819D02*
X87494762Y-90107200D01*
X87494762Y-90107200D02*
X87447143Y-90059580D01*
X88685238Y-89154819D02*
X88780476Y-89154819D01*
X88780476Y-89154819D02*
X88875714Y-89202438D01*
X88875714Y-89202438D02*
X88923333Y-89250057D01*
X88923333Y-89250057D02*
X88970952Y-89345295D01*
X88970952Y-89345295D02*
X89018571Y-89535771D01*
X89018571Y-89535771D02*
X89018571Y-89773866D01*
X89018571Y-89773866D02*
X88970952Y-89964342D01*
X88970952Y-89964342D02*
X88923333Y-90059580D01*
X88923333Y-90059580D02*
X88875714Y-90107200D01*
X88875714Y-90107200D02*
X88780476Y-90154819D01*
X88780476Y-90154819D02*
X88685238Y-90154819D01*
X88685238Y-90154819D02*
X88590000Y-90107200D01*
X88590000Y-90107200D02*
X88542381Y-90059580D01*
X88542381Y-90059580D02*
X88494762Y-89964342D01*
X88494762Y-89964342D02*
X88447143Y-89773866D01*
X88447143Y-89773866D02*
X88447143Y-89535771D01*
X88447143Y-89535771D02*
X88494762Y-89345295D01*
X88494762Y-89345295D02*
X88542381Y-89250057D01*
X88542381Y-89250057D02*
X88590000Y-89202438D01*
X88590000Y-89202438D02*
X88685238Y-89154819D01*
X89590000Y-89583390D02*
X89494762Y-89535771D01*
X89494762Y-89535771D02*
X89447143Y-89488152D01*
X89447143Y-89488152D02*
X89399524Y-89392914D01*
X89399524Y-89392914D02*
X89399524Y-89345295D01*
X89399524Y-89345295D02*
X89447143Y-89250057D01*
X89447143Y-89250057D02*
X89494762Y-89202438D01*
X89494762Y-89202438D02*
X89590000Y-89154819D01*
X89590000Y-89154819D02*
X89780476Y-89154819D01*
X89780476Y-89154819D02*
X89875714Y-89202438D01*
X89875714Y-89202438D02*
X89923333Y-89250057D01*
X89923333Y-89250057D02*
X89970952Y-89345295D01*
X89970952Y-89345295D02*
X89970952Y-89392914D01*
X89970952Y-89392914D02*
X89923333Y-89488152D01*
X89923333Y-89488152D02*
X89875714Y-89535771D01*
X89875714Y-89535771D02*
X89780476Y-89583390D01*
X89780476Y-89583390D02*
X89590000Y-89583390D01*
X89590000Y-89583390D02*
X89494762Y-89631009D01*
X89494762Y-89631009D02*
X89447143Y-89678628D01*
X89447143Y-89678628D02*
X89399524Y-89773866D01*
X89399524Y-89773866D02*
X89399524Y-89964342D01*
X89399524Y-89964342D02*
X89447143Y-90059580D01*
X89447143Y-90059580D02*
X89494762Y-90107200D01*
X89494762Y-90107200D02*
X89590000Y-90154819D01*
X89590000Y-90154819D02*
X89780476Y-90154819D01*
X89780476Y-90154819D02*
X89875714Y-90107200D01*
X89875714Y-90107200D02*
X89923333Y-90059580D01*
X89923333Y-90059580D02*
X89970952Y-89964342D01*
X89970952Y-89964342D02*
X89970952Y-89773866D01*
X89970952Y-89773866D02*
X89923333Y-89678628D01*
X89923333Y-89678628D02*
X89875714Y-89631009D01*
X89875714Y-89631009D02*
X89780476Y-89583390D01*
X90351905Y-89869104D02*
X90828095Y-89869104D01*
X90256667Y-90154819D02*
X90590000Y-89154819D01*
X90590000Y-89154819D02*
X90923333Y-90154819D01*
X91256667Y-90154819D02*
X91256667Y-89154819D01*
X91256667Y-89154819D02*
X91494762Y-89154819D01*
X91494762Y-89154819D02*
X91637619Y-89202438D01*
X91637619Y-89202438D02*
X91732857Y-89297676D01*
X91732857Y-89297676D02*
X91780476Y-89392914D01*
X91780476Y-89392914D02*
X91828095Y-89583390D01*
X91828095Y-89583390D02*
X91828095Y-89726247D01*
X91828095Y-89726247D02*
X91780476Y-89916723D01*
X91780476Y-89916723D02*
X91732857Y-90011961D01*
X91732857Y-90011961D02*
X91637619Y-90107200D01*
X91637619Y-90107200D02*
X91494762Y-90154819D01*
X91494762Y-90154819D02*
X91256667Y-90154819D01*
X92542381Y-89154819D02*
X92542381Y-89869104D01*
X92542381Y-89869104D02*
X92494762Y-90011961D01*
X92494762Y-90011961D02*
X92399524Y-90107200D01*
X92399524Y-90107200D02*
X92256667Y-90154819D01*
X92256667Y-90154819D02*
X92161429Y-90154819D01*
X102827142Y-90034819D02*
X102493809Y-89558628D01*
X102255714Y-90034819D02*
X102255714Y-89034819D01*
X102255714Y-89034819D02*
X102636666Y-89034819D01*
X102636666Y-89034819D02*
X102731904Y-89082438D01*
X102731904Y-89082438D02*
X102779523Y-89130057D01*
X102779523Y-89130057D02*
X102827142Y-89225295D01*
X102827142Y-89225295D02*
X102827142Y-89368152D01*
X102827142Y-89368152D02*
X102779523Y-89463390D01*
X102779523Y-89463390D02*
X102731904Y-89511009D01*
X102731904Y-89511009D02*
X102636666Y-89558628D01*
X102636666Y-89558628D02*
X102255714Y-89558628D01*
X103779523Y-90034819D02*
X103208095Y-90034819D01*
X103493809Y-90034819D02*
X103493809Y-89034819D01*
X103493809Y-89034819D02*
X103398571Y-89177676D01*
X103398571Y-89177676D02*
X103303333Y-89272914D01*
X103303333Y-89272914D02*
X103208095Y-89320533D01*
X104160476Y-89130057D02*
X104208095Y-89082438D01*
X104208095Y-89082438D02*
X104303333Y-89034819D01*
X104303333Y-89034819D02*
X104541428Y-89034819D01*
X104541428Y-89034819D02*
X104636666Y-89082438D01*
X104636666Y-89082438D02*
X104684285Y-89130057D01*
X104684285Y-89130057D02*
X104731904Y-89225295D01*
X104731904Y-89225295D02*
X104731904Y-89320533D01*
X104731904Y-89320533D02*
X104684285Y-89463390D01*
X104684285Y-89463390D02*
X104112857Y-90034819D01*
X104112857Y-90034819D02*
X104731904Y-90034819D01*
X122949761Y-87734819D02*
X122616428Y-87258628D01*
X122378333Y-87734819D02*
X122378333Y-86734819D01*
X122378333Y-86734819D02*
X122759285Y-86734819D01*
X122759285Y-86734819D02*
X122854523Y-86782438D01*
X122854523Y-86782438D02*
X122902142Y-86830057D01*
X122902142Y-86830057D02*
X122949761Y-86925295D01*
X122949761Y-86925295D02*
X122949761Y-87068152D01*
X122949761Y-87068152D02*
X122902142Y-87163390D01*
X122902142Y-87163390D02*
X122854523Y-87211009D01*
X122854523Y-87211009D02*
X122759285Y-87258628D01*
X122759285Y-87258628D02*
X122378333Y-87258628D01*
X123235476Y-86734819D02*
X123568809Y-87734819D01*
X123568809Y-87734819D02*
X123902142Y-86734819D01*
X124187857Y-86830057D02*
X124235476Y-86782438D01*
X124235476Y-86782438D02*
X124330714Y-86734819D01*
X124330714Y-86734819D02*
X124568809Y-86734819D01*
X124568809Y-86734819D02*
X124664047Y-86782438D01*
X124664047Y-86782438D02*
X124711666Y-86830057D01*
X124711666Y-86830057D02*
X124759285Y-86925295D01*
X124759285Y-86925295D02*
X124759285Y-87020533D01*
X124759285Y-87020533D02*
X124711666Y-87163390D01*
X124711666Y-87163390D02*
X124140238Y-87734819D01*
X124140238Y-87734819D02*
X124759285Y-87734819D01*
X94717557Y-92045238D02*
X94669938Y-92140476D01*
X94669938Y-92140476D02*
X94574700Y-92235714D01*
X94574700Y-92235714D02*
X94431842Y-92378571D01*
X94431842Y-92378571D02*
X94384223Y-92473809D01*
X94384223Y-92473809D02*
X94384223Y-92569047D01*
X94622319Y-92521428D02*
X94574700Y-92616666D01*
X94574700Y-92616666D02*
X94479461Y-92711904D01*
X94479461Y-92711904D02*
X94288985Y-92759523D01*
X94288985Y-92759523D02*
X93955652Y-92759523D01*
X93955652Y-92759523D02*
X93765176Y-92711904D01*
X93765176Y-92711904D02*
X93669938Y-92616666D01*
X93669938Y-92616666D02*
X93622319Y-92521428D01*
X93622319Y-92521428D02*
X93622319Y-92330952D01*
X93622319Y-92330952D02*
X93669938Y-92235714D01*
X93669938Y-92235714D02*
X93765176Y-92140476D01*
X93765176Y-92140476D02*
X93955652Y-92092857D01*
X93955652Y-92092857D02*
X94288985Y-92092857D01*
X94288985Y-92092857D02*
X94479461Y-92140476D01*
X94479461Y-92140476D02*
X94574700Y-92235714D01*
X94574700Y-92235714D02*
X94622319Y-92330952D01*
X94622319Y-92330952D02*
X94622319Y-92521428D01*
X94622319Y-91140476D02*
X94622319Y-91711904D01*
X94622319Y-91426190D02*
X93622319Y-91426190D01*
X93622319Y-91426190D02*
X93765176Y-91521428D01*
X93765176Y-91521428D02*
X93860414Y-91616666D01*
X93860414Y-91616666D02*
X93908033Y-91711904D01*
X94130952Y-89319104D02*
X94607142Y-89319104D01*
X94035714Y-89604819D02*
X94369047Y-88604819D01*
X94369047Y-88604819D02*
X94702380Y-89604819D01*
X95226190Y-88604819D02*
X95321428Y-88604819D01*
X95321428Y-88604819D02*
X95416666Y-88652438D01*
X95416666Y-88652438D02*
X95464285Y-88700057D01*
X95464285Y-88700057D02*
X95511904Y-88795295D01*
X95511904Y-88795295D02*
X95559523Y-88985771D01*
X95559523Y-88985771D02*
X95559523Y-89223866D01*
X95559523Y-89223866D02*
X95511904Y-89414342D01*
X95511904Y-89414342D02*
X95464285Y-89509580D01*
X95464285Y-89509580D02*
X95416666Y-89557200D01*
X95416666Y-89557200D02*
X95321428Y-89604819D01*
X95321428Y-89604819D02*
X95226190Y-89604819D01*
X95226190Y-89604819D02*
X95130952Y-89557200D01*
X95130952Y-89557200D02*
X95083333Y-89509580D01*
X95083333Y-89509580D02*
X95035714Y-89414342D01*
X95035714Y-89414342D02*
X94988095Y-89223866D01*
X94988095Y-89223866D02*
X94988095Y-88985771D01*
X94988095Y-88985771D02*
X95035714Y-88795295D01*
X95035714Y-88795295D02*
X95083333Y-88700057D01*
X95083333Y-88700057D02*
X95130952Y-88652438D01*
X95130952Y-88652438D02*
X95226190Y-88604819D01*
X95892857Y-88604819D02*
X96511904Y-88604819D01*
X96511904Y-88604819D02*
X96178571Y-88985771D01*
X96178571Y-88985771D02*
X96321428Y-88985771D01*
X96321428Y-88985771D02*
X96416666Y-89033390D01*
X96416666Y-89033390D02*
X96464285Y-89081009D01*
X96464285Y-89081009D02*
X96511904Y-89176247D01*
X96511904Y-89176247D02*
X96511904Y-89414342D01*
X96511904Y-89414342D02*
X96464285Y-89509580D01*
X96464285Y-89509580D02*
X96416666Y-89557200D01*
X96416666Y-89557200D02*
X96321428Y-89604819D01*
X96321428Y-89604819D02*
X96035714Y-89604819D01*
X96035714Y-89604819D02*
X95940476Y-89557200D01*
X95940476Y-89557200D02*
X95892857Y-89509580D01*
X97369047Y-88938152D02*
X97369047Y-89604819D01*
X97130952Y-88557200D02*
X96892857Y-89271485D01*
X96892857Y-89271485D02*
X97511904Y-89271485D01*
X98083333Y-88604819D02*
X98178571Y-88604819D01*
X98178571Y-88604819D02*
X98273809Y-88652438D01*
X98273809Y-88652438D02*
X98321428Y-88700057D01*
X98321428Y-88700057D02*
X98369047Y-88795295D01*
X98369047Y-88795295D02*
X98416666Y-88985771D01*
X98416666Y-88985771D02*
X98416666Y-89223866D01*
X98416666Y-89223866D02*
X98369047Y-89414342D01*
X98369047Y-89414342D02*
X98321428Y-89509580D01*
X98321428Y-89509580D02*
X98273809Y-89557200D01*
X98273809Y-89557200D02*
X98178571Y-89604819D01*
X98178571Y-89604819D02*
X98083333Y-89604819D01*
X98083333Y-89604819D02*
X97988095Y-89557200D01*
X97988095Y-89557200D02*
X97940476Y-89509580D01*
X97940476Y-89509580D02*
X97892857Y-89414342D01*
X97892857Y-89414342D02*
X97845238Y-89223866D01*
X97845238Y-89223866D02*
X97845238Y-88985771D01*
X97845238Y-88985771D02*
X97892857Y-88795295D01*
X97892857Y-88795295D02*
X97940476Y-88700057D01*
X97940476Y-88700057D02*
X97988095Y-88652438D01*
X97988095Y-88652438D02*
X98083333Y-88604819D01*
X99035714Y-88604819D02*
X99130952Y-88604819D01*
X99130952Y-88604819D02*
X99226190Y-88652438D01*
X99226190Y-88652438D02*
X99273809Y-88700057D01*
X99273809Y-88700057D02*
X99321428Y-88795295D01*
X99321428Y-88795295D02*
X99369047Y-88985771D01*
X99369047Y-88985771D02*
X99369047Y-89223866D01*
X99369047Y-89223866D02*
X99321428Y-89414342D01*
X99321428Y-89414342D02*
X99273809Y-89509580D01*
X99273809Y-89509580D02*
X99226190Y-89557200D01*
X99226190Y-89557200D02*
X99130952Y-89604819D01*
X99130952Y-89604819D02*
X99035714Y-89604819D01*
X99035714Y-89604819D02*
X98940476Y-89557200D01*
X98940476Y-89557200D02*
X98892857Y-89509580D01*
X98892857Y-89509580D02*
X98845238Y-89414342D01*
X98845238Y-89414342D02*
X98797619Y-89223866D01*
X98797619Y-89223866D02*
X98797619Y-88985771D01*
X98797619Y-88985771D02*
X98845238Y-88795295D01*
X98845238Y-88795295D02*
X98892857Y-88700057D01*
X98892857Y-88700057D02*
X98940476Y-88652438D01*
X98940476Y-88652438D02*
X99035714Y-88604819D01*
X128059580Y-108666666D02*
X128107200Y-108714285D01*
X128107200Y-108714285D02*
X128154819Y-108857142D01*
X128154819Y-108857142D02*
X128154819Y-108952380D01*
X128154819Y-108952380D02*
X128107200Y-109095237D01*
X128107200Y-109095237D02*
X128011961Y-109190475D01*
X128011961Y-109190475D02*
X127916723Y-109238094D01*
X127916723Y-109238094D02*
X127726247Y-109285713D01*
X127726247Y-109285713D02*
X127583390Y-109285713D01*
X127583390Y-109285713D02*
X127392914Y-109238094D01*
X127392914Y-109238094D02*
X127297676Y-109190475D01*
X127297676Y-109190475D02*
X127202438Y-109095237D01*
X127202438Y-109095237D02*
X127154819Y-108952380D01*
X127154819Y-108952380D02*
X127154819Y-108857142D01*
X127154819Y-108857142D02*
X127202438Y-108714285D01*
X127202438Y-108714285D02*
X127250057Y-108666666D01*
X127583390Y-108095237D02*
X127535771Y-108190475D01*
X127535771Y-108190475D02*
X127488152Y-108238094D01*
X127488152Y-108238094D02*
X127392914Y-108285713D01*
X127392914Y-108285713D02*
X127345295Y-108285713D01*
X127345295Y-108285713D02*
X127250057Y-108238094D01*
X127250057Y-108238094D02*
X127202438Y-108190475D01*
X127202438Y-108190475D02*
X127154819Y-108095237D01*
X127154819Y-108095237D02*
X127154819Y-107904761D01*
X127154819Y-107904761D02*
X127202438Y-107809523D01*
X127202438Y-107809523D02*
X127250057Y-107761904D01*
X127250057Y-107761904D02*
X127345295Y-107714285D01*
X127345295Y-107714285D02*
X127392914Y-107714285D01*
X127392914Y-107714285D02*
X127488152Y-107761904D01*
X127488152Y-107761904D02*
X127535771Y-107809523D01*
X127535771Y-107809523D02*
X127583390Y-107904761D01*
X127583390Y-107904761D02*
X127583390Y-108095237D01*
X127583390Y-108095237D02*
X127631009Y-108190475D01*
X127631009Y-108190475D02*
X127678628Y-108238094D01*
X127678628Y-108238094D02*
X127773866Y-108285713D01*
X127773866Y-108285713D02*
X127964342Y-108285713D01*
X127964342Y-108285713D02*
X128059580Y-108238094D01*
X128059580Y-108238094D02*
X128107200Y-108190475D01*
X128107200Y-108190475D02*
X128154819Y-108095237D01*
X128154819Y-108095237D02*
X128154819Y-107904761D01*
X128154819Y-107904761D02*
X128107200Y-107809523D01*
X128107200Y-107809523D02*
X128059580Y-107761904D01*
X128059580Y-107761904D02*
X127964342Y-107714285D01*
X127964342Y-107714285D02*
X127773866Y-107714285D01*
X127773866Y-107714285D02*
X127678628Y-107761904D01*
X127678628Y-107761904D02*
X127631009Y-107809523D01*
X127631009Y-107809523D02*
X127583390Y-107904761D01*
X132754819Y-92832857D02*
X132278628Y-93166190D01*
X132754819Y-93404285D02*
X131754819Y-93404285D01*
X131754819Y-93404285D02*
X131754819Y-93023333D01*
X131754819Y-93023333D02*
X131802438Y-92928095D01*
X131802438Y-92928095D02*
X131850057Y-92880476D01*
X131850057Y-92880476D02*
X131945295Y-92832857D01*
X131945295Y-92832857D02*
X132088152Y-92832857D01*
X132088152Y-92832857D02*
X132183390Y-92880476D01*
X132183390Y-92880476D02*
X132231009Y-92928095D01*
X132231009Y-92928095D02*
X132278628Y-93023333D01*
X132278628Y-93023333D02*
X132278628Y-93404285D01*
X132754819Y-91880476D02*
X132754819Y-92451904D01*
X132754819Y-92166190D02*
X131754819Y-92166190D01*
X131754819Y-92166190D02*
X131897676Y-92261428D01*
X131897676Y-92261428D02*
X131992914Y-92356666D01*
X131992914Y-92356666D02*
X132040533Y-92451904D01*
X131754819Y-90975714D02*
X131754819Y-91451904D01*
X131754819Y-91451904D02*
X132231009Y-91499523D01*
X132231009Y-91499523D02*
X132183390Y-91451904D01*
X132183390Y-91451904D02*
X132135771Y-91356666D01*
X132135771Y-91356666D02*
X132135771Y-91118571D01*
X132135771Y-91118571D02*
X132183390Y-91023333D01*
X132183390Y-91023333D02*
X132231009Y-90975714D01*
X132231009Y-90975714D02*
X132326247Y-90928095D01*
X132326247Y-90928095D02*
X132564342Y-90928095D01*
X132564342Y-90928095D02*
X132659580Y-90975714D01*
X132659580Y-90975714D02*
X132707200Y-91023333D01*
X132707200Y-91023333D02*
X132754819Y-91118571D01*
X132754819Y-91118571D02*
X132754819Y-91356666D01*
X132754819Y-91356666D02*
X132707200Y-91451904D01*
X132707200Y-91451904D02*
X132659580Y-91499523D01*
D14*
%TO.C,3V1*%
X128940000Y-83780000D02*
G75*
G02*
X127540000Y-83780000I-700000J0D01*
G01*
X127540000Y-83780000D02*
G75*
G02*
X128940000Y-83780000I700000J0D01*
G01*
%TO.C,C7*%
X110110000Y-72310000D02*
X110110000Y-75260000D01*
X110110000Y-80830000D02*
X110110000Y-77880000D01*
X117565563Y-72310000D02*
X110110000Y-72310000D01*
X117565563Y-80830000D02*
X110110000Y-80830000D01*
X118630000Y-73374437D02*
X117565563Y-72310000D01*
X118630000Y-73374437D02*
X118630000Y-75260000D01*
X118630000Y-79765563D02*
X117565563Y-80830000D01*
X118630000Y-79765563D02*
X118630000Y-77880000D01*
%TO.C,R9*%
X91735000Y-101947064D02*
X91735000Y-101492936D01*
X93205000Y-101947064D02*
X93205000Y-101492936D01*
%TO.C,R1*%
X80275000Y-87932936D02*
X80275000Y-88387064D01*
X81745000Y-87932936D02*
X81745000Y-88387064D01*
%TO.C,J4*%
X127120000Y-122410000D02*
X127120000Y-124910000D01*
X127120000Y-124910000D02*
X129620000Y-124910000D01*
X127420000Y-120590000D02*
X127420000Y-124610000D01*
X127420000Y-122300000D02*
X127920000Y-122300000D01*
X127420000Y-123110000D02*
X128420000Y-123110000D01*
X127420000Y-124610000D02*
X135140000Y-124610000D01*
X127920000Y-121090000D02*
X134640000Y-121090000D01*
X127920000Y-122300000D02*
X127920000Y-121090000D01*
X128420000Y-123110000D02*
X128420000Y-124610000D01*
X134140000Y-123110000D02*
X134140000Y-124610000D01*
X134640000Y-121090000D02*
X134640000Y-122300000D01*
X134640000Y-122300000D02*
X135140000Y-122300000D01*
X135140000Y-120590000D02*
X127420000Y-120590000D01*
X135140000Y-123110000D02*
X134140000Y-123110000D01*
X135140000Y-124610000D02*
X135140000Y-120590000D01*
%TO.C,J1*%
X79972500Y-115520000D02*
X88392500Y-115520000D01*
X79972500Y-123240000D02*
X79972500Y-115520000D01*
X81192500Y-115520000D02*
X81192500Y-116740000D01*
X81192500Y-116740000D02*
X86192500Y-116740000D01*
X81192500Y-122020000D02*
X86192500Y-122020000D01*
X81192500Y-123240000D02*
X81192500Y-122020000D01*
X81692500Y-118130000D02*
X81772500Y-117810000D01*
X81692500Y-120630000D02*
X81772500Y-120310000D01*
X81772500Y-117810000D02*
X85192500Y-117810000D01*
X81772500Y-118450000D02*
X81692500Y-118130000D01*
X81772500Y-120310000D02*
X85192500Y-120310000D01*
X81772500Y-120950000D02*
X81692500Y-120630000D01*
X85192500Y-117810000D02*
X85192500Y-118130000D01*
X85192500Y-118130000D02*
X85192500Y-118450000D01*
X85192500Y-118450000D02*
X81772500Y-118450000D01*
X85192500Y-120310000D02*
X85192500Y-120630000D01*
X85192500Y-120630000D02*
X85192500Y-120950000D01*
X85192500Y-120950000D02*
X81772500Y-120950000D01*
X85192500Y-122020000D02*
X85192500Y-116740000D01*
X86192500Y-116740000D02*
X86192500Y-115520000D01*
X86192500Y-119460000D02*
X86192500Y-119300000D01*
X86192500Y-122020000D02*
X86192500Y-123240000D01*
X86192500Y-122020000D02*
X88392500Y-122020000D01*
X88282500Y-120630000D02*
X88882500Y-120930000D01*
X88392500Y-115520000D02*
X88392500Y-116740000D01*
X88392500Y-116740000D02*
X86192500Y-116740000D01*
X88392500Y-122020000D02*
X88392500Y-123240000D01*
X88392500Y-123240000D02*
X79972500Y-123240000D01*
X88882500Y-120330000D02*
X88282500Y-120630000D01*
X88882500Y-120930000D02*
X88882500Y-120330000D01*
%TO.C,C9*%
X86628748Y-95665000D02*
X87151252Y-95665000D01*
X86628748Y-97135000D02*
X87151252Y-97135000D01*
%TO.C,U3*%
X133025000Y-108400000D02*
X133025000Y-82970000D01*
X133025000Y-108400000D02*
X135565000Y-108400000D01*
X135565000Y-108400000D02*
X135565000Y-115300000D01*
X135565000Y-115300000D02*
X158885000Y-115300000D01*
X156765000Y-80840000D02*
X135155000Y-80840000D01*
X158885000Y-115300000D02*
X158885000Y-82970000D01*
X133025000Y-82970000D02*
G75*
G02*
X135155000Y-80840000I2130002J-2D01*
G01*
X156755000Y-80840000D02*
G75*
G02*
X158885000Y-82970000I0J-2130000D01*
G01*
D13*
X132620000Y-89180000D02*
X131985000Y-89815000D01*
X131985000Y-88545000D01*
X132620000Y-89180000D01*
G36*
X132620000Y-89180000D02*
G01*
X131985000Y-89815000D01*
X131985000Y-88545000D01*
X132620000Y-89180000D01*
G37*
D14*
%TO.C,Q2*%
X122040000Y-78360000D02*
X122040000Y-77710000D01*
X122040000Y-78360000D02*
X122040000Y-79010000D01*
X125160000Y-78360000D02*
X125160000Y-77710000D01*
X125160000Y-78360000D02*
X125160000Y-79010000D01*
X122090000Y-79522500D02*
X121760000Y-79762500D01*
X121760000Y-79282500D01*
X122090000Y-79522500D01*
G36*
X122090000Y-79522500D02*
G01*
X121760000Y-79762500D01*
X121760000Y-79282500D01*
X122090000Y-79522500D01*
G37*
%TO.C,C4*%
X99875000Y-94121252D02*
X99875000Y-93598748D01*
X101345000Y-94121252D02*
X101345000Y-93598748D01*
%TO.C,J5*%
X152420000Y-73820000D02*
X152420000Y-74420000D01*
X152420000Y-74420000D02*
X153020000Y-74120000D01*
X152910000Y-71510000D02*
X161330000Y-71510000D01*
X152910000Y-72730000D02*
X152910000Y-71510000D01*
X152910000Y-78010000D02*
X155110000Y-78010000D01*
X152910000Y-79230000D02*
X152910000Y-78010000D01*
X153020000Y-74120000D02*
X152420000Y-73820000D01*
X155110000Y-72730000D02*
X152910000Y-72730000D01*
X155110000Y-72730000D02*
X155110000Y-71510000D01*
X155110000Y-75290000D02*
X155110000Y-75450000D01*
X155110000Y-78010000D02*
X155110000Y-79230000D01*
X156110000Y-72730000D02*
X156110000Y-78010000D01*
X156110000Y-73800000D02*
X159530000Y-73800000D01*
X156110000Y-74120000D02*
X156110000Y-73800000D01*
X156110000Y-74440000D02*
X156110000Y-74120000D01*
X156110000Y-76300000D02*
X159530000Y-76300000D01*
X156110000Y-76620000D02*
X156110000Y-76300000D01*
X156110000Y-76940000D02*
X156110000Y-76620000D01*
X159530000Y-73800000D02*
X159610000Y-74120000D01*
X159530000Y-74440000D02*
X156110000Y-74440000D01*
X159530000Y-76300000D02*
X159610000Y-76620000D01*
X159530000Y-76940000D02*
X156110000Y-76940000D01*
X159610000Y-74120000D02*
X159530000Y-74440000D01*
X159610000Y-76620000D02*
X159530000Y-76940000D01*
X160110000Y-71510000D02*
X160110000Y-72730000D01*
X160110000Y-72730000D02*
X155110000Y-72730000D01*
X160110000Y-78010000D02*
X155110000Y-78010000D01*
X160110000Y-79230000D02*
X160110000Y-78010000D01*
X161330000Y-71510000D02*
X161330000Y-79230000D01*
X161330000Y-79230000D02*
X152910000Y-79230000D01*
%TO.C,U2*%
X98155000Y-96295000D02*
X96205000Y-96295000D01*
X98155000Y-96295000D02*
X100105000Y-96295000D01*
X98155000Y-101415000D02*
X96205000Y-101415000D01*
X98155000Y-101415000D02*
X100105000Y-101415000D01*
X95455000Y-96390000D02*
X95215000Y-96060000D01*
X95695000Y-96060000D01*
X95455000Y-96390000D01*
G36*
X95455000Y-96390000D02*
G01*
X95215000Y-96060000D01*
X95695000Y-96060000D01*
X95455000Y-96390000D01*
G37*
%TO.C,C6*%
X123791252Y-80955000D02*
X123268748Y-80955000D01*
X123791252Y-82425000D02*
X123268748Y-82425000D01*
%TO.C,U5*%
X112490000Y-99220000D02*
X112490000Y-83920000D01*
X112490000Y-101820000D02*
X112490000Y-100490000D01*
X113820000Y-101820000D02*
X112490000Y-101820000D01*
X115150000Y-83920000D02*
X112490000Y-83920000D01*
X115150000Y-99220000D02*
X112490000Y-99220000D01*
X115150000Y-99220000D02*
X115150000Y-83920000D01*
%TO.C,U4*%
X123562500Y-95790000D02*
X122762500Y-95790000D01*
X123562500Y-95790000D02*
X124362500Y-95790000D01*
X123562500Y-98910000D02*
X122762500Y-98910000D01*
X123562500Y-98910000D02*
X124362500Y-98910000D01*
X122262500Y-95840000D02*
X122022500Y-95510000D01*
X122502500Y-95510000D01*
X122262500Y-95840000D01*
G36*
X122262500Y-95840000D02*
G01*
X122022500Y-95510000D01*
X122502500Y-95510000D01*
X122262500Y-95840000D01*
G37*
%TO.C,R11*%
X104222936Y-96205000D02*
X104677064Y-96205000D01*
X104222936Y-97675000D02*
X104677064Y-97675000D01*
%TO.C,BZ1*%
X113300000Y-111150000D02*
G75*
G02*
X101100000Y-111150000I-6100000J0D01*
G01*
X101100000Y-111150000D02*
G75*
G02*
X113300000Y-111150000I6100000J0D01*
G01*
%TO.C,C1*%
X84405000Y-101271252D02*
X84405000Y-100748748D01*
X85875000Y-101271252D02*
X85875000Y-100748748D01*
%TO.C,JP1*%
X84660000Y-110270000D02*
X84660000Y-109670000D01*
X85210000Y-111470000D02*
X85810000Y-111470000D01*
X85310000Y-108970000D02*
X88110000Y-108970000D01*
X85510000Y-111170000D02*
X85210000Y-111470000D01*
X85510000Y-111170000D02*
X85810000Y-111470000D01*
X88110000Y-110970000D02*
X85310000Y-110970000D01*
X88760000Y-109670000D02*
X88760000Y-110270000D01*
X84660000Y-109670000D02*
G75*
G02*
X85360000Y-108970000I699999J1D01*
G01*
X85360000Y-110970000D02*
G75*
G02*
X84660000Y-110270000I-1J699999D01*
G01*
X88060000Y-108970000D02*
G75*
G02*
X88760000Y-109670000I0J-700000D01*
G01*
X88760000Y-110270000D02*
G75*
G02*
X88060000Y-110970000I-700000J0D01*
G01*
%TO.C,F1*%
X124590000Y-74180000D02*
X125360000Y-74180000D01*
X125360000Y-72810000D02*
X125360000Y-75550000D01*
X125360000Y-75550000D02*
X131900000Y-75550000D01*
X131900000Y-72810000D02*
X125360000Y-72810000D01*
X131900000Y-75550000D02*
X131900000Y-72810000D01*
X132670000Y-74180000D02*
X131900000Y-74180000D01*
%TO.C,J3*%
X116680000Y-122540000D02*
X116680000Y-125040000D01*
X116680000Y-125040000D02*
X119180000Y-125040000D01*
X116980000Y-120720000D02*
X116980000Y-124740000D01*
X116980000Y-122430000D02*
X117480000Y-122430000D01*
X116980000Y-123240000D02*
X117980000Y-123240000D01*
X116980000Y-124740000D02*
X124700000Y-124740000D01*
X117480000Y-121220000D02*
X124200000Y-121220000D01*
X117480000Y-122430000D02*
X117480000Y-121220000D01*
X117980000Y-123240000D02*
X117980000Y-124740000D01*
X123700000Y-123240000D02*
X123700000Y-124740000D01*
X124200000Y-121220000D02*
X124200000Y-122430000D01*
X124200000Y-122430000D02*
X124700000Y-122430000D01*
X124700000Y-120720000D02*
X116980000Y-120720000D01*
X124700000Y-123240000D02*
X123700000Y-123240000D01*
X124700000Y-124740000D02*
X124700000Y-120720000D01*
%TO.C,C2*%
X87585000Y-101311252D02*
X87585000Y-100788748D01*
X89055000Y-101311252D02*
X89055000Y-100788748D01*
%TO.C,R7*%
X139847064Y-93565000D02*
X139392936Y-93565000D01*
X139847064Y-95035000D02*
X139392936Y-95035000D01*
%TO.C,R6*%
X88027064Y-104665000D02*
X87572936Y-104665000D01*
X88027064Y-106135000D02*
X87572936Y-106135000D01*
%TO.C,R3*%
X129647064Y-93645000D02*
X129192936Y-93645000D01*
X129647064Y-95115000D02*
X129192936Y-95115000D01*
%TO.C,J2*%
X106330000Y-122420000D02*
X106330000Y-124920000D01*
X106330000Y-124920000D02*
X108830000Y-124920000D01*
X106630000Y-120600000D02*
X106630000Y-124620000D01*
X106630000Y-122310000D02*
X107130000Y-122310000D01*
X106630000Y-123120000D02*
X107630000Y-123120000D01*
X106630000Y-124620000D02*
X114350000Y-124620000D01*
X107130000Y-121100000D02*
X113850000Y-121100000D01*
X107130000Y-122310000D02*
X107130000Y-121100000D01*
X107630000Y-123120000D02*
X107630000Y-124620000D01*
X113350000Y-123120000D02*
X113350000Y-124620000D01*
X113850000Y-121100000D02*
X113850000Y-122310000D01*
X113850000Y-122310000D02*
X114350000Y-122310000D01*
X114350000Y-120600000D02*
X106630000Y-120600000D01*
X114350000Y-123120000D02*
X113350000Y-123120000D01*
X114350000Y-124620000D02*
X114350000Y-120600000D01*
%TO.C,R13*%
X139362936Y-101085000D02*
X139817064Y-101085000D01*
X139362936Y-102555000D02*
X139817064Y-102555000D01*
%TO.C,R10*%
X139352936Y-90975000D02*
X139807064Y-90975000D01*
X139352936Y-92445000D02*
X139807064Y-92445000D01*
%TO.C,R14*%
X129717064Y-89205000D02*
X129262936Y-89205000D01*
X129717064Y-90675000D02*
X129262936Y-90675000D01*
%TO.C,RV1*%
X79480000Y-91760000D02*
X80061000Y-91760000D01*
X79480000Y-97000000D02*
X79480000Y-91760000D01*
X79480000Y-97000000D02*
X81210000Y-97000000D01*
X81840000Y-91760000D02*
X82360000Y-91760000D01*
X82990000Y-97000000D02*
X84720000Y-97000000D01*
X84140000Y-91760000D02*
X84720000Y-91760000D01*
X84720000Y-97000000D02*
X84720000Y-91760000D01*
%TO.C,C10*%
X90065000Y-92591252D02*
X90065000Y-92068748D01*
X91535000Y-92591252D02*
X91535000Y-92068748D01*
%TO.C,R8*%
X91855000Y-96982936D02*
X91855000Y-97437064D01*
X93325000Y-96982936D02*
X93325000Y-97437064D01*
%TO.C,C5*%
X108268748Y-96225000D02*
X108791252Y-96225000D01*
X108268748Y-97695000D02*
X108791252Y-97695000D01*
%TO.C,C3*%
X104188748Y-100125000D02*
X104711252Y-100125000D01*
X104188748Y-101595000D02*
X104711252Y-101595000D01*
%TO.C,R2*%
X82515000Y-88317064D02*
X82515000Y-87862936D01*
X83985000Y-88317064D02*
X83985000Y-87862936D01*
%TO.C,U1*%
X85180000Y-92480000D02*
X85180000Y-94080000D01*
X88380000Y-92480000D02*
X88380000Y-94080000D01*
X88560000Y-92270000D02*
X88230000Y-92030000D01*
X88560000Y-91790000D01*
X88560000Y-92270000D01*
G36*
X88560000Y-92270000D02*
G01*
X88230000Y-92030000D01*
X88560000Y-91790000D01*
X88560000Y-92270000D01*
G37*
%TO.C,R12*%
X102765000Y-92507064D02*
X102765000Y-92052936D01*
X104235000Y-92507064D02*
X104235000Y-92052936D01*
%TO.C,RV2*%
X121100000Y-88410000D02*
X121100000Y-90140000D01*
X121100000Y-88410000D02*
X126340000Y-88410000D01*
X121100000Y-91920000D02*
X121100000Y-93650000D01*
X121100000Y-93650000D02*
X126340000Y-93650000D01*
X126340000Y-88410000D02*
X126340000Y-88991000D01*
X126340000Y-90770000D02*
X126340000Y-91290000D01*
X126340000Y-93070000D02*
X126340000Y-93650000D01*
%TO.C,Q1*%
X95007500Y-91950000D02*
X95007500Y-91300000D01*
X95007500Y-91950000D02*
X95007500Y-92600000D01*
X98127500Y-91950000D02*
X98127500Y-91300000D01*
X98127500Y-91950000D02*
X98127500Y-92600000D01*
X95057500Y-93112500D02*
X94727500Y-93352500D01*
X94727500Y-92872500D01*
X95057500Y-93112500D01*
G36*
X95057500Y-93112500D02*
G01*
X94727500Y-93352500D01*
X94727500Y-92872500D01*
X95057500Y-93112500D01*
G37*
%TO.C,C8*%
X118240000Y-105304437D02*
X118240000Y-112760000D01*
X118240000Y-112760000D02*
X121190000Y-112760000D01*
X119304437Y-104240000D02*
X118240000Y-105304437D01*
X119304437Y-104240000D02*
X121190000Y-104240000D01*
X125695563Y-104240000D02*
X123810000Y-104240000D01*
X125695563Y-104240000D02*
X126760000Y-105304437D01*
X126760000Y-105304437D02*
X126760000Y-112760000D01*
X126760000Y-112760000D02*
X123810000Y-112760000D01*
%TO.C,R15*%
X129242936Y-91525000D02*
X129697064Y-91525000D01*
X129242936Y-92995000D02*
X129697064Y-92995000D01*
%TD*%
%LPC*%
D15*
%TO.C,3V1*%
X128240000Y-83780000D03*
%TD*%
D16*
%TO.C,C7*%
X117970000Y-76570000D03*
X110770000Y-76570000D03*
%TD*%
D17*
%TO.C,R9*%
X92470000Y-102720000D03*
X92470000Y-100720000D03*
%TD*%
D18*
%TO.C,R1*%
X81010000Y-87160000D03*
X81010000Y-89160000D03*
%TD*%
D19*
%TO.C,REF\u002A\u002A*%
X93395000Y-112215000D03*
%TD*%
%TO.C,REF\u002A\u002A*%
X93395000Y-84235000D03*
%TD*%
D20*
%TO.C,J4*%
X130030000Y-122300000D03*
D21*
X132530000Y-122300000D03*
%TD*%
D22*
%TO.C,J1*%
X86782500Y-120630000D03*
D23*
X86782500Y-118130000D03*
%TD*%
D24*
%TO.C,C9*%
X85852500Y-96400000D03*
X87927500Y-96400000D03*
%TD*%
D25*
%TO.C,U3*%
X134525000Y-89180000D03*
D26*
X134525000Y-91720000D03*
X134525000Y-94260000D03*
X134525000Y-96800000D03*
X134525000Y-99340000D03*
X134525000Y-101880000D03*
X134525000Y-104420000D03*
X134525000Y-106960000D03*
X157385000Y-106960000D03*
X157385000Y-104420000D03*
X157385000Y-101880000D03*
X157385000Y-99340000D03*
X157385000Y-96800000D03*
X157385000Y-94260000D03*
X157385000Y-91720000D03*
X157385000Y-89180000D03*
%TD*%
D27*
%TO.C,Q2*%
X122650000Y-79297500D03*
X124550000Y-79297500D03*
X123600000Y-77422500D03*
%TD*%
D28*
%TO.C,C4*%
X100610000Y-94897500D03*
X100610000Y-92822500D03*
%TD*%
D19*
%TO.C,REF\u002A\u002A*%
X147395000Y-112215000D03*
%TD*%
D29*
%TO.C,J5*%
X154520000Y-74120000D03*
D23*
X154520000Y-76620000D03*
%TD*%
D30*
%TO.C,U2*%
X95680000Y-96950000D03*
X95680000Y-98220000D03*
X95680000Y-99490000D03*
X95680000Y-100760000D03*
X100630000Y-100760000D03*
X100630000Y-99490000D03*
X100630000Y-98220000D03*
X100630000Y-96950000D03*
%TD*%
D31*
%TO.C,C6*%
X124567500Y-81690000D03*
X122492500Y-81690000D03*
%TD*%
D32*
%TO.C,U5*%
X113820000Y-100490000D03*
D33*
X113820000Y-97950000D03*
X113820000Y-95410000D03*
X113820000Y-92870000D03*
X113820000Y-90330000D03*
X113820000Y-87790000D03*
X113820000Y-85250000D03*
%TD*%
D34*
%TO.C,U4*%
X122425000Y-96400000D03*
X122425000Y-97350000D03*
X122425000Y-98300000D03*
X124700000Y-98300000D03*
X124700000Y-96400000D03*
%TD*%
D35*
%TO.C,R11*%
X103450000Y-96940000D03*
X105450000Y-96940000D03*
%TD*%
D25*
%TO.C,BZ1*%
X111000000Y-111150000D03*
D36*
X103400000Y-111150000D03*
%TD*%
D28*
%TO.C,C1*%
X85140000Y-102047500D03*
X85140000Y-99972500D03*
%TD*%
D37*
%TO.C,JP1*%
X85410000Y-109970000D03*
D38*
X86710000Y-109970000D03*
D39*
X88010000Y-109970000D03*
%TD*%
D40*
%TO.C,F1*%
X133710000Y-74180000D03*
D41*
X123550000Y-74180000D03*
%TD*%
D20*
%TO.C,J3*%
X119590000Y-122430000D03*
D21*
X122090000Y-122430000D03*
%TD*%
D28*
%TO.C,C2*%
X88320000Y-102087500D03*
X88320000Y-100012500D03*
%TD*%
D42*
%TO.C,R7*%
X140620000Y-94300000D03*
X138620000Y-94300000D03*
%TD*%
%TO.C,R6*%
X88800000Y-105400000D03*
X86800000Y-105400000D03*
%TD*%
%TO.C,R3*%
X130420000Y-94380000D03*
X128420000Y-94380000D03*
%TD*%
D20*
%TO.C,J2*%
X109240000Y-122310000D03*
D21*
X111740000Y-122310000D03*
%TD*%
D35*
%TO.C,R13*%
X138590000Y-101820000D03*
X140590000Y-101820000D03*
%TD*%
%TO.C,R10*%
X138580000Y-91710000D03*
X140580000Y-91710000D03*
%TD*%
D42*
%TO.C,R14*%
X130490000Y-89940000D03*
X128490000Y-89940000D03*
%TD*%
D43*
%TO.C,RV1*%
X80950000Y-91630000D03*
D44*
X82100000Y-97130000D03*
D43*
X83250000Y-91630000D03*
%TD*%
D28*
%TO.C,C10*%
X90800000Y-93367500D03*
X90800000Y-91292500D03*
%TD*%
D18*
%TO.C,R8*%
X92590000Y-96210000D03*
X92590000Y-98210000D03*
%TD*%
D24*
%TO.C,C5*%
X107492500Y-96960000D03*
X109567500Y-96960000D03*
%TD*%
%TO.C,C3*%
X103412500Y-100860000D03*
X105487500Y-100860000D03*
%TD*%
D17*
%TO.C,R2*%
X83250000Y-89090000D03*
X83250000Y-87090000D03*
%TD*%
D45*
%TO.C,U1*%
X87730000Y-92120000D03*
X86780000Y-92120000D03*
X85830000Y-92120000D03*
X85830000Y-94440000D03*
X86780000Y-94440000D03*
X87730000Y-94440000D03*
%TD*%
D17*
%TO.C,R12*%
X103500000Y-93280000D03*
X103500000Y-91280000D03*
%TD*%
D43*
%TO.C,RV2*%
X126470000Y-89880000D03*
D46*
X120970000Y-91030000D03*
D43*
X126470000Y-92180000D03*
%TD*%
D27*
%TO.C,Q1*%
X95617500Y-92887500D03*
X97517500Y-92887500D03*
X96567500Y-91012500D03*
%TD*%
D47*
%TO.C,C8*%
X122500000Y-104900000D03*
X122500000Y-112100000D03*
%TD*%
D35*
%TO.C,R15*%
X128470000Y-92260000D03*
X130470000Y-92260000D03*
%TD*%
%LPD*%
M02*
