%TF.GenerationSoftware,KiCad,Pcbnew,8.0.7*%
%TF.CreationDate,2025-02-17T10:06:15+01:00*%
%TF.ProjectId,Mail-box,4d61696c-2d62-46f7-982e-6b696361645f,rev?*%
%TF.SameCoordinates,Original*%
%TF.FileFunction,Soldermask,Top*%
%TF.FilePolarity,Negative*%
%FSLAX46Y46*%
G04 Gerber Fmt 4.6, Leading zero omitted, Abs format (unit mm)*
G04 Created by KiCad (PCBNEW 8.0.7) date 2025-02-17 10:06:15*
%MOMM*%
%LPD*%
G01*
G04 APERTURE LIST*
G04 Aperture macros list*
%AMRoundRect*
0 Rectangle with rounded corners*
0 $1 Rounding radius*
0 $2 $3 $4 $5 $6 $7 $8 $9 X,Y pos of 4 corners*
0 Add a 4 corners polygon primitive as box body*
4,1,4,$2,$3,$4,$5,$6,$7,$8,$9,$2,$3,0*
0 Add four circle primitives for the rounded corners*
1,1,$1+$1,$2,$3*
1,1,$1+$1,$4,$5*
1,1,$1+$1,$6,$7*
1,1,$1+$1,$8,$9*
0 Add four rect primitives between the rounded corners*
20,1,$1+$1,$2,$3,$4,$5,0*
20,1,$1+$1,$4,$5,$6,$7,0*
20,1,$1+$1,$6,$7,$8,$9,0*
20,1,$1+$1,$8,$9,$2,$3,0*%
%AMFreePoly0*
4,1,19,0.550000,-0.750000,0.000000,-0.750000,0.000000,-0.744911,-0.071157,-0.744911,-0.207708,-0.704816,-0.327430,-0.627875,-0.420627,-0.520320,-0.479746,-0.390866,-0.500000,-0.250000,-0.500000,0.250000,-0.479746,0.390866,-0.420627,0.520320,-0.327430,0.627875,-0.207708,0.704816,-0.071157,0.744911,0.000000,0.744911,0.000000,0.750000,0.550000,0.750000,0.550000,-0.750000,0.550000,-0.750000,
$1*%
%AMFreePoly1*
4,1,19,0.000000,0.744911,0.071157,0.744911,0.207708,0.704816,0.327430,0.627875,0.420627,0.520320,0.479746,0.390866,0.500000,0.250000,0.500000,-0.250000,0.479746,-0.390866,0.420627,-0.520320,0.327430,-0.627875,0.207708,-0.704816,0.071157,-0.744911,0.000000,-0.744911,0.000000,-0.750000,-0.550000,-0.750000,-0.550000,0.750000,0.000000,0.750000,0.000000,0.744911,0.000000,0.744911,
$1*%
G04 Aperture macros list end*
%ADD10C,1.000000*%
%ADD11RoundRect,0.250001X1.999999X0.799999X-1.999999X0.799999X-1.999999X-0.799999X1.999999X-0.799999X0*%
%ADD12RoundRect,0.250000X0.450000X-0.350000X0.450000X0.350000X-0.450000X0.350000X-0.450000X-0.350000X0*%
%ADD13RoundRect,0.250000X-0.450000X0.350000X-0.450000X-0.350000X0.450000X-0.350000X0.450000X0.350000X0*%
%ADD14C,3.200000*%
%ADD15RoundRect,0.250000X-0.600000X-0.750000X0.600000X-0.750000X0.600000X0.750000X-0.600000X0.750000X0*%
%ADD16O,1.700000X2.000000*%
%ADD17RoundRect,0.250000X0.750000X-0.600000X0.750000X0.600000X-0.750000X0.600000X-0.750000X-0.600000X0*%
%ADD18O,2.000000X1.700000*%
%ADD19RoundRect,0.250000X-0.337500X-0.475000X0.337500X-0.475000X0.337500X0.475000X-0.337500X0.475000X0*%
%ADD20R,2.000000X2.000000*%
%ADD21O,2.000000X1.600000*%
%ADD22RoundRect,0.150000X0.150000X-0.587500X0.150000X0.587500X-0.150000X0.587500X-0.150000X-0.587500X0*%
%ADD23RoundRect,0.250000X0.475000X-0.337500X0.475000X0.337500X-0.475000X0.337500X-0.475000X-0.337500X0*%
%ADD24RoundRect,0.250000X-0.750000X0.600000X-0.750000X-0.600000X0.750000X-0.600000X0.750000X0.600000X0*%
%ADD25RoundRect,0.150000X-0.825000X-0.150000X0.825000X-0.150000X0.825000X0.150000X-0.825000X0.150000X0*%
%ADD26RoundRect,0.250000X0.337500X0.475000X-0.337500X0.475000X-0.337500X-0.475000X0.337500X-0.475000X0*%
%ADD27R,1.700000X1.700000*%
%ADD28O,1.700000X1.700000*%
%ADD29RoundRect,0.150000X-0.512500X-0.150000X0.512500X-0.150000X0.512500X0.150000X-0.512500X0.150000X0*%
%ADD30RoundRect,0.250000X-0.350000X-0.450000X0.350000X-0.450000X0.350000X0.450000X-0.350000X0.450000X0*%
%ADD31C,2.000000*%
%ADD32FreePoly0,0.000000*%
%ADD33R,1.000000X1.500000*%
%ADD34FreePoly1,0.000000*%
%ADD35C,1.600000*%
%ADD36O,1.600000X1.600000*%
%ADD37RoundRect,0.250000X0.350000X0.450000X-0.350000X0.450000X-0.350000X-0.450000X0.350000X-0.450000X0*%
%ADD38R,1.300000X1.300000*%
%ADD39R,1.300000X2.000000*%
%ADD40R,0.510000X0.700000*%
%ADD41R,2.000000X1.300000*%
%ADD42RoundRect,0.250001X-0.799999X1.999999X-0.799999X-1.999999X0.799999X-1.999999X0.799999X1.999999X0*%
G04 APERTURE END LIST*
D10*
%TO.C,3V1*%
X128240000Y-83780000D03*
%TD*%
D11*
%TO.C,C7*%
X117970000Y-76570000D03*
X110770000Y-76570000D03*
%TD*%
D12*
%TO.C,R9*%
X92470000Y-102720000D03*
X92470000Y-100720000D03*
%TD*%
D13*
%TO.C,R1*%
X81010000Y-87160000D03*
X81010000Y-89160000D03*
%TD*%
D14*
%TO.C,REF\u002A\u002A*%
X93395000Y-112215000D03*
%TD*%
%TO.C,REF\u002A\u002A*%
X93395000Y-84235000D03*
%TD*%
D15*
%TO.C,J4*%
X130030000Y-122300000D03*
D16*
X132530000Y-122300000D03*
%TD*%
D17*
%TO.C,J1*%
X86782500Y-120630000D03*
D18*
X86782500Y-118130000D03*
%TD*%
D19*
%TO.C,C9*%
X85852500Y-96400000D03*
X87927500Y-96400000D03*
%TD*%
D20*
%TO.C,U3*%
X134525000Y-89180000D03*
D21*
X134525000Y-91720000D03*
X134525000Y-94260000D03*
X134525000Y-96800000D03*
X134525000Y-99340000D03*
X134525000Y-101880000D03*
X134525000Y-104420000D03*
X134525000Y-106960000D03*
X157385000Y-106960000D03*
X157385000Y-104420000D03*
X157385000Y-101880000D03*
X157385000Y-99340000D03*
X157385000Y-96800000D03*
X157385000Y-94260000D03*
X157385000Y-91720000D03*
X157385000Y-89180000D03*
%TD*%
D22*
%TO.C,Q2*%
X122650000Y-79297500D03*
X124550000Y-79297500D03*
X123600000Y-77422500D03*
%TD*%
D23*
%TO.C,C4*%
X100610000Y-94897500D03*
X100610000Y-92822500D03*
%TD*%
D14*
%TO.C,REF\u002A\u002A*%
X147395000Y-112215000D03*
%TD*%
D24*
%TO.C,J5*%
X154520000Y-74120000D03*
D18*
X154520000Y-76620000D03*
%TD*%
D25*
%TO.C,U2*%
X95680000Y-96950000D03*
X95680000Y-98220000D03*
X95680000Y-99490000D03*
X95680000Y-100760000D03*
X100630000Y-100760000D03*
X100630000Y-99490000D03*
X100630000Y-98220000D03*
X100630000Y-96950000D03*
%TD*%
D26*
%TO.C,C6*%
X124567500Y-81690000D03*
X122492500Y-81690000D03*
%TD*%
D27*
%TO.C,U5*%
X113820000Y-100490000D03*
D28*
X113820000Y-97950000D03*
X113820000Y-95410000D03*
X113820000Y-92870000D03*
X113820000Y-90330000D03*
X113820000Y-87790000D03*
X113820000Y-85250000D03*
%TD*%
D29*
%TO.C,U4*%
X122425000Y-96400000D03*
X122425000Y-97350000D03*
X122425000Y-98300000D03*
X124700000Y-98300000D03*
X124700000Y-96400000D03*
%TD*%
D30*
%TO.C,R11*%
X103450000Y-96940000D03*
X105450000Y-96940000D03*
%TD*%
D20*
%TO.C,BZ1*%
X111000000Y-111150000D03*
D31*
X103400000Y-111150000D03*
%TD*%
D23*
%TO.C,C1*%
X85140000Y-102047500D03*
X85140000Y-99972500D03*
%TD*%
D32*
%TO.C,JP1*%
X85410000Y-109970000D03*
D33*
X86710000Y-109970000D03*
D34*
X88010000Y-109970000D03*
%TD*%
D35*
%TO.C,F1*%
X133710000Y-74180000D03*
D36*
X123550000Y-74180000D03*
%TD*%
D15*
%TO.C,J3*%
X119590000Y-122430000D03*
D16*
X122090000Y-122430000D03*
%TD*%
D23*
%TO.C,C2*%
X88320000Y-102087500D03*
X88320000Y-100012500D03*
%TD*%
D37*
%TO.C,R7*%
X140620000Y-94300000D03*
X138620000Y-94300000D03*
%TD*%
%TO.C,R6*%
X88800000Y-105400000D03*
X86800000Y-105400000D03*
%TD*%
%TO.C,R3*%
X130420000Y-94380000D03*
X128420000Y-94380000D03*
%TD*%
D15*
%TO.C,J2*%
X109240000Y-122310000D03*
D16*
X111740000Y-122310000D03*
%TD*%
D30*
%TO.C,R13*%
X138590000Y-101820000D03*
X140590000Y-101820000D03*
%TD*%
%TO.C,R10*%
X138580000Y-91710000D03*
X140580000Y-91710000D03*
%TD*%
D37*
%TO.C,R14*%
X130490000Y-89940000D03*
X128490000Y-89940000D03*
%TD*%
D38*
%TO.C,RV1*%
X80950000Y-91630000D03*
D39*
X82100000Y-97130000D03*
D38*
X83250000Y-91630000D03*
%TD*%
D23*
%TO.C,C10*%
X90800000Y-93367500D03*
X90800000Y-91292500D03*
%TD*%
D13*
%TO.C,R8*%
X92590000Y-96210000D03*
X92590000Y-98210000D03*
%TD*%
D19*
%TO.C,C5*%
X107492500Y-96960000D03*
X109567500Y-96960000D03*
%TD*%
%TO.C,C3*%
X103412500Y-100860000D03*
X105487500Y-100860000D03*
%TD*%
D12*
%TO.C,R2*%
X83250000Y-89090000D03*
X83250000Y-87090000D03*
%TD*%
D40*
%TO.C,U1*%
X87730000Y-92120000D03*
X86780000Y-92120000D03*
X85830000Y-92120000D03*
X85830000Y-94440000D03*
X86780000Y-94440000D03*
X87730000Y-94440000D03*
%TD*%
D12*
%TO.C,R12*%
X103500000Y-93280000D03*
X103500000Y-91280000D03*
%TD*%
D38*
%TO.C,RV2*%
X126470000Y-89880000D03*
D41*
X120970000Y-91030000D03*
D38*
X126470000Y-92180000D03*
%TD*%
D22*
%TO.C,Q1*%
X95617500Y-92887500D03*
X97517500Y-92887500D03*
X96567500Y-91012500D03*
%TD*%
D42*
%TO.C,C8*%
X122500000Y-104900000D03*
X122500000Y-112100000D03*
%TD*%
D30*
%TO.C,R15*%
X128470000Y-92260000D03*
X130470000Y-92260000D03*
%TD*%
M02*
